<svg xmlns="http://www.w3.org/2000/svg" viewBox="0 0 1919.57 624.71"><defs><style>.cls-1{opacity:0.1;}.cls-2,.cls-3,.cls-4,.cls-5{fill:#c6c6c6;stroke:gray;}.cls-2,.cls-5{stroke-linecap:round;stroke-linejoin:round;}.cls-3,.cls-4{stroke-miterlimit:10;}.cls-3{stroke-width:4.36px;}.cls-5{stroke-width:0.87px;}</style></defs><g id="Capa_2" data-name="Capa 2"><g id="Capa_1-2" data-name="Capa 1"><g class="cls-1"><rect class="cls-2" x="417.61" y="466.44" width="16.14" height="150.99"/><path class="cls-2" d="M494.14,426.35H433.88c.36-34.6,26.18-49.39,32.9-57a19.78,19.78,0,0,0,5.06-15.88h17.1A19.66,19.66,0,0,0,494,369.37c1.58,1.78,4.22,4,7.33,6.72"/><polyline class="cls-2" points="694.69 617.43 433.75 617.43 433.75 425.52"/><path class="cls-2" d="M479.43,440.49c0-3.41-2.07-6.18-4.64-6.18s-4.64,2.77-4.64,6.18c0,.25,0,.49.05.74h-.05v18.95h9.28V441.23h-.05C479.4,441,479.43,440.74,479.43,440.49Z"/><path class="cls-2" d="M491.92,518.83c0-15.56-13.07-28.16-29.17-28.16s-29.18,12.6-29.18,28.16"/><path class="cls-2" d="M467.56,563.08c0-3.82-2.32-6.91-5.19-6.91s-5.2,3.09-5.2,6.91a8.58,8.58,0,0,0,.11,1.35h-.11V616.9h10.39V564.43h-.1A10,10,0,0,0,467.56,563.08Z"/><path class="cls-2" d="M488.69,337.26s-.43-10.5-6.88-15.13H479c-6.45,4.62-6.89,15.13-6.89,15.13Z"/><path class="cls-2" d="M448,514.09a14.33,14.33,0,1,0,14.33-14.82A14.57,14.57,0,0,0,448,514.09Z"/><polyline class="cls-2" points="673.2 348.97 673.2 418.38 519.9 418.38 519.9 348.97"/><polyline class="cls-2" points="569.34 518.84 569.34 426.76 623.58 426.76 623.58 518.84"/><path class="cls-2" d="M555.68,572.88a18.87,18.87,0,0,0-37.74,0c0,.13,0,.26,0,.39h0v44.16h37.74V573.27h0C555.66,573.14,555.68,573,555.68,572.88Z"/><path class="cls-2" d="M614.41,572.88a18.87,18.87,0,0,0-37.74,0c0,.13,0,.26,0,.39h0v44.16h37.74V573.27h0C614.4,573.14,614.41,573,614.41,572.88Z"/><path class="cls-2" d="M674.74,572.88a18.87,18.87,0,0,0-37.74,0c0,.13,0,.26,0,.39h0v44.16h37.74V573.27h0C674.72,573.14,674.74,573,674.74,572.88Z"/><path class="cls-2" d="M579.32,518.84V459a16.67,16.67,0,0,1,33.33,0v59.81"/><path class="cls-2" d="M665.45,518.84V461.06a16.67,16.67,0,0,0-33.34,0v57.78"/><path class="cls-2" d="M560.81,518.84V461.06a16.67,16.67,0,0,0-33.34,0v57.78"/><path class="cls-2" d="M602.66,463.93c0-4.61-2.79-8.34-6.27-8.34s-6.26,3.73-6.26,8.34c0,.34,0,.66.08,1h-.08v38.79h12.53V464.92h-.08C602.61,464.59,602.66,464.27,602.66,463.93Z"/><path class="cls-2" d="M654,486.14c0-3.78-2.3-6.84-5.19-6.84s-5.19,3.06-5.19,6.84c0,.28,0,.55.06.82h-.06v31.87H654V487h-.06A7.36,7.36,0,0,0,654,486.14Z"/><path class="cls-2" d="M549.33,486c0-3.78-2.31-6.85-5.19-6.85S539,482.23,539,486a7.36,7.36,0,0,0,.06.82H539V518.7h10.38V486.83h-.06C549.29,486.56,549.33,486.29,549.33,486Z"/><rect class="cls-2" x="491.92" y="519.07" width="11.53" height="98.36"/><rect class="cls-2" x="583.47" y="212.86" width="23.18" height="20.28"/><path class="cls-2" d="M658,326.48c-3.05-43-35.7-61.9-44.44-71.79a26.81,26.81,0,0,1-6.87-21.56H583.47a26.81,26.81,0,0,1-6.87,21.56c-8.75,9.89-41.4,28.77-44.44,71.79"/><polyline class="cls-2" points="613.14 348.96 667.66 348.96 667.66 326.48 522.54 326.48 522.54 348.96 579.57 348.96"/><line class="cls-2" x1="543.2" y1="332.92" x2="543.2" y2="342.82"/><line class="cls-2" x1="531.39" y1="342.82" x2="531.39" y2="332.92"/><line class="cls-2" x1="555.01" y1="332.92" x2="555.01" y2="342.82"/><line class="cls-2" x1="543.2" y1="342.82" x2="543.2" y2="332.92"/><line class="cls-2" x1="566.82" y1="332.92" x2="566.82" y2="342.82"/><line class="cls-2" x1="555.01" y1="342.82" x2="555.01" y2="332.92"/><line class="cls-2" x1="578.64" y1="332.92" x2="578.64" y2="342.82"/><line class="cls-2" x1="566.82" y1="342.82" x2="566.82" y2="332.92"/><line class="cls-2" x1="590.45" y1="342.51" x2="590.45" y2="332.92"/><line class="cls-2" x1="578.64" y1="342.82" x2="578.64" y2="332.92"/><line class="cls-2" x1="602.27" y1="342.51" x2="602.27" y2="332.92"/><line class="cls-2" x1="590.45" y1="342.51" x2="590.45" y2="332.92"/><line class="cls-2" x1="614.07" y1="332.92" x2="614.07" y2="342.82"/><line class="cls-2" x1="602.27" y1="342.51" x2="602.27" y2="332.92"/><line class="cls-2" x1="625.89" y1="332.92" x2="625.89" y2="342.82"/><line class="cls-2" x1="614.07" y1="342.82" x2="614.07" y2="332.92"/><line class="cls-2" x1="637.7" y1="332.92" x2="637.7" y2="342.82"/><line class="cls-2" x1="625.89" y1="342.82" x2="625.89" y2="332.92"/><line class="cls-2" x1="649.51" y1="332.92" x2="649.51" y2="342.82"/><line class="cls-2" x1="637.7" y1="342.82" x2="637.7" y2="332.92"/><line class="cls-2" x1="661.32" y1="332.92" x2="661.32" y2="342.82"/><line class="cls-2" x1="649.51" y1="342.82" x2="649.51" y2="332.92"/><rect class="cls-2" x="569.12" y="355.14" width="54.47" height="63.24"/><path class="cls-2" d="M610.05,373.64a13.7,13.7,0,1,0-27.39,0c0,.1,0,.19,0,.29h0v44.45h27.39V373.93h0C610,373.83,610.05,373.74,610.05,373.64Z"/><polygon class="cls-2" points="519.9 455.69 519.9 395.89 513.9 395.89 513.71 395.89 500.33 395.89 500.01 395.89 494.14 395.89 494.14 455.51 491.92 458.64 491.92 518.83 505.41 518.83 508.5 518.83 521.99 518.83 521.99 458.64 519.9 455.69"/><path class="cls-2" d="M606.66,213s-.61-14.66-9.62-21.12h-4c-9,6.46-9.61,21.11-9.61,21.11Z"/><line class="cls-2" x1="595.06" y1="191.87" x2="595.06" y2="178.09"/><line class="cls-2" x1="590.6" y1="182.91" x2="599.53" y2="182.91"/><line class="cls-2" x1="580.06" y1="233.13" x2="610.06" y2="233.13"/><line class="cls-2" x1="580.06" y1="212.86" x2="610.06" y2="212.86"/><line class="cls-2" x1="676.61" y1="348.96" x2="613.14" y2="348.96"/><line class="cls-2" x1="579.56" y1="348.96" x2="515.57" y2="348.96"/><path class="cls-2" d="M507.59,371.18h-1.28c-10.58,7.29-12.3,24.71-12.3,24.71H519.9S518.18,378.47,507.59,371.18Z"/><rect class="cls-2" x="472.08" y="337.22" width="16.61" height="16.27"/><line class="cls-2" x1="480.38" y1="320.89" x2="480.38" y2="307.1"/><line class="cls-2" x1="475.92" y1="311.93" x2="484.85" y2="311.93"/><rect class="cls-2" x="519.9" y="418.38" width="153.13" height="8.38"/><polygon class="cls-2" points="569.12 355.14 596.36 339.02 623.59 355.14 569.12 355.14"/><line class="cls-2" x1="433.75" y1="466.44" x2="491.92" y2="466.44"/><rect class="cls-2" x="759.38" y="466.41" width="16.14" height="150.99"/><path class="cls-2" d="M691.81,376.06c3.11-2.75,5.75-4.94,7.33-6.72a19.69,19.69,0,0,0,5.06-15.88h17.09a19.78,19.78,0,0,0,5.06,15.88c6.72,7.59,32.54,22.38,32.9,57H699"/><polyline class="cls-2" points="759.38 425.49 759.38 617.4 498.44 617.4"/><path class="cls-2" d="M713.7,440.46c0-3.41,2.07-6.17,4.64-6.17s4.64,2.76,4.64,6.17c0,.26,0,.49-.05.74H723v18.95H713.7V441.2h0C713.73,441,713.7,440.72,713.7,440.46Z"/><path class="cls-2" d="M701.21,518.8c0-15.56,13.07-28.16,29.17-28.16s29.18,12.6,29.18,28.16"/><path class="cls-2" d="M725.57,563.05c0-3.82,2.32-6.91,5.19-6.91s5.2,3.09,5.2,6.91a8.58,8.58,0,0,1-.11,1.35H736v52.47H725.57V564.4h.1A10,10,0,0,1,725.57,563.05Z"/><path class="cls-2" d="M704.44,337.23s.43-10.5,6.88-15.13h2.85c6.45,4.63,6.89,15.13,6.89,15.13Z"/><path class="cls-2" d="M745.09,514.06a14.33,14.33,0,1,1-14.33-14.82A14.58,14.58,0,0,1,745.09,514.06Z"/><rect class="cls-2" x="689.68" y="519.04" width="11.53" height="98.36"/><polygon class="cls-2" points="673.23 455.66 673.23 395.87 679.23 395.87 679.42 395.87 692.8 395.87 693.12 395.87 698.99 395.87 698.99 455.48 701.21 458.61 701.21 518.8 687.72 518.8 684.63 518.8 671.14 518.8 671.14 458.61 673.23 455.66"/><path class="cls-2" d="M685.54,371.15h1.28c10.58,7.29,12.3,24.72,12.3,24.72H673.23S675,378.44,685.54,371.15Z"/><rect class="cls-2" x="704.44" y="337.19" width="16.61" height="16.27"/><line class="cls-2" x1="712.75" y1="320.86" x2="712.75" y2="307.07"/><line class="cls-2" x1="717.21" y1="311.9" x2="708.28" y2="311.9"/><line class="cls-2" x1="759.38" y1="466.41" x2="701.21" y2="466.41"/><polyline class="cls-2" points="519.9 418.37 520.16 418.37 569.12 418.37 582.66 418.37 610.05 418.37 623.58 418.37 672.8 418.37 672.97 418.37 673.02 418.37 673.19 418.37 673.24 418.37"/><polyline class="cls-2" points="673.24 410.97 673.19 410.94 672.97 410.81 623.58 384.25"/><polyline class="cls-2" points="519.9 410.74 520.16 410.6 569.12 384.27"/><line class="cls-2" x1="497.69" y1="518.7" x2="683.79" y2="518.7"/><path class="cls-2" d="M1298.46,423.48h-.22V617.43h81.68V436.36"/><rect class="cls-2" x="1463.07" y="436.36" width="81.69" height="181.07"/><rect class="cls-2" x="1477.24" y="453.86" width="53.36" height="30.36"/><rect class="cls-2" x="1485.59" y="537.05" width="36.64" height="80.39"/><rect class="cls-2" x="1311.82" y="453.77" width="53.36" height="30.36"/><rect class="cls-2" x="1320.18" y="536.96" width="36.64" height="80.39"/><polyline class="cls-2" points="1544.76 436.36 1545.42 436.36 1545.42 423.22 1298.46 423.22 1298.46 423.48 1298.46 436.36 1379.92 436.36 1463.07 436.36"/><polygon class="cls-2" points="1288.47 403.25 1288.47 415.2 1288.47 415.2 1295.26 423.22 1548.63 423.22 1555.42 415.2 1555.42 415.2 1555.42 403.25 1288.47 403.25"/><path class="cls-2" d="M1463.07,440.79v75.53c-.67-23.45-19-42.26-41.58-42.26s-40.9,18.81-41.56,42.26c0,0,0-75.53,0-75.53"/><line class="cls-2" x1="1295.77" y1="518.98" x2="1382.37" y2="518.98"/><line class="cls-2" x1="1460.62" y1="518.98" x2="1547.22" y2="518.98"/><rect class="cls-2" x="1298.69" y="365.85" width="246.5" height="37.34"/><line class="cls-2" x1="1327.91" y1="378.63" x2="1327.91" y2="403.18"/><line class="cls-2" x1="1354.78" y1="378.63" x2="1354.78" y2="403.18"/><line class="cls-2" x1="1381.64" y1="378.63" x2="1381.64" y2="403.18"/><line class="cls-2" x1="1408.51" y1="378.63" x2="1408.51" y2="403.18"/><line class="cls-2" x1="1435.38" y1="378.63" x2="1435.38" y2="403.18"/><line class="cls-2" x1="1462.25" y1="378.63" x2="1462.25" y2="403.18"/><line class="cls-2" x1="1489.11" y1="378.63" x2="1489.11" y2="403.18"/><line class="cls-2" x1="1515.98" y1="378.63" x2="1515.98" y2="403.18"/><rect class="cls-2" x="1298.69" y="365.85" width="246.5" height="12.79"/><polygon class="cls-2" points="369.14 370.6 326.96 412.79 164.17 412.79 121.98 370.6 369.14 370.6"/><polyline class="cls-2" points="164.18 617.43 121.98 617.43 121.98 370.6 164.18 412.73 164.18 589.27"/><polyline class="cls-2" points="326.96 617.43 369.14 617.43 369.14 370.6 326.96 412.73 326.96 589.27"/><rect class="cls-2" x="136.06" y="598.66" width="218.88" height="9.39"/><rect class="cls-2" x="121.98" y="608.05" width="247.03" height="9.39"/><rect class="cls-2" x="145.31" y="589.27" width="200.02" height="9.39"/><polyline class="cls-2" points="135.14 492.9 135.14 383.71 189.62 383.71"/><line class="cls-2" x1="203.17" y1="383.71" x2="238.45" y2="383.71"/><line class="cls-2" x1="265.76" y1="383.71" x2="356.86" y2="383.71"/><line class="cls-2" x1="135.14" y1="510.04" x2="135.14" y2="555.49"/><line class="cls-2" x1="355.26" y1="438.3" x2="355.26" y2="487.18"/><line class="cls-2" x1="355.26" y1="512.46" x2="355.26" y2="605.89"/><line class="cls-2" x1="341.39" y1="458.67" x2="341.39" y2="536.55"/><polyline class="cls-2" points="149.74 424.68 149.74 397.62 267.89 397.62"/><line class="cls-2" x1="149.74" y1="449.93" x2="149.74" y2="532.47"/><line class="cls-2" x1="296.12" y1="397.62" x2="341.39" y2="397.62"/><line class="cls-2" x1="341.39" y1="589.27" x2="341.39" y2="556.72"/><path class="cls-3" d="M164.66,521.29l-7.26-5.58-1.33-1-2.51-1.91c-.4-.29-1.52-1.17-2.5-1.93L148.61,509l-3.78-2.9-2-1.52-.49-.37-3.66-2.81c-.3-.22-1.43-1.08-2.52-1.93s-2.14-1.64-2.34-1.79-.41-.31-.45-.36-1-.75-2.24-1.72v-9.34h22.28v-5.85h0l-46.5-32.17c1.1-.86,2-1.54,2.1-1.61l3.31-2.54,3.13-2.42.91-.69h0c1.32-1,2.38-1.84,2.53-1.95s1.24-1,2.43-1.88l2.5-1.93,3.5-2.67,2.25-1.75h0l.55-.41c1.73-1.32,3.18-2.45,3.25-2.48a4.38,4.38,0,0,1,.45-.37l2.34-1.8,2.52-1.92,3.66-2.81.49-.36,2-1.52c1.73-1.32,3.43-2.63,3.78-2.92l2.45-1.87c1-.76,2.1-1.64,2.5-1.94s1.31-1,2.51-1.92l1.33-1,7.26-5.57a3.4,3.4,0,0,0,.34-5.22l-16.94-16.92a3.39,3.39,0,0,0-5.22.34l-5.56,7.25c-.36.45-.7.92-1,1.34l-1.93,2.5c-.3.39-1.17,1.51-1.92,2.51s-1.63,2.09-1.89,2.44l-2.91,3.78-1.51,2-.36.47c-1.33,1.73-2.61,3.37-2.83,3.67s-1.07,1.42-1.92,2.51l-1.79,2.34c-.16.21-.33.41-.38.47s-1.15,1.52-2.48,3.25l-.41.53v0l-1.73,2.24c-1.33,1.74-2.53,3.32-2.69,3.5s-1,1.33-1.92,2.5l-1.89,2.45c-.11.13-.92,1.19-1.93,2.53v0c-.25.28-.47.58-.71.89l-2.42,3.14c-1.32,1.73-2.46,3.23-2.54,3.32s-.94,1.22-1.92,2.52c-.36.46-.69.9-1,1.26l-13.06-9-13.07,9c-.3-.36-.63-.8-1-1.26-1-1.3-1.84-2.42-1.92-2.52s-1.22-1.59-2.54-3.32l-2.42-3.14c-.24-.31-.46-.61-.71-.89l0,0,0,0v0c-1-1.34-1.82-2.4-1.93-2.53s-1-1.26-1.88-2.45-1.79-2.29-1.93-2.48-1.35-1.78-2.67-3.5l-1.75-2.28-.41-.53c-1.33-1.73-2.45-3.2-2.48-3.25l-.38-.45c-.15-.2-.95-1.27-1.79-2.36s-1.69-2.22-1.92-2.5l-2.81-3.67-.36-.48-1.52-2c-1.32-1.73-2.64-3.43-2.92-3.79s-1.11-1.45-1.87-2.44l-1.94-2.51L32,390.62c-.33-.42-.67-.89-1-1.34L25.4,382a3.4,3.4,0,0,0-5.23-.34L3.25,398.61a3.39,3.39,0,0,0,.34,5.22l7.24,5.57,1.33,1h0c1.21.93,2.21,1.71,2.5,1.92s1.51,1.18,2.51,1.94,2.09,1.61,2.44,1.87,2.06,1.6,3.77,2.92l2,1.52.47.36,3.66,2.81L32,425.69l2.34,1.81c.2.16.41.33.47.36s1.51,1.17,3.25,2.5l.53.41,2.26,1.73,3.5,2.67,2.5,1.93c1.19.91,2.28,1.77,2.45,1.88l2.51,1.95h0l0,0,0,0,.91.69L55.91,444l3.33,2.54,2.08,1.61L14.8,480.36v5.85H37.08L37,495.6c-1.21.94-2.12,1.62-2.15,1.65l-.47.38L32,499.42c-1.09.85-2.23,1.71-2.52,1.93s-1.93,1.49-3.66,2.82l-.47.36-2,1.52L19.63,509c-.35.26-1.46,1.12-2.44,1.89s-2.12,1.62-2.51,1.92l-2.52,1.92c-.44.34-.87.69-1.33,1l-7.24,5.58a3.38,3.38,0,0,0-.34,5.21l16.92,16.94a3.42,3.42,0,0,0,5.23-.34L31,535.84c.35-.45.69-.91,1-1.33L33.91,532c.3-.39,1.17-1.52,1.94-2.5L37,528c-.52,27.47-2.38,66.69-8.3,89.48H139.49c-5.94-22.8-7.78-62-8.3-89.49.36.45.8,1,1.21,1.56l1.92,2.5,1.93,2.51c.33.42.69.88,1,1.33l5.56,7.26a3.4,3.4,0,0,0,5.22.34L165,526.5A3.39,3.39,0,0,0,164.66,521.29Z"/><rect class="cls-4" x="143.64" y="482" width="14.05" height="28.11"/><path class="cls-2" d="M37.18,497s1.37,82.7-8.43,120.42H139.49c-9.8-37.72-8.44-120.42-8.44-120.42"/><polyline class="cls-2" points="131.15 486.22 131.22 517.32 106.85 517.32 61.38 517.32 36.83 517.32 37.08 486.22"/><polygon class="cls-2" points="83.94 542.18 76.8 548.18 76.8 566.94 91.06 566.94 91.06 548.18 91.08 548.18 83.94 542.18"/><polygon class="cls-2" points="84.02 527.01 76.88 533.01 84.02 539.02 91.16 533.01 84.02 527.01"/><polygon class="cls-2" points="108.82 542.18 101.68 548.18 101.68 566.94 115.95 566.94 115.95 548.18 115.96 548.18 108.82 542.18"/><polygon class="cls-2" points="108.9 527.01 101.76 533.01 108.9 539.02 116.04 533.01 108.9 527.01"/><polygon class="cls-2" points="59.33 542.18 52.19 548.18 52.19 566.94 66.46 566.94 66.46 548.18 66.47 548.18 59.33 542.18"/><polygon class="cls-2" points="59.41 527.01 52.27 533.01 59.41 539.02 66.55 533.01 59.41 527.01"/><polygon class="cls-2" points="153.41 480.36 84.11 432.42 14.8 480.36 14.8 481.15 14.8 486.22 19.24 486.22 148.97 486.22 153.44 486.22 153.44 480.36 153.41 480.36"/><path class="cls-2" d="M88.64,472.54l2.45,3.2,2.69,3.48c.7.92,1.34,1.77,1.81,2.36s.67.88.69.91.9,1.17,1.89,2.45l1.92,2.51,2.54,3.31,2.42,3.14c.24.31.47.63.7.91l1.94,2.54,1.89,2.44,1.92,2.5,2.69,3.51,1.73,2.25.41.54c1.32,1.74,2.45,3.19,2.48,3.25a4.91,4.91,0,0,1,.37.46l1.8,2.35c.84,1.1,1.7,2.22,1.92,2.52s1.5,1.93,2.83,3.67l.36.47,1.51,2,2.9,3.78c.27.36,1.13,1.45,1.89,2.45s1.63,2.11,1.92,2.5,1,1.31,1.94,2.52c.33.42.69.87,1,1.32l5.56,7.26a3.4,3.4,0,0,0,5.22.35L165,526.51a3.4,3.4,0,0,0-.35-5.22l-7.26-5.57c-1.71-1.33-3.45-2.66-3.84-2.94l-2.5-1.94c-1-.76-2.09-1.62-2.45-1.89l-3.78-2.9-2-1.52-.49-.37-3.67-2.81-2.51-1.92c-1.1-.83-2.14-1.64-2.34-1.8a5.4,5.4,0,0,1-.46-.36l-3.24-2.48-.55-.42-2.27-1.73L123.84,490c-.19-.16-1.31-1-2.5-1.94l-2.44-1.89-2.53-1.95c-.29-.2-.61-.45-.92-.69l-3.14-2.42L109,478.54l-2.51-1.92L104,474.74s-.36-.28-.91-.69-1.45-1.1-2.36-1.81l-3.49-2.7c-1.1-.83-2.28-1.75-3.19-2.43"/><line class="cls-2" x1="95.6" y1="481.58" x2="103.13" y2="474.05"/><line class="cls-2" x1="105.74" y1="494.82" x2="116.38" y2="484.19"/><line class="cls-2" x1="115.92" y1="508.05" x2="129.6" y2="494.37"/><line class="cls-2" x1="126.08" y1="521.3" x2="142.85" y2="504.53"/><line class="cls-2" x1="136.24" y1="534.53" x2="156.06" y2="514.71"/><path class="cls-2" d="M79.6,452.6a10.75,10.75,0,0,0-5.45,5.45L71,455.58l-3.5-2.67-2.36-1.83-.9-.68-2.44-1.88c-1.29-1-2.42-1.85-2.51-1.93s-1.6-1.22-3.33-2.55l-3.14-2.42c-.31-.23-.62-.48-.92-.69-1.33-1-2.39-1.84-2.51-1.95s-1.27-1-2.45-1.87l-2.5-1.94c-.19-.14-1.77-1.34-3.5-2.67l-2.8-2.14-3.24-2.49c-.07,0-.27-.21-.47-.36s-1.27-1-2.34-1.82-2.24-1.68-2.52-1.92-1.93-1.48-3.67-2.81l-.47-.36-2-1.51-3.78-2.92-2.43-1.87-2.52-1.94c-.28-.22-1.29-1-2.51-1.92l-1.33-1-7.24-5.58a3.38,3.38,0,0,1-.35-5.21l16.93-16.93a3.4,3.4,0,0,1,5.23.35L31,389.28l1,1.34,1.94,2.5,1.94,2.52c.76,1,1.6,2.09,1.87,2.43l2.92,3.8,1.51,2,.36.49c1.33,1.72,2.6,3.37,2.81,3.67s1.1,1.4,1.92,2.5,1.64,2.15,1.8,2.35l.38.46,2.48,3.24.4.54,1.75,2.27c1.33,1.72,2.53,3.3,2.67,3.5s1,1.31,1.94,2.49,1.76,2.28,1.87,2.45.92,1.18,1.94,2.53c.23.28.47.59.7.9l2.42,3.14c1.33,1.73,2.49,3.23,2.55,3.33s.93,1.21,1.92,2.51,1.83,2.37,1.87,2.44.28.39.71.92l1.81,2.34,2.68,3.51Z"/><line class="cls-2" x1="72.63" y1="443.56" x2="65.1" y2="451.09"/><line class="cls-2" x1="62.49" y1="430.31" x2="51.86" y2="440.94"/><line class="cls-2" x1="52.31" y1="417.08" x2="38.63" y2="430.76"/><line class="cls-2" x1="42.15" y1="403.83" x2="25.38" y2="420.6"/><line class="cls-2" x1="31.97" y1="390.62" x2="12.15" y2="410.44"/><path class="cls-2" d="M74.15,467.09,71,469.54l-3.5,2.69L65.09,474c-.54.4-.87.65-.9.69l-2.44,1.89c-1.29,1-2.42,1.84-2.51,1.92s-1.6,1.21-3.33,2.54l-3.14,2.42c-.31.24-.62.49-.92.69-1.33,1-2.39,1.84-2.51,1.95L46.89,488c-1.18.91-2.3,1.78-2.5,1.92s-1.77,1.36-3.5,2.69l-2.26,1.73-.54.41c-1.73,1.32-3.2,2.43-3.24,2.48l-.47.37L32,499.43l-2.52,1.92c-.29.22-1.93,1.5-3.67,2.83l-.47.35-2,1.52c-1.72,1.33-3.42,2.64-3.78,2.9l-2.43,1.89c-1,.75-2.13,1.63-2.52,1.92s-1.29,1-2.51,1.92l-1.33,1-7.24,5.57a3.39,3.39,0,0,0-.35,5.22l16.93,16.94a3.41,3.41,0,0,0,5.23-.35L31,535.84l1-1.32c.94-1.21,1.72-2.22,1.94-2.52l1.94-2.5,1.87-2.45c.28-.34,1.59-2,2.92-3.78l1.51-2,.36-.49,2.81-3.67c.24-.29,1.1-1.42,1.92-2.51L49,512.3c.16-.21.33-.41.38-.46s1.15-1.51,2.48-3.25l.4-.54,1.75-2.27,2.67-3.49,1.94-2.5c.91-1.19,1.76-2.28,1.87-2.44l1.94-2.54c.23-.28.47-.6.7-.91l2.42-3.14c1.33-1.73,2.49-3.21,2.55-3.31s.93-1.23,1.92-2.51l1.87-2.45s.28-.38.71-.91l1.81-2.36,2.68-3.49c.83-1.1,1.75-2.28,2.45-3.19"/><line class="cls-2" x1="65.1" y1="474.05" x2="72.63" y2="481.58"/><line class="cls-2" x1="51.86" y1="484.19" x2="62.49" y2="494.83"/><line class="cls-2" x1="38.63" y1="494.37" x2="52.31" y2="508.05"/><line class="cls-2" x1="25.38" y1="504.53" x2="42.15" y2="521.3"/><line class="cls-2" x1="12.15" y1="514.69" x2="31.97" y2="534.51"/><path class="cls-2" d="M88.64,452.6l2.45-3.2,2.69-3.5c.7-.92,1.34-1.76,1.81-2.36l.69-.9,1.89-2.44c1-1.3,1.84-2.42,1.92-2.51s1.21-1.6,2.54-3.33l2.42-3.14c.24-.31.47-.62.7-.9,1-1.35,1.83-2.41,1.94-2.53s1-1.27,1.89-2.45,1.78-2.3,1.92-2.5,1.36-1.77,2.69-3.5l1.73-2.26.41-.54,2.48-3.24.37-.47,1.8-2.34L122.9,408c.22-.29,1.5-1.93,2.83-3.67l.36-.47,1.51-2c1.33-1.72,2.64-3.42,2.9-3.78l1.89-2.43c.75-1,1.63-2.13,1.92-2.52l1.94-2.5c.33-.42.67-.89,1-1.34l5.56-7.24a3.39,3.39,0,0,1,5.22-.35L165,398.62a3.39,3.39,0,0,1-.35,5.21l-7.26,5.58c-1.71,1.33-3.45,2.65-3.84,2.95l-2.5,1.94-2.45,1.87c-.34.28-2,1.59-3.78,2.92l-2,1.51-.49.36-3.67,2.81c-.29.24-1.42,1.1-2.51,1.92l-2.34,1.8c-.21.16-.41.33-.46.38s-1.51,1.15-3.24,2.48l-.55.4-2.27,1.75-3.49,2.67-2.5,1.94c-1.19.91-2.28,1.76-2.44,1.87l-2.53,1.95-.92.69L112.31,444c-1.73,1.33-3.21,2.49-3.31,2.55s-1.23.93-2.51,1.92L104,450.38s-.36.3-.91.7l-2.36,1.82-3.49,2.68c-1.1.83-2.28,1.75-3.19,2.45"/><line class="cls-2" x1="103.13" y1="451.08" x2="95.6" y2="443.55"/><line class="cls-2" x1="116.38" y1="440.94" x2="105.74" y2="430.31"/><line class="cls-2" x1="129.6" y1="430.76" x2="115.92" y2="417.08"/><line class="cls-2" x1="142.85" y1="420.6" x2="126.08" y2="403.83"/><line class="cls-2" x1="156.06" y1="410.42" x2="136.24" y2="390.6"/><path class="cls-2" d="M74.15,458.05a11,11,0,0,0,2.22,12.27,10.69,10.69,0,0,0,3.21,2.22,10.93,10.93,0,0,0,9.06,0,10.82,10.82,0,0,0,5.45-5.43,11,11,0,0,0,0-9.08,10.82,10.82,0,0,0-5.45-5.43,10.89,10.89,0,0,0-9,0"/><path class="cls-3" d="M1876.15,616.78,1659.44,381a1.53,1.53,0,0,0-1.14-.5,1.89,1.89,0,0,0-1.14.49L1445.5,611.26l-5.08,5.54a1.56,1.56,0,0,0,1.15,2.61H1875a1.56,1.56,0,0,0,1.13-2.63Z"/><polygon class="cls-2" points="1875.01 617.43 1441.58 617.43 1442.38 616.55 1446.64 611.91 1468.49 588.14 1472.01 584.31 1478.63 577.12 1482.88 572.48 1495.41 558.86 1498.91 555.04 1513.85 538.8 1518.11 534.16 1520.56 531.49 1524.05 527.7 1545.19 504.7 1548.64 500.94 1549.5 500.02 1553.75 495.38 1568.66 479.15 1572.13 475.38 1585.43 460.9 1589.7 456.26 1591.48 454.33 1594.95 450.55 1613.22 430.68 1616.68 426.91 1620.86 422.37 1625.12 417.73 1634.52 407.51 1637.97 403.75 1657.53 382.46 1658.29 381.64 1659.37 382.81 1678.15 403.24 1681.59 407 1691.79 418.08 1696.04 422.72 1699.32 426.28 1702.77 430.04 1720.93 449.8 1724.4 453.57 1727.2 456.62 1731.47 461.26 1743.75 474.63 1747.22 478.39 1763.15 495.73 1767.17 500.09 1767.42 500.36 1770.64 503.87 1791.46 526.51 1794.95 530.32 1798.79 534.5 1803.06 539.15 1816.41 553.67 1819.93 557.5 1834.02 572.83 1838.29 577.46 1843.21 582.8 1846.73 586.65 1870.27 612.26 1874.52 616.9 1875.01 617.43"/><polyline class="cls-2" points="1583.63 617.43 1614.91 581.66 1700.75 583.15 1732.96 617.43"/><line class="cls-2" x1="1679.87" y1="405.14" x2="1488.92" y2="617.43"/><line class="cls-2" x1="1700.79" y1="428.2" x2="1530.59" y2="617.43"/><line class="cls-2" x1="1721.73" y1="451.25" x2="1572.26" y2="617.43"/><polyline class="cls-2" points="1742.65 474.31 1720.54 498.88 1699.71 522.05 1678.86 545.21 1658.04 568.37 1645.61 582.21"/><polyline class="cls-2" points="1686.67 582.87 1699.71 568.39 1720.55 545.21 1741.37 522.06 1763.58 497.37"/><polyline class="cls-2" points="1715.44 597.2 1720.54 591.54 1741.37 568.37 1762.2 545.21 1784.5 520.42"/><line class="cls-2" x1="1805.43" y1="543.49" x2="1738.92" y2="617.43"/><line class="cls-2" x1="1826.35" y1="566.54" x2="1780.57" y2="617.43"/><line class="cls-2" x1="1847.27" y1="589.6" x2="1822.24" y2="617.43"/><line class="cls-2" x1="1827.17" y1="617.43" x2="1636.84" y2="405.84"/><line class="cls-2" x1="1785.49" y1="617.43" x2="1615.92" y2="428.89"/><line class="cls-2" x1="1743.82" y1="617.43" x2="1594.99" y2="451.96"/><polyline class="cls-2" points="1574.07 475.01 1595.55 498.88 1616.39 522.05 1637.22 545.21 1658.04 568.37 1670.86 582.62"/><polyline class="cls-2" points="1553.15 498.07 1574.71 522.05 1595.55 545.21 1616.39 568.37 1628.58 581.93"/><polyline class="cls-2" points="1532.22 521.12 1553.88 545.21 1574.71 568.37 1595.55 591.54 1600.18 596.68"/><line class="cls-2" x1="1577.18" y1="617.43" x2="1511.3" y2="544.19"/><line class="cls-2" x1="1535.51" y1="617.43" x2="1490.36" y2="567.24"/><line class="cls-2" x1="1493.85" y1="617.43" x2="1469.44" y2="590.29"/><line class="cls-2" x1="1626.58" y1="582.04" x2="1626.58" y2="615.56"/><line class="cls-2" x1="1657.69" y1="582.98" x2="1657.69" y2="616.5"/><line class="cls-2" x1="1688.8" y1="583.91" x2="1688.8" y2="617.43"/><path class="cls-3" d="M1895.83,591.44h-21.06V575.16a1.56,1.56,0,0,0-1.57-1.56h-13.08V543h2.42a1.56,1.56,0,0,0,0-3.12h-2.7L1857,525.12a1.57,1.57,0,0,0-1.54-1.26H1851c-1.37-1.55-4-5-4.12-7.38-.17-3.72-1.31-146.46-1.36-152.07a.8.8,0,0,0,0-.15V358.5c.11-4.43.94-4.48,4.93-4.74l.84-.06a1.53,1.53,0,0,0,1.12-.61,1.59,1.59,0,0,0,.3-1.25c-.3-1.5.88-4,1.84-5.44h.62a1.56,1.56,0,0,0,1.56-1.56v-6.58a1.56,1.56,0,0,0-1.56-1.56h-11.18v-6.62s0-.07,0-.11a1.7,1.7,0,0,0-.06-.31,1.08,1.08,0,0,0-.1-.27,1.25,1.25,0,0,0-.16-.24,1.21,1.21,0,0,0-.21-.24s0-.06-.07-.08c-2-1.47-4-3.08-6.13-4.85a7,7,0,0,0-2.32-12.14v0a6.15,6.15,0,0,0-.43-3.58,6,6,0,0,1-.24-.76,14.28,14.28,0,0,0-1.63-4.44,1.88,1.88,0,0,1-.37-1,27.25,27.25,0,0,1,.3-3.43c.9.69,2.18,1.69,3,2.35,1.57,1.24,2.28,1.69,4.11.4,1.28-.91,2.5-1.25,3.18-.88s2.9,1.11,3.64.07-.41-1.87-.76-2.19c-2.28-2.13-4.09-1.77-4.29-1.72l-.7.17.06.39-.19.1a2.48,2.48,0,0,1-.59,0,4.07,4.07,0,0,0-2.16.22l-.33-.38a11.66,11.66,0,0,0-2-2,5.06,5.06,0,0,0-3.28-4.19,6.59,6.59,0,0,1-.39-1.69c1.06-.39,3.14-1.4,3.83-3.33s2.22-6.26,4.72-8.32c2.76-2.28,3.44-3.21,3.17-4.27l-.2-.52-.4-.14c-1.23-.46-6.15,1.63-8.48,3.39l0,0c0-.1,0-.2-.07-.31-.15-.47-1-2.85-2-3.57a1.06,1.06,0,0,0-1.14-.18c-.59.28-.62.94-.65,1.57a2.83,2.83,0,0,1-.11.85c-.15.23-.53.91-1,1.72a1.13,1.13,0,0,0,0-.75,1.38,1.38,0,0,0-.94-.81,2.1,2.1,0,0,0-2,.28c-.82.63-1.17,1.9-1.08,3.9,0,.27,0,.48,0,.64l-.31-.26a3.18,3.18,0,0,0-1.33-.82c-1-.2-3.62.17-4.63,1.54a2,2,0,0,0-.29,1.69,1.8,1.8,0,0,0,1.43,1.07,5.1,5.1,0,0,1,2,1.27,10.88,10.88,0,0,0,2.13,1.5,3.72,3.72,0,0,1,.75.48c-.44.71-1.07,2.54.81,6.14a10.91,10.91,0,0,1,1.51,5.89c0,.82,0,1.75.2,2.92a12.79,12.79,0,0,0,1.9,4.7c1,1.7,1.91,3.31,1.8,5.27a5.13,5.13,0,0,1-.51,1.08,1.57,1.57,0,0,0-.77.07,7,7,0,0,0-1.84,12c-2.08,1.73-4.09,3.33-6,4.76a1.56,1.56,0,0,0-.61.71l0,.05a1.58,1.58,0,0,0-.12.58v6.62h-11.18a1.56,1.56,0,0,0-1.56,1.56v6.58a1.56,1.56,0,0,0,1.56,1.56h.62c.79,1.22,2.16,3.8,1.83,5.44a1.55,1.55,0,0,0,.3,1.25,1.53,1.53,0,0,0,1.12.61l.84.06c4,.26,4.82.31,4.94,4.71v5.79c0,.05,0,.09,0,.15,0,5.42-1.19,148.34-1.35,152.08-.11,2.4-2.72,5.78-4.14,7.37h-4.39a1.55,1.55,0,0,0-1.53,1.26L1806,539.85h-2.69a1.56,1.56,0,1,0,0,3.12h2.41V573.6H1792.6a1.56,1.56,0,0,0-1.56,1.56v16.28H1770a1.56,1.56,0,0,0-1.56,1.56v8.17a1.56,1.56,0,0,0,1.56,1.56h.54v14.7a1.56,1.56,0,0,0,1.56,1.56h121.67a1.56,1.56,0,0,0,1.56-1.56v-14.7h.53a1.56,1.56,0,0,0,1.56-1.56V593A1.56,1.56,0,0,0,1895.83,591.44ZM1829.23,277c-.29.56-.59,1.13-.84,1.64a1.13,1.13,0,0,1,.15-.59c.19-.31.37-.57.52-.8Z"/><rect class="cls-2" x="1772.06" y="601.18" width="121.67" height="16.26"/><rect class="cls-2" x="1769.97" y="593" width="125.85" height="8.17"/><rect class="cls-2" x="1807.24" y="541.41" width="51.31" height="33.74"/><path class="cls-2" d="M1845.34,516.56c-.17-3.86-1.35-152.29-1.35-152.29h-22.18s-1.19,148.43-1.36,152.29-5,8.86-5,8.86h34.9S1845.51,520.42,1845.34,516.56Z"/><path class="cls-2" d="M1821.78,364.27v-5.81c-.16-6.24-2.62-6-7.22-6.32.57-3-2.38-7.06-2.38-7.06"/><path class="cls-2" d="M1844,364.27v-5.81c.17-6.24,2.63-6,7.23-6.32-.58-3,2.38-7.06,2.38-7.06"/><rect class="cls-2" x="1810.57" y="338.26" width="44.66" height="6.57"/><rect class="cls-2" x="1823.31" y="330.07" width="19.18" height="8.19"/><path class="cls-2" d="M1823.3,330.07c3.3-2.46,6.2-4.88,7.92-6.35"/><path class="cls-2" d="M1834.56,323.72c1.73,1.47,4.62,3.87,7.93,6.35"/><path class="cls-2" d="M1838.35,318.54a5.46,5.46,0,1,1-5.45-5.46A5.45,5.45,0,0,1,1838.35,318.54Z"/><path class="cls-4" d="M1820,280.39s-.86,1.19.67,1.53,2.62,2,4.34,2.84,1.19,1.42,1.19,1.42-1.46,1.38.71,5.53,1.31,5.34,1.79,9.08,4,6.07,3.68,10.25a4.68,4.68,0,0,1-1.45,2.28c-.11,2,3.18,1.47,3.76.21a2.54,2.54,0,0,1-.46-1.84c.35-2-.44-3-.67-4-.93-4.18-2-4.29-2-5.56s.49-4.9.49-4.9,2.69,2.06,4.11,3.18,1.76,1.38,3.18.37,3-1.49,4-.93,4,1,2-.86-3.58-1.53-3.58-1.53,0,.28-.68.61-1.89-.45-3.23.47a17.81,17.81,0,0,0-2.92-2.91,4.32,4.32,0,0,0-3.09-4,7.52,7.52,0,0,1-.64-2.86s3.11-.85,3.88-3,2.29-6.5,5-8.72,3.06-2.89,2.91-3.51-5.16,1.16-7.79,3.14c-1.51,1.37-1.18.17-1.38-.6,0,0-.84-2.57-1.68-3.19s-.32,1.36-.79,2.05a54.36,54.36,0,0,0-2.78,5.37c-.13.54-1.42-1.33-.6-2.69s1.53-1.91.58-2.21-2.22-.07-2.07,3.4-1.65.52-2.56.36S1820.71,279.4,1820,280.39Z"/><path class="cls-4" d="M1804.33,584.08a2.75,2.75,0,1,1-2.75-2.75A2.75,2.75,0,0,1,1804.33,584.08Z"/><path class="cls-4" d="M1814.77,584.08a2.75,2.75,0,1,1-2.75-2.75A2.75,2.75,0,0,1,1814.77,584.08Z"/><path class="cls-4" d="M1825.21,584.08a2.75,2.75,0,1,1-2.75-2.75A2.75,2.75,0,0,1,1825.21,584.08Z"/><path class="cls-4" d="M1835.65,584.08a2.75,2.75,0,1,1-2.75-2.75A2.75,2.75,0,0,1,1835.65,584.08Z"/><path class="cls-4" d="M1846.09,584.08a2.75,2.75,0,1,1-2.75-2.75A2.75,2.75,0,0,1,1846.09,584.08Z"/><path class="cls-4" d="M1856.53,584.08a2.75,2.75,0,1,1-2.75-2.75A2.75,2.75,0,0,1,1856.53,584.08Z"/><path class="cls-4" d="M1867,584.08a2.75,2.75,0,1,1-2.75-2.75A2.75,2.75,0,0,1,1867,584.08Z"/><line class="cls-2" x1="1803.26" y1="541.41" x2="1862.54" y2="541.41"/><polygon class="cls-2" points="1855.43 525.42 1810.37 525.42 1807.24 541.41 1858.55 541.41 1855.43 525.42"/><rect class="cls-2" x="1792.59" y="575.16" width="80.61" height="17.85"/><line class="cls-5" x1="1559.79" y1="617.43" x2="1919.13" y2="617.43"/><path class="cls-3" d="M1056.87,617.82a1.75,1.75,0,0,0,.06-.33s0,0,0-.06a1.29,1.29,0,0,0,0-.21,1.2,1.2,0,0,0-.06-.32,2.49,2.49,0,0,0-.15-.28.86.86,0,0,0-.11-.19c-36.82-44.19-63-88-82.28-137.68h5.88a1.56,1.56,0,0,0,1.56-1.56V446.54a1.56,1.56,0,0,0-1.56-1.57H962.52c-9.27-29.82-16.5-61.92-22.08-98h7A1.56,1.56,0,0,0,949,345.4V314.75a1.56,1.56,0,0,0-1.56-1.57H935.87c-6.22-52.33-9.49-113.68-10-187.5,0-6.6-.07-13.33-.07-20.13h6.29a1.56,1.56,0,0,0,1.56-1.56V73.35a1.56,1.56,0,0,0-1.56-1.56H925.5c-3.3-14-13.63-23.87-25.8-24.65V3.74a1.56,1.56,0,0,0-3.12,0v43.4c-12.16.78-22.5,10.63-25.79,24.65h-6.58a1.56,1.56,0,0,0-1.56,1.56V104a1.56,1.56,0,0,0,1.56,1.56h6.29c0,6.8,0,13.53-.08,20.13-.5,73.78-3.77,135.13-10,187.5H848.88a1.57,1.57,0,0,0-1.57,1.57V345.4a1.56,1.56,0,0,0,1.57,1.56h7c-5.59,36.15-12.81,68.25-22.07,98H816.12a1.57,1.57,0,0,0-1.57,1.57v30.65a1.56,1.56,0,0,0,1.57,1.56H822c-19.31,49.68-45.49,93.5-82.31,137.68a1.73,1.73,0,0,0-.16.3s0,.08-.07.13a1.71,1.71,0,0,0-.1.51s0,0,0,.06v0a1.49,1.49,0,0,0,.11.54l0,.06a1.35,1.35,0,0,0,.26.38l.09.12a.24.24,0,0,1,.06.08,2.9,2.9,0,0,0,.34.19l.09,0a1.66,1.66,0,0,0,.57.12h87.32a1.56,1.56,0,0,0,1.56-1.56c0-27.19,7-52.86,19.64-72.28,12.52-19.2,29.19-30.14,47-30.81h0c.57,0,1.14,0,1.75,0s1.11,0,1.73,0h0c17.78.67,34.46,11.61,47,30.81,12.66,19.42,19.63,45.08,19.63,72.28a1.56,1.56,0,0,0,1.56,1.56h87.33a1.38,1.38,0,0,0,.56-.12.72.72,0,0,0,.19-.11,1.12,1.12,0,0,0,.24-.13l0-.06a1.22,1.22,0,0,0,.2-.25,1.25,1.25,0,0,0,.16-.24A2,2,0,0,0,1056.87,617.82ZM880.33,445a726.56,726.56,0,0,0,17.81-87.85A727.41,727.41,0,0,0,916,445Z"/><path class="cls-2" d="M824.31,477.18c-20.07,52.39-47.34,97-83.39,140.25"/><path class="cls-2" d="M861.83,314.75C869,255.22,872.07,186.23,872.07,104"/><path class="cls-2" d="M835,446.54c9.58-30.62,17.07-64,22.74-101.14"/><path class="cls-2" d="M1055.38,617.43c-36.05-43.28-63.32-87.86-83.38-140.25"/><path class="cls-2" d="M924.23,104c0,82.24,3.1,151.23,10.24,210.76"/><path class="cls-2" d="M938.62,345.4c5.67,37.17,13.16,70.52,22.74,101.14"/><line class="cls-2" x1="1055.38" y1="617.43" x2="968.06" y2="617.43"/><line class="cls-2" x1="828.24" y1="617.43" x2="740.92" y2="617.43"/><path class="cls-2" d="M828.24,617.43c0-57.82,31.3-104.69,69.91-104.69s69.91,46.87,69.91,104.69"/><path class="cls-2" d="M872,73.35c2.85-14.2,13.46-24.74,26.12-24.74s23.27,10.54,26.13,24.74"/><rect class="cls-2" x="816.12" y="446.54" width="164.06" height="30.64"/><rect class="cls-2" x="848.88" y="314.75" width="98.55" height="30.64"/><rect class="cls-2" x="864.21" y="73.35" width="67.88" height="30.64"/><line class="cls-2" x1="898.14" y1="48.61" x2="898.14" y2="3.75"/><path class="cls-2" d="M918,446.54c-8.43-30.52-15-63.8-19.87-100.78v0c0-.12,0-.22,0-.34"/><path class="cls-2" d="M878.29,446.54c8.43-30.52,15-63.8,19.86-100.78v0c0-.11,0-.24.05-.34"/><line class="cls-2" x1="828.24" y1="456.07" x2="828.24" y2="467.56"/><line class="cls-2" x1="845.72" y1="456.07" x2="845.72" y2="467.56"/><line class="cls-2" x1="863.2" y1="456.07" x2="863.2" y2="467.56"/><line class="cls-2" x1="880.67" y1="456.07" x2="880.67" y2="467.56"/><line class="cls-2" x1="898.15" y1="456.07" x2="898.15" y2="467.56"/><line class="cls-2" x1="915.63" y1="456.07" x2="915.63" y2="467.56"/><line class="cls-2" x1="933.11" y1="456.07" x2="933.11" y2="467.56"/><line class="cls-2" x1="950.58" y1="456.07" x2="950.58" y2="467.56"/><line class="cls-2" x1="968.06" y1="456.07" x2="968.06" y2="467.56"/><line class="cls-2" x1="863.15" y1="324.33" x2="863.15" y2="335.82"/><line class="cls-2" x1="880.63" y1="324.33" x2="880.63" y2="335.82"/><line class="cls-2" x1="898.11" y1="324.33" x2="898.11" y2="335.82"/><line class="cls-2" x1="915.59" y1="324.33" x2="915.59" y2="335.82"/><line class="cls-2" x1="933.06" y1="324.33" x2="933.06" y2="335.82"/><line class="cls-2" x1="880.63" y1="82.93" x2="880.63" y2="94.41"/><line class="cls-2" x1="898.11" y1="82.93" x2="898.11" y2="94.41"/><line class="cls-2" x1="915.59" y1="82.93" x2="915.59" y2="94.41"/><path class="cls-2" d="M806.43,617.43c4.68-57.81,42.69-103.12,89.28-104.64h.43c.66,0,1.34,0,2,0s1.35,0,2,0h.42c46.6,1.52,84.59,46.83,89.28,104.64"/><line class="cls-2" x1="872.07" y1="125.69" x2="924.23" y2="125.69"/><line class="cls-2" x1="892.17" y1="148.39" x2="904.13" y2="148.39"/><line class="cls-2" x1="892.17" y1="162.85" x2="904.13" y2="162.85"/><line class="cls-2" x1="892.17" y1="177.3" x2="904.13" y2="177.3"/><line class="cls-2" x1="892.17" y1="191.76" x2="904.13" y2="191.76"/><line class="cls-2" x1="892.17" y1="206.22" x2="904.13" y2="206.22"/><line class="cls-2" x1="892.17" y1="220.67" x2="904.13" y2="220.67"/><line class="cls-2" x1="892.17" y1="235.13" x2="904.13" y2="235.13"/><line class="cls-2" x1="892.17" y1="249.58" x2="904.13" y2="249.58"/><line class="cls-2" x1="892.17" y1="264.04" x2="904.13" y2="264.04"/><line class="cls-2" x1="892.17" y1="278.5" x2="904.13" y2="278.5"/><line class="cls-2" x1="892.17" y1="292.95" x2="904.13" y2="292.95"/><path class="cls-3" d="M1242.25,431.59v-49.2H1232V255.46h0l-9.29-18.93-9.31,18.93h-73.47v115.3h-75.07V255.38H991.41l-9.31-18.93-9.29,18.93V382.31H962.52V509.25h0v25.67h0v87.52h130.11v.08h19.48v-.08h27.74l.07.08h102.33V509.26h0Zm-177.39,39.06h0v-.83C1064.85,470.1,1064.86,470.36,1064.86,470.65Z"/><polygon class="cls-2" points="1074.07 426.5 1102.46 388.42 1130.85 426.5 1074.07 426.5"/><path class="cls-2" d="M1139.85,499.48V465.54h0c0-.28,0-.54,0-.82a37.5,37.5,0,0,0-75,0c0,.28,0,.54,0,.82h0v33.94"/><rect class="cls-2" x="962.52" y="377.21" width="10.29" height="240.14"/><rect class="cls-2" x="972.81" y="258.72" width="92.03" height="358.64"/><rect class="cls-2" x="988.76" y="271.68" width="60.15" height="345.68"/><path class="cls-2" d="M1005.08,286.82c-4.26,0-7.69,6.75-7.69,15.11,0,.11,0,.21,0,.32h0v63.34h15.38V302.25h0v-.32C1012.77,293.57,1009.33,286.82,1005.08,286.82Z"/><path class="cls-2" d="M1040.27,301.93c0-8.36-3.45-15.11-7.69-15.11s-7.69,6.75-7.69,15.11v.32h0v63.34h15.38V302.25h0C1040.26,302.14,1040.27,302,1040.27,301.93Z"/><path class="cls-2" d="M1049,591.71c0-20.1-14-35.47-30-42.93-15.09,6.63-30,22.83-30,42.93,0,.26,0,.51,0,.76h0v24.89H1049V592.47h0C1049,592.22,1049,592,1049,591.71Z"/><path class="cls-2" d="M1048.66,497.58V469.65h0c0-.21,0-.41,0-.63,0-16.78-14-29.6-30-35.83-15,5.54-29.92,19.05-29.92,35.83,0,.22,0,.42,0,.63h0v27.93"/><path class="cls-2" d="M1139.85,584.63c0-25.65-17.53-45.27-37.5-54.79-18.84,8.47-37.47,29.14-37.47,54.79,0,.33,0,.65,0,1h0v31.76h75V585.6h0C1139.85,585.28,1139.85,585,1139.85,584.63Z"/><rect class="cls-2" x="1052.38" y="250.29" width="12.47" height="8.29"/><rect class="cls-2" x="972.81" y="250.29" width="18.53" height="8.43"/><path class="cls-2" d="M1011.75,504.07v-29.7h0c0-.05,0-.11,0-.18,0-4.81-2.76-8.68-6.16-8.68s-6.16,3.87-6.16,8.68v29.88"/><path class="cls-2" d="M1038.23,504.07v-29.7h0a.5.5,0,0,0,0-.18c0-4.81-2.76-8.68-6.14-8.68s-6.18,3.87-6.18,8.68c0,.07,0,.13,0,.18h0v29.7"/><path class="cls-2" d="M1027.76,450.34a8.93,8.93,0,1,1-8.93-8.8A8.87,8.87,0,0,1,1027.76,450.34Z"/><path class="cls-2" d="M1129.55,467.56a27.09,27.09,0,1,1-27.09-26.73A26.91,26.91,0,0,1,1129.55,467.56Z"/><rect class="cls-2" x="1231.96" y="377.29" width="10.29" height="240.14"/><rect class="cls-2" x="1139.92" y="258.79" width="92.03" height="358.64"/><rect class="cls-2" x="1155.87" y="271.75" width="60.15" height="345.68"/><path class="cls-2" d="M1207.38,302c0-8.37-3.42-15.11-7.69-15.11S1192,293.64,1192,302c0,.1,0,.21,0,.31h0v63.35h15.38V302.32h0C1207.37,302.22,1207.38,302.11,1207.38,302Z"/><path class="cls-2" d="M1172.2,286.9c-4.25,0-7.7,6.74-7.7,15.11,0,.1,0,.21,0,.31h0v63.35h15.39V302.32h0c0-.1,0-.21,0-.31C1179.89,293.64,1176.46,286.9,1172.2,286.9Z"/><path class="cls-2" d="M1215.88,591.78c0-20.1-14.93-36.29-30-42.93-16,7.46-30,22.83-30,42.93,0,.27,0,.51,0,.76h0v24.89h60.06V592.54h0C1215.88,592.29,1215.88,592.05,1215.88,591.78Z"/><path class="cls-2" d="M1216,497.66V469.73h0c0-.21,0-.41,0-.63,0-16.78-14.88-30.29-29.92-35.83-16,6.23-30,19.05-30,35.83,0,.22,0,.42,0,.63h0v27.93"/><rect class="cls-2" x="1178.11" y="584.44" width="15.66" height="32.92"/><rect class="cls-2" x="1010.89" y="584.44" width="15.66" height="32.92"/><rect class="cls-2" x="1092.63" y="577.2" width="19.48" height="40.23"/><rect class="cls-2" x="1139.92" y="250.36" width="12.47" height="8.36"/><rect class="cls-2" x="1213.43" y="250.36" width="18.53" height="8.29"/><path class="cls-2" d="M1205.35,504.16V474.47h0c0-.08,0-.13,0-.19,0-4.81-2.77-8.67-6.18-8.67s-6.14,3.86-6.14,8.67c0,.06,0,.11,0,.19h0v29.69"/><path class="cls-2" d="M1178.85,504.16V474.47h0c0-.08,0-.13,0-.19,0-4.81-2.77-8.67-6.15-8.67s-6.16,3.86-6.16,8.67c0,.06,0,.11,0,.19h0v29.69"/><path class="cls-2" d="M1177,450.42a8.93,8.93,0,1,0,8.92-8.81A8.86,8.86,0,0,0,1177,450.42Z"/><rect class="cls-2" x="962.49" y="504.16" width="279.77" height="25.69"/><line class="cls-2" x1="1102.39" y1="365.67" x2="1102.39" y2="320.7"/><line class="cls-2" x1="956.64" y1="504.16" x2="1247.12" y2="504.16"/><line class="cls-2" x1="962.52" y1="426.5" x2="1242.25" y2="426.5"/><line class="cls-2" x1="1006.73" y1="395.99" x2="1006.73" y2="412.84"/><line class="cls-2" x1="1030.93" y1="395.99" x2="1030.93" y2="412.84"/><line class="cls-2" x1="1173.82" y1="395.99" x2="1173.82" y2="412.84"/><line class="cls-2" x1="1198.01" y1="395.99" x2="1198.01" y2="412.84"/><line class="cls-2" x1="972.81" y1="377.21" x2="1234.94" y2="377.21"/><line class="cls-2" x1="972.96" y1="365.67" x2="1231.96" y2="365.67"/><line class="cls-2" x1="982.08" y1="250.29" x2="1056.96" y2="250.29"/><line class="cls-2" x1="1146.16" y1="250.36" x2="1221.05" y2="250.36"/><line class="cls-2" x1="1077.36" y1="377.29" x2="1077.36" y2="426.5"/><line class="cls-2" x1="1089.87" y1="377.29" x2="1089.87" y2="426.5"/><line class="cls-2" x1="1102.39" y1="377.29" x2="1102.39" y2="426.5"/><line class="cls-2" x1="1114.9" y1="377.29" x2="1114.9" y2="426.5"/><line class="cls-2" x1="1127.41" y1="377.29" x2="1127.41" y2="426.5"/><polygon class="cls-2" points="972.81 250.29 982.11 231.35 991.41 250.29 972.81 250.29"/><polygon class="cls-2" points="1213.4 250.36 1222.69 231.43 1231.99 250.36 1213.4 250.36"/><line class="cls-2" x1="933.46" y1="617.43" x2="1376.6" y2="617.43"/><line class="cls-2" x1="11.04" y1="617.43" x2="874.46" y2="617.43"/></g></g></g></svg>