<svg xmlns="http://www.w3.org/2000/svg" xmlns:xlink="http://www.w3.org/1999/xlink" viewBox="0 0 44.35 32.71"><defs><style>.cls-1{fill:none;}.cls-2{clip-path:url(#clip-path);}.cls-3{isolation:isolate;}.cls-4{clip-path:url(#clip-path-2);}.cls-5{fill:#86f1ff;}</style><clipPath id="clip-path" transform="translate(0 0)"><rect class="cls-1" width="44.35" height="32.71"/></clipPath><clipPath id="clip-path-2" transform="translate(0 0)"><rect class="cls-1" x="-0.2" y="-0.28" width="44.82" height="33.27"/></clipPath></defs><g id="Capa_2" data-name="Capa 2"><g id="Capa_1-2" data-name="Capa 1"><g class="cls-2"><g class="cls-3"><g class="cls-4"><path class="cls-5" d="M4.57,3.29C10.25,7,15.5,10.57,20.84,14a3.13,3.13,0,0,0,2.72,0C28.9,10.54,34.15,7,39.85,3.25ZM3.44,6.64c0,7.13,0,13.64,0,20.15,0,1.6.58,2.51,2.29,2.51,11,0,21.91,0,32.86-.09.77,0,2.18-1.17,2.2-1.83.16-6.73.1-13.47.1-20.71-5.9,3.89-11.34,7.41-16.7,11.07a3,3,0,0,1-4,0C14.83,14.07,9.37,10.55,3.44,6.64M44.35,3.91c0,.45-.08.91-.07,1.4.08,6.42.07,12.37-.16,18.39-.26,6.44-.83,9-6,9s-10.59,0-15.88,0-10.59,0-15.89,0c-5,0-6.08-2.31-6.19-8.09C0,18,0,11.67,0,4.7c0,0,0-.1,0-.14A4.14,4.14,0,0,1,4.14.2l36-.2a4.13,4.13,0,0,1,4.17,3.91" transform="translate(0 0)"/></g></g></g></g></g></svg>