<svg xmlns="http://www.w3.org/2000/svg" viewBox="0 0 173.72 174.23"><defs><style>.cls-1{fill:#fff;}</style></defs><g id="Capa_2" data-name="Capa 2"><g id="Capa_1-2" data-name="Capa 1"><path class="cls-1" d="M89.38,144.72c.26,1.24.49,2.36.71,3.45,4,.46,4.7,0,5-3.45Zm3.06-75.38c1.07-.42,1.87-.79,2.71-1a2.51,2.51,0,0,1,3.2,1.16c.82,1.44.13,3-1.73,3.69-2.07.75-3.69,2.08-3.92,4.23a81.91,81.91,0,0,0-.07,8.48,18.19,18.19,0,0,0,3.5-.93,15.94,15.94,0,0,0,8.68-10,9.59,9.59,0,0,0-11-12c-.49.09-1.24.61-1.26,1C92.37,65.59,92.44,67.37,92.44,69.34Zm-74,0c0-1.87,0-3.49,0-5.1,0-1-.39-1.28-1.23-1.45a9.69,9.69,0,0,0-11.51,9c-.23,5.67,5.42,12.74,11,13.78.53.09,1.08.08,1.72.13,0-2.13,0-4.09,0-6,.07-3.24-1.25-5.49-4.4-6.61a2.47,2.47,0,0,1-1.71-3.19,2.56,2.56,0,0,1,3.45-1.54C16.55,68.56,17.31,68.93,18.4,69.36Zm79.72,91.71c0-.39,0-.79,0-1.18-.06-4.1-2.44-6.48-6.54-6.51-.9,0-1.8,0-2.7,0a5.77,5.77,0,0,0-5.79,4.91,19.32,19.32,0,0,0,0,5.37,5.21,5.21,0,0,0,4.46,4.68,17.39,17.39,0,0,0,6,0C96.77,167.72,98.12,165.31,98.12,161.07ZM84.4,106.67c2.94,0,6.1.18,9.23,0A11.88,11.88,0,0,0,104.29,99c1.75-4.07.91-9.31-1.57-11.75-2.32,1.09-4.5,2.27-6.79,3.13-1.36.51-3.37,0-4.25.87s-.87,3-1.55,4.36C88.32,99.31,86.34,102.94,84.4,106.67Zm-34.55,12.9c-.09.19-.18.29-.18.39,0,1.35,0,2.7-.05,4.05,0,2.13-.72,2.85-2.79,3.36-1.85.44-3.65,1.1-5.49,1.61-1.15.31-1.3,1-1.06,2a15.38,15.38,0,0,0,8.45,10.78,35,35,0,0,0,4,1.42c.37-2.17-.42-4.89,2.57-5,3.29-.11,2.41,2.83,2.79,4.71,5.84-.39,12.18-6.74,12.51-12.5a1.66,1.66,0,0,0-.85-1.32,52.88,52.88,0,0,0-5.62-1.74c-2.06-.52-2.67-1.13-2.7-3.22,0-1.51,0-3,0-4.62-2.11.12-4,.32-5.91.33S51.71,119.68,49.85,119.57Zm-14.55,13c-5.62,4.73-9.09,10.54-9.58,17.74-.39,5.78-.17,11.6-.21,17.4a4.08,4.08,0,0,0,.14.79H79.51c-2-3.51-2-7.16-1.48-10.81a9.62,9.62,0,0,1,5.06-7.59c1.84-1,1.93-2,1.44-3.72a26.23,26.23,0,0,0-9-13.76C70.45,144,64.37,148.75,55,148.36,44.77,147.93,38.53,142.25,35.3,132.56ZM23.67,57.43a9.14,9.14,0,0,0-.18,1.23c0,8.45-.21,16.9.08,25.33a31.65,31.65,0,0,0,28.57,30.62c17.87,2,34.33-11.82,35.07-29.79.37-9.1.1-18.24.16-27.36,0-1-.34-1.32-1.32-1.5a20.26,20.26,0,0,1-12.3-7.43c-.6-.72-1.17-1.45-1.78-2.22C57.77,58.53,41.61,61.78,23.67,57.43Zm82.54,25.68c4.52,6.08,5.51,12.5,2.09,19.15s-9.21,9.59-16.62,9.51q-5.91-.06-11.83,0a4.72,4.72,0,0,0-2,.53Q72.59,115,67.45,117.9a2.17,2.17,0,0,0-.93,1.31,19.84,19.84,0,0,0,0,2.19c-.09,1,.32,1.34,1.25,1.61A31.07,31.07,0,0,1,86.9,138.48a2.46,2.46,0,0,0,1.77,1c2.19.13,4.4-.06,6.59.09,1.55.11,2.22-.41,2.77-1.88q8.37-22.63,16.89-45.2a9.22,9.22,0,0,1,.65-1.55,2.34,2.34,0,0,1,3.07-1,2.31,2.31,0,0,1,1.51,2.85,12.21,12.21,0,0,1-.58,1.77l-12,31.91c-1.61,4.3-3.21,8.61-4.88,13.1h37.71a7.1,7.1,0,0,1,2.16.24,2.27,2.27,0,0,1,1.65,2.62,2.33,2.33,0,0,1-2.22,2.17,12.85,12.85,0,0,1-1.52,0h-35c-4.8,0-4.8,0-6.43,4.57a1.77,1.77,0,0,0,1.47,2.51,6.74,6.74,0,0,0,1.19,0H158.2c6.22,0,9.89-3.64,9.89-9.84q0-51.14,0-102.26c0-6.25-3.71-9.94-10-9.94H99.92c-.53,0-1,.05-1.68.09l2.08,7h57c3.4,0,4,.61,4,4v99.89c0,.39,0,.79,0,1.18-.07,1.81-.93,2.69-2.71,2.73-1.57,0-3.15,0-4.73,0-1.76,0-2.78-1-2.79-2.48s1-2.48,2.75-2.57c.76-.05,1.53,0,2.33,0V42h-55c0,.4-.06.72-.06,1,0,4.62.12,9.24.09,13.85a2.55,2.55,0,0,0,1.49,2.62,14.25,14.25,0,0,1,7.58,12.7C110.36,76.34,108.57,79.81,106.21,83.11ZM24,173.68c-2.69-1.21-3.68-3.29-3.59-6.22.16-5.46-.09-10.93.16-16.38A30.94,30.94,0,0,1,43,123l1.44-.42a3.19,3.19,0,0,0,.11-.56c.12-3.6,0-3.46-3.19-5-2.78-1.32-5.37-3-8.08-4.52a5.07,5.07,0,0,0-2.14-.71c-2.25-.09-4.51,0-6.76,0-1.92,0-3.11-1.08-3.05-2.63s1.19-2.4,3.06-2.43c.77,0,1.54,0,2.4,0-1.59-2.62-3.27-5-4.54-7.6S20.09,93.67,19,90.8c-4,.27-7.49-1.35-10.64-3.87-4.59,5.15-3.13,13.86,2.91,17.75.52.34,1.08.61,1.62.9,1.6.87,2.17,2.23,1.49,3.6s-2.1,1.72-3.79.91A16.8,16.8,0,0,1,1.34,99.43,17.18,17.18,0,0,1,4.59,83.24c-.86-1.48-1.8-2.89-2.51-4.41A14.63,14.63,0,0,1,8.51,59.29a1.93,1.93,0,0,0,1.14-2c.1-5.63-.21-11.31.47-16.87A45.64,45.64,0,0,1,72.41,3.87a3.71,3.71,0,0,1,2,1.57,3.38,3.38,0,0,1-.27,2.63c-.63,1.08-1.78,1.08-3,.75-3.84-1-7.66-2.38-11.58-2.86C39.2,3.44,19.52,17.89,15.53,38c-1.27,6.42-.66,12.89-.84,19.49l3.35.24a17.83,17.83,0,0,1,1.65-3.42,5.17,5.17,0,0,1,5.76-1.75,47.65,47.65,0,0,0,25.68-.26A45.08,45.08,0,0,0,67.86,43.1c3.72-3.2,6.06-2.93,8.89,1a16.09,16.09,0,0,0,10.58,6.93c3.46.59,4.45,1.92,5.3,6.72l3.18-.22c.13-.22.24-.31.24-.4.07-8.37.7-16.79-2.4-24.87a41.2,41.2,0,0,0-11.9-17c-.34-.29-.71-.56-1-.88a2.48,2.48,0,0,1-.25-3.5A2.35,2.35,0,0,1,84,10.62a85.82,85.82,0,0,1,6.74,6.61,43.81,43.81,0,0,1,4.25,6.08,2.41,2.41,0,0,0,2.39,1.34q30.42,0,60.85,0c7,0,12.42,3.74,14.3,9.94a17.36,17.36,0,0,1,.66,4.82q0,51.38,0,102.76c0,8.67-6,14.65-14.67,14.66q-26.62,0-53.25,0h-2c0,1.77,0,3.38,0,5,0,6.1-2.94,9.92-8.8,11.61a1.71,1.71,0,0,0-.42.26Z"/><path class="cls-1" d="M15.32,63.17a9.12,9.12,0,0,0-5.6,2,8.9,8.9,0,0,0-3.49,6.67,13.31,13.31,0,0,0,3.2,8.26,13.26,13.26,0,0,0,7.35,5,6.61,6.61,0,0,0,1,.09h0c0-.46,0-.92,0-1.38,0-1.41,0-2.74,0-4.08.06-3.14-1.22-5.08-4-6.08a3,3,0,0,1-2-3.89,3.14,3.14,0,0,1,4.13-1.9,18,18,0,0,1,1.71.66l.23.09c0-.27,0-.54,0-.81,0-1.21,0-2.35,0-3.49,0-.57-.12-.74-.79-.88A8.69,8.69,0,0,0,15.32,63.17ZM19,86.3l-.6,0-.59,0a7.74,7.74,0,0,1-1.19-.11,14.14,14.14,0,0,1-8-5.35,14.2,14.2,0,0,1-3.45-9,10.24,10.24,0,0,1,12.19-9.5,1.79,1.79,0,0,1,1.67,2c-.05,1.11,0,2.24,0,3.43,0,.53,0,1.08,0,1.65v.82l-.76-.3-1-.42a15.89,15.89,0,0,0-1.6-.61A2,2,0,0,0,12.83,70a1.92,1.92,0,0,0,1.37,2.49C17.43,73.68,19,76.08,19,79.67c0,1.33,0,2.65,0,4.06,0,.64,0,1.3,0,2ZM96.19,67.58a2.93,2.93,0,0,1,2.65,1.61,2.85,2.85,0,0,1,.24,2.42,3.61,3.61,0,0,1-2.27,2.06c-2.18.79-3.37,2.06-3.56,3.77a44.52,44.52,0,0,0-.11,5.69c0,.66,0,1.34,0,2l.47-.1a9.43,9.43,0,0,0,2.24-.63,15.4,15.4,0,0,0,8.39-9.71,8.87,8.87,0,0,0-2-8.52,9.05,9.05,0,0,0-8.45-2.83,1.7,1.7,0,0,0-.81.52C93,65.16,93,66.44,93,67.79c0,.24,0,.49,0,.73l.21-.09a18.2,18.2,0,0,1,1.8-.66A4,4,0,0,1,96.19,67.58Zm-4.12,19v-.71c0-.92,0-1.83,0-2.71a45,45,0,0,1,.12-5.83c.23-2.13,1.71-3.76,4.28-4.69A2.57,2.57,0,0,0,98,71.23a1.79,1.79,0,0,0-.17-1.5,2,2,0,0,0-2.56-.9c-.54.16-1.07.38-1.68.63l-1,.4-.76.29v-.81c0-.52,0-1,0-1.53,0-1.4,0-2.71.07-4C92,63,93.1,62.4,93.65,62.29a10.14,10.14,0,0,1,9.48,3.18,10,10,0,0,1,2.21,9.58,16.41,16.41,0,0,1-9,10.38,10,10,0,0,1-2.51.73c-.36.07-.74.15-1.09.24Zm-6.75,19.54,1.83,0c2.11,0,4.29.08,6.44-.07a11.29,11.29,0,0,0,10.19-7.3,11.86,11.86,0,0,0,.76-6.2,9.08,9.08,0,0,0-2-4.66l-1.67.81c-1.63.8-3.16,1.55-4.79,2.16A6.81,6.81,0,0,1,94,91.2a3.42,3.42,0,0,0-1.94.43,4.26,4.26,0,0,0-.83,2.16,8.9,8.9,0,0,1-.61,2c-1.29,2.67-2.7,5.34-4.07,7.92Zm4.74,1.18c-1,0-2,0-2.93,0l-2.73,0h-.91l.42-.81,1.67-3.18c1.36-2.57,2.77-5.23,4-7.88a7.81,7.81,0,0,0,.52-1.79,5.18,5.18,0,0,1,1.15-2.74A4.06,4.06,0,0,1,94,90.1a6.54,6.54,0,0,0,1.79-.26,50.77,50.77,0,0,0,4.69-2.12l2-1,.35-.16.28.27c2.71,2.66,3.47,8.21,1.69,12.36a12.48,12.48,0,0,1-11.13,8C92.46,107.26,91.25,107.29,90.06,107.29ZM24.11,58.11a2.86,2.86,0,0,0-.07.55c0,2.54,0,5.12,0,7.62,0,5.8-.08,11.81.12,17.7a31.22,31.22,0,0,0,8.32,20.31,31.9,31.9,0,0,0,19.75,9.76,29.11,29.11,0,0,0,3.36.19,31.33,31.33,0,0,0,20.33-7.59A30.93,30.93,0,0,0,83.48,97a29.58,29.58,0,0,0,3.17-12.2c.25-6.06.22-12.24.18-18.22,0-3,0-6.08,0-9.12,0-.68-.12-.82-.86-1a20.81,20.81,0,0,1-12.63-7.61c-.41-.5-.8-1-1.21-1.51l-.22-.27A52.61,52.61,0,0,1,49.34,58.63,56.42,56.42,0,0,1,24.11,58.11Zm31.45,57.24a31.22,31.22,0,0,1-3.48-.19,33,33,0,0,1-20.44-10.11A32.33,32.33,0,0,1,23,84c-.2-5.91-.16-11.92-.12-17.74,0-2.49,0-5.08,0-7.61a5.28,5.28,0,0,1,.11-.89c0-.14.06-.28.08-.42l.09-.6.59.14a55.56,55.56,0,0,0,25.3.66A51.67,51.67,0,0,0,71.6,45.89l.44-.37.36.44.58.73c.41.51.79,1,1.2,1.49a19.72,19.72,0,0,0,12,7.23,1.82,1.82,0,0,1,1.77,2.06c0,3,0,6.11,0,9.1,0,6,.07,12.19-.18,18.28A30.73,30.73,0,0,1,84.47,97.5a32.63,32.63,0,0,1-28.91,17.85Zm-5.34,4.8c0,.62,0,1.24,0,1.85s0,1.35,0,2c0,2.33-.85,3.31-3.22,3.88-1.06.26-2.13.6-3.16.92-.75.23-1.54.48-2.31.69s-.87.5-.67,1.38A14.9,14.9,0,0,0,49,141.3a18.51,18.51,0,0,0,2.57,1l.71.22c0-.28,0-.57,0-.85.07-1.72.16-3.86,3-3.95A2.74,2.74,0,0,1,58,139a5.74,5.74,0,0,1,.47,2.53c0,.3,0,.59,0,.86a13.42,13.42,0,0,0,7.46-4,12.79,12.79,0,0,0,4-7.9,1.25,1.25,0,0,0-.49-.77A51.76,51.76,0,0,0,64,127.92c-2.35-.59-3.08-1.47-3.12-3.75,0-1,0-2.07,0-3.15v-.89l-1.33.09c-1.39.1-2.7.2-4,.2s-2.69-.09-4-.18ZM53.16,144l-.62-.22c-.45-.16-.9-.3-1.33-.44a18.47,18.47,0,0,1-2.73-1,16,16,0,0,1-8.74-11.15,2,2,0,0,1,1.45-2.71c.76-.21,1.53-.45,2.28-.68,1.05-.33,2.13-.67,3.23-.93,1.87-.46,2.34-1,2.37-2.83,0-.67,0-1.34,0-2s0-1.36,0-2a1,1,0,0,1,.16-.48.87.87,0,0,0,.08-.14l.16-.33.37,0,1.71.11c1.26.09,2.57.18,3.85.18h.05c1.29,0,2.59-.09,4-.2l1.93-.13.59,0V121c0,1.08,0,2.1,0,3.13,0,1.77.41,2.22,2.28,2.69a55.57,55.57,0,0,1,5.68,1.76,2.21,2.21,0,0,1,1.22,1.87c-.35,6.05-6.93,12.62-13,13l-.48,0-.1-.48a10.73,10.73,0,0,1-.14-1.52c-.07-1.85-.2-2.81-2.08-2.75-1.71.06-1.82,1-1.91,2.9a12.94,12.94,0,0,1-.13,1.64Zm37.39,3.69c1.59.17,2.68.16,3.2-.26s.57-.9.7-2.12H90.06Zm1.6,1.21a20,20,0,0,1-2.12-.15l-.4,0-.93-4.51h7l0,.6c-.13,1.71-.36,2.83-1.16,3.49A3.51,3.51,0,0,1,92.15,148.87Zm13.36-3.67c-2.28,0-3.43,0-4.09.47s-1,1.56-1.82,3.72a1.23,1.23,0,0,0,1,1.79,5.82,5.82,0,0,0,.74,0H158.2c5.93,0,9.33-3.39,9.33-9.29,0-33.66,0-68.06,0-102.26,0-6-3.45-9.38-9.46-9.38-17.52,0-35.33,0-52.56,0H99.92c-.3,0-.62,0-1,.05l1.76,5.94h56.58c3.72,0,4.57.86,4.57,4.59v99.89c0,.11,0,.22,0,.33,0,.28,0,.58,0,.87-.09,2.12-1.19,3.22-3.25,3.27-1.44,0-3,0-4.76,0-2.05,0-3.32-1.2-3.33-3s1.27-3,3.27-3.13c.54,0,1.09,0,1.62,0h.18V42.52h-54a4.12,4.12,0,0,0,0,.48c0,1.37,0,2.73.05,4.1,0,3.2.07,6.51,0,9.77A2,2,0,0,0,102.94,59a14.76,14.76,0,0,1,7.86,13.17c.13,4.49-2,8.18-3.91,10.94,4.6,6.37,5.24,12.9,1.91,19.41s-9,9.81-16.84,9.81h-.28c-3.85,0-7.83,0-11.82,0a4,4,0,0,0-1.79.46c-3.67,1.92-7.06,3.74-10.35,5.57a1.65,1.65,0,0,0-.65,1,4,4,0,0,0,0,1.11,6.85,6.85,0,0,1,0,1c0,.59,0,.79.85,1a31.74,31.74,0,0,1,19.52,15.74,2,2,0,0,0,1.32.75c1,.06,2.1.05,3.14,0s2.3,0,3.45.05,1.73-.24,2.21-1.52c4.5-12.18,9.13-24.53,13.61-36.48l3.28-8.73c0-.09.06-.18.1-.27a6.87,6.87,0,0,1,.6-1.37,3.05,3.05,0,0,1,5.6,2.22,13.93,13.93,0,0,1-.52,1.62l-.09.22-5.79,15.43-6.18,16.48c-1.11,3-2.18,5.86-3.33,8.93-.42,1.13-.85,2.27-1.27,3.43h36.91a7.73,7.73,0,0,1,2.33.26,2.84,2.84,0,0,1,2,3.22,2.88,2.88,0,0,1-2.71,2.66,10.09,10.09,0,0,1-1.22,0H105.51Zm-4.46,7.11a3.77,3.77,0,0,1-.58,0A2.32,2.32,0,0,1,98.56,149c1.71-4.79,1.9-4.93,7-4.93h35.36a7.81,7.81,0,0,0,1.09,0,1.78,1.78,0,0,0,1.73-1.69,1.72,1.72,0,0,0-1.27-2,6.83,6.83,0,0,0-2-.21H101.92l.28-.75,1.55-4.18c1.14-3.07,2.22-6,3.33-8.93l6.18-16.48,5.79-15.43.09-.23a9.76,9.76,0,0,0,.47-1.45,1.76,1.76,0,0,0-1.17-2.22,1.79,1.79,0,0,0-2.39.8,7.1,7.1,0,0,0-.51,1.18l-.1.28-3.28,8.73c-4.48,12-9.11,24.3-13.61,36.47a2.89,2.89,0,0,1-3.33,2.24c-1.11-.07-2.25-.06-3.36,0s-2.14,0-3.22,0a3.05,3.05,0,0,1-2.22-1.33,32,32,0,0,0-7.87-9.56,31.41,31.41,0,0,0-11-5.65,1.89,1.89,0,0,1-1.64-2.2,8,8,0,0,0,0-.85,5.5,5.5,0,0,1,.06-1.4,2.74,2.74,0,0,1,1.2-1.68c3.3-1.84,6.7-3.66,10.37-5.58a5.14,5.14,0,0,1,2.3-.59c4,0,8-.06,11.84,0,7.53.07,13-3,16.12-9.21a16.21,16.21,0,0,0,1.87-9.47,19.34,19.34,0,0,0-3.92-9.1l-.24-.32.24-.33c2-2.81,4-6.27,3.93-10.59A13.74,13.74,0,0,0,102.39,60a3.08,3.08,0,0,1-1.78-3.1c0-3.25,0-6.55,0-9.75,0-1.37,0-2.73,0-4.1,0-.24,0-.47,0-.72l0-.36,0-.52h56.1v98.72h-1.31c-.53,0-1,0-1.54,0-1.42.08-2.23.81-2.22,2,0,1.64,1.41,1.92,2.24,1.93,1.75,0,3.29,0,4.71,0s2.1-.68,2.17-2.2c0-.27,0-.54,0-.82,0-.12,0-.23,0-.34V40.83c0-1.68-.16-2.5-.57-2.91s-1.22-.57-2.89-.57H99.9l-2.39-8.08.7,0,.58,0c.39,0,.76-.06,1.13-.06h58.15c6.62,0,10.57,3.93,10.57,10.5,0,34.2,0,68.6,0,102.26,0,6.51-3.9,10.39-10.44,10.4H101.05Zm-75,15.62h52.5c-1.7-3.53-1.53-7.18-1.11-10.33a10.25,10.25,0,0,1,5.35-8c1.51-.81,1.62-1.48,1.17-3.08a25.76,25.76,0,0,0-8.24-13c-5,10.76-11,15.44-19.74,15.44l-1.08,0a20.85,20.85,0,0,1-12.78-4.55,24.53,24.53,0,0,1-7.11-10.84,27.85,27.85,0,0,0-6,7.25,22.78,22.78,0,0,0-2.79,9.57c-.28,4-.25,8.15-.23,12.14,0,1.71,0,3.48,0,5.22A2.08,2.08,0,0,0,26.09,167.93ZM80.46,169H25.19l-.09-.45c0-.07,0-.14,0-.21a2.77,2.77,0,0,1-.11-.69c0-1.73,0-3.5,0-5.2,0-4-.05-8.16.23-12.23.47-7,3.76-13.07,9.78-18.12l.62-.53.26.78a23.89,23.89,0,0,0,7,11.11A19.77,19.77,0,0,0,55,147.8a17,17,0,0,0,11.55-3.35c3.19-2.45,6-6.4,8.52-12.07l.3-.66.56.45a26.74,26.74,0,0,1,9.15,14.05c.54,1.9.43,3.22-1.71,4.36a9,9,0,0,0-4.77,7.17c-.45,3.37-.58,7,1.41,10.46Zm9.65-15.11H88.9a5.24,5.24,0,0,0-5.26,4.44,18.94,18.94,0,0,0,0,5.21,4.65,4.65,0,0,0,4,4.21,16.77,16.77,0,0,0,5.83,0c2.83-.54,4.1-2.61,4.1-6.71V159.9c-.06-3.82-2.19-5.94-6-6H90.11Zm.46,15.23a19.29,19.29,0,0,1-3.11-.26,5.79,5.79,0,0,1-4.92-5.16,19.63,19.63,0,0,1,0-5.52,6.31,6.31,0,0,1,6.32-5.39c.78,0,1.56,0,2.32,0h.41c4.37,0,7,2.66,7.09,7v1.19h0c0,4.61-1.64,7.16-5,7.8A16.47,16.47,0,0,1,90.57,169.16Zm-66.47,4H93.79a1.57,1.57,0,0,1,.45-.24c5.62-1.61,8.36-5.23,8.4-11.07v-5.55h18.19c12.34,0,25.1,0,37.65,0a13.46,13.46,0,0,0,14.12-14.1c0-35.27,0-69.84,0-102.76a16.15,16.15,0,0,0-.64-4.66,12.92,12.92,0,0,0-5-7,15.19,15.19,0,0,0-8.75-2.55c-22.34,0-42.25,0-60.85,0h0a3,3,0,0,1-2.86-1.6,42.22,42.22,0,0,0-4.19-6A82.79,82.79,0,0,0,83.57,11a1.73,1.73,0,0,0-1.29-.47,2,2,0,0,0-1.37.73,1.93,1.93,0,0,0,.22,2.76,7.79,7.79,0,0,0,.66.58l.32.27A42.06,42.06,0,0,1,94.17,32.08c2.74,7.13,2.61,14.59,2.48,21.8,0,1.07,0,2.18,0,3.27a.89.89,0,0,1-.22.53l-.11.16-.15.24-4,.28-.08-.49c-.82-4.62-1.69-5.73-4.85-6.28A16.46,16.46,0,0,1,76.3,44.44c-1.35-1.88-2.53-2.82-3.71-3s-2.59.5-4.37,2a45.78,45.78,0,0,1-16.93,9.34,48.38,48.38,0,0,1-26,.26,4.59,4.59,0,0,0-5.19,1.57,8.6,8.6,0,0,0-1.06,2.1c-.16.39-.32.8-.51,1.21l-.17.34L14.12,58V57.5c.06-2,0-3.93,0-5.84A67.75,67.75,0,0,1,15,37.92,40.55,40.55,0,0,1,31.08,13.05,40.05,40.05,0,0,1,59.66,5.41a55.29,55.29,0,0,1,8.66,2c1,.29,2,.58,3,.85,1.6.43,2.1,0,2.38-.49a2.87,2.87,0,0,0,.24-2.14A3.24,3.24,0,0,0,72.2,4.39a44.47,44.47,0,0,0-26.53-2.2A45,45,0,0,0,22.05,15.75,44.44,44.44,0,0,0,10.67,40.52a94.79,94.79,0,0,0-.45,11.91c0,1.6,0,3.27,0,4.9a2.47,2.47,0,0,1-1.44,2.44A14.1,14.1,0,0,0,2.58,78.59a33.87,33.87,0,0,0,1.65,3L5.07,83l.18.33L5,83.58a16.69,16.69,0,0,0-3.14,15.7,16.25,16.25,0,0,0,8.93,10.31c1.4.67,2.52.44,3.06-.66s.08-2.13-1.26-2.86l-.43-.22c-.4-.22-.83-.44-1.23-.7A12.91,12.91,0,0,1,5.2,96a11.74,11.74,0,0,1,2.73-9.44l.35-.39.41.33c3.44,2.75,6.8,4,10.25,3.74l.41,0,.15.39c.34.89.66,1.78,1,2.64a54.46,54.46,0,0,0,2.25,5.6,53.17,53.17,0,0,0,3,5.18c.48.78,1,1.57,1.48,2.39l.51.84H26c-.55,0-1.07,0-1.59,0-.91,0-2.45.29-2.51,1.9a1.77,1.77,0,0,0,.47,1.33,2.78,2.78,0,0,0,2,.72h2.57c1.38,0,2.8,0,4.2,0a5.55,5.55,0,0,1,2.39.78c1,.55,2,1.15,3,1.72,1.64,1,3.33,2,5.06,2.79l.41.2c3.07,1.46,3.21,1.71,3.1,5.33a2.92,2.92,0,0,1-.08.46,1.17,1.17,0,0,0,0,.2l-.07.32-.32.09-.45.13-1,.29A30.23,30.23,0,0,0,27.7,133.82a29.69,29.69,0,0,0-6.59,17.28c-.14,3-.13,6.06-.12,9,0,2.41,0,4.91,0,7.36C20.86,170.32,21.84,172.07,24.1,173.12Zm70,1.11H23.86l-.11,0c-2.77-1.24-4-3.38-3.92-6.73.07-2.44.06-4.92.05-7.33,0-3,0-6.05.12-9.07a30.77,30.77,0,0,1,6.83-17.92,31.39,31.39,0,0,1,16-10.65l1-.28.15,0a1,1,0,0,0,0-.12,6.59,6.59,0,0,0-.21-2.9c-.27-.45-.94-.77-2.26-1.4l-.41-.19c-1.77-.85-3.48-1.86-5.14-2.84-1-.57-2-1.16-3-1.71a4.56,4.56,0,0,0-1.9-.64c-1.38,0-2.79,0-4.15,0h-2.6a3.9,3.9,0,0,1-2.82-1.06,2.88,2.88,0,0,1-.77-2.14c.07-1.79,1.45-2.93,3.6-3,.47,0,.93,0,1.41,0l-.95-1.52a58.57,58.57,0,0,1-3.09-5.29,59.63,59.63,0,0,1-2.3-5.71c-.26-.73-.54-1.49-.83-2.25-3.45.13-6.79-1.07-10.18-3.67A10.69,10.69,0,0,0,6.3,95.85a11.85,11.85,0,0,0,5.25,8.37c.36.23.75.43,1.15.65.15.07.29.15.43.23,1.86,1,2.54,2.7,1.73,4.33s-2.59,2.09-4.53,1.16a17.32,17.32,0,0,1-9.52-11A17.65,17.65,0,0,1,3.92,83.2l-.64-1.07a33.65,33.65,0,0,1-1.71-3.07A15.18,15.18,0,0,1,8.24,58.8a1.41,1.41,0,0,0,.86-1.49c0-1.62,0-3.28,0-4.88a95.42,95.42,0,0,1,.46-12A45.54,45.54,0,0,1,21.23,15,46,46,0,0,1,45.44,1.11,45.56,45.56,0,0,1,72.61,3.36,4.27,4.27,0,0,1,75,5.22a4,4,0,0,1-.31,3.13c-1,1.72-3,1.18-3.63,1L68,8.5a54.2,54.2,0,0,0-8.49-2C39.5,4,20,18.23,16.08,38.14a65.8,65.8,0,0,0-.81,13.51c0,1.75,0,3.55,0,5.35l2.45.18.33-.81A9.48,9.48,0,0,1,19.25,54a5.72,5.72,0,0,1,6.33-2A47.34,47.34,0,0,0,51,51.79,44.6,44.6,0,0,0,67.5,42.68c2.06-1.78,3.67-2.49,5.22-2.3s2.94,1.27,4.48,3.42a15.44,15.44,0,0,0,10.23,6.7c3.78.65,4.84,2.34,5.66,6.68L95.5,57c0-1,0-2.12,0-3.15.12-7.11.25-14.46-2.41-21.38A41,41,0,0,0,81.39,15.74l-.31-.25a9.24,9.24,0,0,1-.75-.67,3,3,0,0,1-.27-4.24A3.08,3.08,0,0,1,82.2,9.45a2.89,2.89,0,0,1,2.12.76,83.18,83.18,0,0,1,6.78,6.66A42.35,42.35,0,0,1,95.41,23a1.88,1.88,0,0,0,1.91,1.07h0c18.6,0,38.51,0,60.85,0a16.35,16.35,0,0,1,9.38,2.74A14.08,14.08,0,0,1,173,34.41a17.23,17.23,0,0,1,.68,5c0,32.92,0,67.49,0,102.76,0,8.95-6.27,15.2-15.23,15.21-12.55,0-25.31,0-37.65,0H103.75v1.11c0,1.15,0,2.24,0,3.34A11.58,11.58,0,0,1,94.54,174l-.1.08-.17.11Z"/><path class="cls-1" d="M55.38,95.92a15.21,15.21,0,0,1-10.24-4c-1.39-1.27-1.57-2.68-.57-3.84s2.44-1.17,3.88,0c4.52,3.73,9.41,3.73,13.94,0,1.45-1.19,2.85-1.21,3.87,0s.84,2.58-.55,3.85A15.27,15.27,0,0,1,55.38,95.92Z"/><path class="cls-1" d="M46.34,87.71a1.77,1.77,0,0,0-1.35.68c-1.09,1.26-.14,2.47.52,3.07a14.77,14.77,0,0,0,9.87,3.91,14.62,14.62,0,0,0,10-3.91c1.46-1.34,1.08-2.41.5-3.07-1-1.18-2.25-.6-3.1.1-4.72,3.89-9.92,3.89-14.65,0A2.94,2.94,0,0,0,46.34,87.71Zm9,8.77h0a15.86,15.86,0,0,1-10.61-4.2c-1.58-1.45-1.82-3.22-.6-4.62s3-1.42,4.64,0c4.33,3.57,8.9,3.57,13.23,0,1.69-1.39,3.42-1.38,4.65,0s1,3.17-.59,4.62a16,16,0,0,1-10.69,4.2Z"/><path class="cls-1" d="M44.64,69.07c0,.79,0,1.57,0,2.36a2.33,2.33,0,0,1-2.34,2.39,2.28,2.28,0,0,1-2.6-2.12,25.82,25.82,0,0,1,0-5.2,2.26,2.26,0,0,1,2.57-2.12,2.3,2.3,0,0,1,2.38,2.34C44.69,67.5,44.64,68.29,44.64,69.07Z"/><path class="cls-1" d="M42.07,64.93a1.67,1.67,0,0,0-1.83,1.63,25.46,25.46,0,0,0,0,5.09,1.74,1.74,0,0,0,2,1.62,1.8,1.8,0,0,0,1.83-1.87c0-.53,0-1.05,0-1.6,0-.24,0-.48,0-.73s0-.5,0-.75c0-.54,0-1,0-1.56a1.75,1.75,0,0,0-1.84-1.83Zm0,9.45a2.8,2.8,0,0,1-2.93-2.62,26.91,26.91,0,0,1,0-5.31,3,3,0,0,1,6,.23c0,.56,0,1.12,0,1.66,0,.24,0,.49,0,.73h0c0,.24,0,.48,0,.72,0,.54,0,1.11,0,1.67a2.89,2.89,0,0,1-2.87,2.91Z"/><path class="cls-1" d="M66.2,69.13c0-.79,0-1.57,0-2.36a2.29,2.29,0,0,1,2.32-2.39,2.24,2.24,0,0,1,2.61,2.07,26.67,26.67,0,0,1,0,5.36,2.21,2.21,0,0,1-2.5,2,2.32,2.32,0,0,1-2.39-2.34c-.06-.78,0-1.57,0-2.35Z"/><path class="cls-1" d="M66.75,68.57h0v.56c0,.25,0,.49,0,.74,0,.55,0,1.06,0,1.57a1.79,1.79,0,0,0,1.87,1.83,1.67,1.67,0,0,0,1.92-1.52,25.6,25.6,0,0,0,0-5.25,1.68,1.68,0,0,0-2-1.56,1.75,1.75,0,0,0-1.81,1.87c0,.51,0,1,0,1.58Zm2,5.81h-.19a2.89,2.89,0,0,1-2.92-2.86c0-.56,0-1.12,0-1.67,0-.13,0-.26,0-.39V68.4c0-.54,0-1.1,0-1.66a2.85,2.85,0,0,1,2.84-2.91,2.76,2.76,0,0,1,3.2,2.56,27.88,27.88,0,0,1,0,5.48A2.78,2.78,0,0,1,68.77,74.38Z"/></g></g></svg>