<svg xmlns="http://www.w3.org/2000/svg" viewBox="0 0 174.28 174.23"><defs><style>.cls-1{fill:#fff;}</style></defs><g id="Capa_2" data-name="Capa 2"><g id="Capa_1-2" data-name="Capa 1"><path class="cls-1" d="M132.72,106.3c0,1.79-.12,3.71,0,5.61a4.61,4.61,0,0,0,9.06.22,51.81,51.81,0,0,0,0-5.83Zm-91.2,0H32.33c0,1.75-.11,3.61,0,5.46a4.61,4.61,0,0,0,9.15,0C41.63,109.93,41.52,108.06,41.52,106.3ZM82.35,48.86A57.63,57.63,0,0,0,82.7,55a4.55,4.55,0,0,0,8.77.24,53.2,53.2,0,0,0,.43-6.35Zm0,71.16a55.13,55.13,0,0,0,.32,6,4.45,4.45,0,0,0,4.53,3.57A4.38,4.38,0,0,0,91.55,126a46.55,46.55,0,0,0,.06-6Zm-14-25.5c-4.64,0-8.82,0-13,0-.39,0-.84.58-1.15,1-1.66,2.12-3,4.67-5,6.31s-2.88,3.24-2.48,5.67a.48.48,0,0,1,0,.17c-.21,1.22.32,1.79,1.51,2.16q7.37,2.31,14.67,4.81a15.93,15.93,0,0,1,9.47,8.5c.21.44.44.88.66,1.31l.59-.18c3.76-1.15,3.71-1.15,3.78-5A2.79,2.79,0,0,0,76,116.62a17.51,17.51,0,0,1-7.63-12.53A86.71,86.71,0,0,1,68.31,94.52Zm37.87,0c0,2.14,0,4,0,5.87A19.16,19.16,0,0,1,97.84,117a2.16,2.16,0,0,0-.88,1.28c-.59,4.66-.46,4.82,4,6.16.09,0,.21,0,.39-.08a16.56,16.56,0,0,1,10.81-10c3.77-1.2,7.51-2.48,11.28-3.7,4.29-1.4,4.32-1.39,4-5.86a2.17,2.17,0,0,0-.8-1.48A20.13,20.13,0,0,1,120,95.38a1.54,1.54,0,0,0-1.06-.82C114.74,94.5,110.55,94.52,106.18,94.52Zm45.26-12.61-.26,0c0-2.15.11-4.31,0-6.45a13.87,13.87,0,0,0-27.67-.13,119.52,119.52,0,0,0,0,13.25,13.83,13.83,0,0,0,27.24,2.29C151.37,88,151.23,84.89,151.44,81.91ZM51.09,81.85h-.31c0-2.21.14-4.43,0-6.63a13.87,13.87,0,0,0-27.65.16,129.69,129.69,0,0,0,0,13.08A13.83,13.83,0,0,0,50.32,91C51,88,50.86,84.89,51.09,81.85Zm50.12,13.82h-.15c0-1.93,0-3.86,0-5.78A14,14,0,0,0,88.14,76.28c-7-.57-13.69,4.36-14.6,11.42a85.46,85.46,0,0,0-.28,14.58A13.71,13.71,0,0,0,86,115.07c7.21.44,13.52-4.21,14.7-11.11A73.5,73.5,0,0,0,101.21,95.67ZM73,24.53h.14c0,2-.05,4,0,5.95A13.94,13.94,0,0,0,85.7,43.9c7.47.55,14.06-4.12,15-11.31A82.42,82.42,0,0,0,101,17.85,13.87,13.87,0,0,0,73.5,16.41,73,73,0,0,0,73,24.53ZM68,89.34c1.26-12.08,10.53-18,18.62-18.18A18.59,18.59,0,0,1,98.48,75a19.31,19.31,0,0,1,7.73,14.36h12a2.43,2.43,0,0,0,.15-.55c.17-5.72.35-11.43.49-17.14a6,6,0,0,0-.23-1.67,10.94,10.94,0,0,0-7.43-8c-2.35-.82-4.72-1.57-7.09-2.35l-7.67-2.49c-3.61,8.18-14.49,8.77-18.63,0-5.33,1.81-10.74,3.46-16,5.48-3.85,1.47-6.52,5.92-6.34,9.3.27,5.08.38,10.17.56,15.26,0,.71,0,1.42,0,2.19ZM0,127.61a4.45,4.45,0,0,0,.32-.75,16,16,0,0,1,11-12.3c4.71-1.62,9.45-3.16,14.2-4.66a2,2,0,0,0,1.69-2.23c.08-2.43-.36-4.16-2.58-5.82A16.68,16.68,0,0,1,18,88.63c-.16-4.42-.25-8.86,0-13.26.51-8.16,4.77-13.91,12.37-16.71s14.49-1.07,20.3,4.65c.44.43.85.91,1.25,1.34.16,0,.32,0,.36-.1a17.68,17.68,0,0,1,10.65-7.9c4.39-1.31,8.71-2.86,13.07-4.25a1.67,1.67,0,0,0,1.35-1.77,6.47,6.47,0,0,0-2.77-6.41,16.89,16.89,0,0,1-6.48-13.67A107.64,107.64,0,0,1,68.45,16C69.56,6.8,77.88,0,87.19,0s17.6,6.85,18.57,15.93a96.93,96.93,0,0,1,0,17.29c-.37,5-3.12,9-7.13,11.89a3.78,3.78,0,0,0-1.76,3.63c.1,3.15,0,3.15,3,4.13,3.55,1.18,7.06,2.47,10.65,3.51,4.86,1.4,9,3.76,11.58,8.49.53-.56.93-1,1.36-1.43C129.19,57.68,136,56,143.7,58.57a18.3,18.3,0,0,1,12.52,16.79,116.25,116.25,0,0,1-.38,16c-.52,4.8-3.35,8.61-7.28,11.44a3.18,3.18,0,0,0-1.54,3c.11,3.5,0,3.5,3.3,4.57l12.09,4c7.58,2.51,11.81,8.38,11.83,16.38,0,1.08,0,2.16,0,3.23a2.54,2.54,0,1,1-5.07,0,56.42,56.42,0,0,0-.35-6.26,9.52,9.52,0,0,0-6-7.57c-5.31-2.07-10.78-3.75-16.16-5.58-4,8.53-14.75,8.48-18.7,0L123.71,116c-3.5,1.15-7,2.27-10.49,3.45a11,11,0,0,0-7,6.7l5.8,1.92c7.84,2.63,12,8.3,12,16.59,0,.62,0,1.24,0,2h30.67c0-1.92,0-3.78,0-5.64s1-3.16,2.55-3.14,2.51,1.18,2.54,3.18c0,1.81,0,3.63,0,5.58H169a11.28,11.28,0,0,1,.25-1.33,2.42,2.42,0,0,1,2.5-1.91,2.34,2.34,0,0,1,2.44,2.17,20.5,20.5,0,0,1,0,4.07,2.33,2.33,0,0,1-2.38,2.22c-.56,0-1.13,0-1.7,0h-46c0,1.41,0,2.68,0,3.95-.05,2-1.07,3.14-2.63,3.08s-2.43-1.16-2.45-3.07c0-3.74,0-7.48,0-11.23,0-6-2.76-9.76-8.49-11.66l-14-4.62c-4.19,8.84-15,8.11-18.61,0l-10.41,3.4L63.73,133c-5.64,1.89-8.41,5.64-8.43,11.53,0,7.66,0,15.32,0,23,0,.5.06,1,.09,1.59h9.26V155.32c0-2.51.79-3.66,2.5-3.69s2.6,1.21,2.61,3.78V169h34.74v-1.73c0-4.13,0-8.27,0-12.41,0-2,.91-3.17,2.48-3.22s2.61,1.11,2.61,3.23c0,4.69,0,9.39,0,14.17h9.1c.06-.09.16-.17.18-.27.39-2.17,1.23-3.1,2.74-3s2.4,1.21,2.43,3.44c0,1.85.29,3.77-1.54,5H51.73a4.29,4.29,0,0,1-1.57-3.85c.06-5.32,0-10.64,0-16v-2.55H48c-14.83,0-29.66,0-44.49,0-1.56,0-2.78-.35-3.51-1.81V145c.82-.95,1.64-1.91,3.11-1.54,1.66.43,2,1.77,2.07,3.2h9a2,2,0,0,0,.16-.42c0-1.7,0-3.4,0-5.1,0-2.09,1-3.31,2.64-3.26s2.44,1.2,2.46,3.23c0,1.85,0,3.69,0,5.58H50.09c0-.64.09-1.19.09-1.74.08-8.81,4.15-14.31,12.56-17,1.74-.56,3.47-1.18,5.26-1.8a11,11,0,0,0-7-6.69c-3.92-1.32-7.84-2.59-11.77-3.88-1-.33-2-.64-3-1-3.89,8.35-14.68,8.51-18.68-.07-5.37,1.83-10.84,3.51-16.15,5.57a9.63,9.63,0,0,0-6,7.56,29.46,29.46,0,0,0-.3,5.4c0,1.47-.22,2.79-1.78,3.32S.78,136,0,134.76Z"/></g></g></svg>