<svg xmlns="http://www.w3.org/2000/svg" xmlns:xlink="http://www.w3.org/1999/xlink" viewBox="0 0 36.38 47.78"><defs><style>.cls-1{fill:none;}.cls-2{clip-path:url(#clip-path);}.cls-3{isolation:isolate;}.cls-4{clip-path:url(#clip-path-2);}.cls-5{fill:#86f1ff;}</style><clipPath id="clip-path" transform="translate(0 0)"><rect class="cls-1" width="36.38" height="47.78"/></clipPath><clipPath id="clip-path-2" transform="translate(0 0)"><rect class="cls-1" x="-0.17" width="36.96" height="48.05"/></clipPath></defs><g id="Capa_2" data-name="Capa 2"><g id="Capa_1-2" data-name="Capa 1"><g class="cls-2"><g class="cls-3"><g class="cls-4"><path class="cls-5" d="M18.2,44l.33-.41c2.26-3,4.57-6,6.79-9s4.17-5.77,6.12-8.74a13.87,13.87,0,0,0,1.82-10.75,14.63,14.63,0,0,0-4.79-8.33A14.7,14.7,0,0,0,13.62,3.54C7.77,5.4,4.23,9.55,3.05,15.61a13.91,13.91,0,0,0,.42,7.18,19.41,19.41,0,0,0,2.9,5.35C10.21,33.37,14.11,38.57,18,43.78c.05.07.12.13.21.24m-.38,3.76a10.08,10.08,0,0,1-1.15-1.11C13.06,41.9,9.45,37.13,5.89,32.32a40.77,40.77,0,0,1-4.52-7.21A16.32,16.32,0,0,1,0,17.1,17.84,17.84,0,0,1,2.9,8.39,18,18,0,0,1,9.92,2a17.52,17.52,0,0,1,8.94-2A17.87,17.87,0,0,1,31.38,5.71a17.77,17.77,0,0,1,4.67,9.12c.14.71.22,1.44.33,2.15v2.71a2.33,2.33,0,0,0-.08.36,13.27,13.27,0,0,1-1.8,6.06c-1.27,2.13-2.59,4.25-4.05,6.25-3.53,4.81-7.14,9.55-10.74,14.31a10.88,10.88,0,0,1-1.14,1.11Z" transform="translate(0 0)"/><path class="cls-5" d="M18.2,25.19a7,7,0,1,0-7-7,7,7,0,0,0,7,7m9.78-7A9.79,9.79,0,1,1,18.2,8.4,9.82,9.82,0,0,1,28,18.2" transform="translate(0 0)"/></g></g></g></g></g></svg>