<svg xmlns="http://www.w3.org/2000/svg" viewBox="0 0 282.25 183.88"><defs><style>.cls-1{fill:#e2382d;}.cls-2{fill:#003f8f;}.cls-3{fill:#e23f3b;}</style></defs><g id="Capa_2" data-name="Capa 2"><g id="Capa_1-2" data-name="Capa 1"><path class="cls-1" d="M239.51,139.1a16.48,16.48,0,0,1,0,5.49,9.41,9.41,0,0,1-3.94,5.42,4.9,4.9,0,0,1-5.33.32,6.74,6.74,0,0,1-3.57-4.12,4.82,4.82,0,0,1-.15-1.32c0-.46.05-.92-.48-1.14s-.92.06-1.32.41c-.74.64-1.53,1.23-2.32,1.82a15,15,0,0,1-6.6,2.83,5.23,5.23,0,0,1-4-1.05,6.36,6.36,0,0,1-2.67-5.15,11.55,11.55,0,0,1,0-4,1,1,0,0,0-.38-.87c-.39-.26-.74,0-1,.37-1.95,2.79-4.61,4.84-7.19,7-.27.22-.53.47-.81.7a17.34,17.34,0,0,1-2.88,1.95c-1.1.55-2.06,1.39-3.13,2a3.78,3.78,0,0,1-1.36.34,1.9,1.9,0,0,0-1.39,3c1.91,2.17,1.87,4.73,1.46,7.25a16.56,16.56,0,0,1-3.2,7.47,8.27,8.27,0,0,1-2.15,1.78c-.64.41-1.28,0-1.49-.74a4.11,4.11,0,0,0-.54-1.35,13.24,13.24,0,0,1-2-5.46,17.06,17.06,0,0,1-.23-6c0-.22,0-.45.08-.67.13-.54.29-1.12,1-1.1s.89.57,1,1.1a12,12,0,0,1,.13,1.47q.27,3.07.53,6.13a1.66,1.66,0,0,0,1.17,1.62,1,1,0,0,0,1.22-.32,4.07,4.07,0,0,0,1.08-2,5.34,5.34,0,0,1,.51-1.52,8.6,8.6,0,0,0,.75-4c-.5-.3-1-.57-1.46-.89a3,3,0,0,1-1.34-3.36c.18-.91-.18-1.19-1.19-1.1a7.76,7.76,0,0,1-5.25-1.69,1.49,1.49,0,0,1-.63-.81c-.18-1.18-.25-2.38-.37-3.57,0-.45-.14-.9-.23-1.43a2.59,2.59,0,0,0-1.86,1.8,12,12,0,0,1-.82,1.83,2.44,2.44,0,0,1-2,1.37,6.09,6.09,0,0,1-2.37.15c-2-.56-2.77-1.36-2.88-3.46-.08-1.38-.06-2.77,0-4.16,0-1.17.17-2.33.3-3.49a1.93,1.93,0,0,0-.42-1.87c-.18-.17-.15-.56-.19-.86s-.06-.56-.09-.84c-.21,0-.35,0-.37.05-1,2.46-2.66,4.64-3.41,7.25-.44,1.54-1.19,3-1.73,4.51-.43,1.22-.75,2.49-1.12,3.73-.11.35-.25.68-.36,1a1.64,1.64,0,0,1-1.65,1.31c-.67,0-1.34.19-2,.19-1.19,0-1.63-.42-1.83-1.64a43.35,43.35,0,0,1-.34-10.05c.23-3.4.7-6.78,1.13-10.17a29.12,29.12,0,0,1,.75-3.27c.3-1.22.55-2.46.94-3.65.53-1.61,1.15-3.2,1.78-4.78.53-1.32,1.13-2.62,1.69-3.93a2.23,2.23,0,0,1,2.47-1.42,5.22,5.22,0,0,1,3,1.43,1.61,1.61,0,0,1,.42,2.06c-.38.75-.67,1.56-1.07,2.31a35.82,35.82,0,0,0-3.14,9,5.33,5.33,0,0,0-.1,1.59c0,.18.31.4.52.48s.42-.24.43-.4c.19-1.82,1.74-2.76,2.67-4.08A43.32,43.32,0,0,1,171.6,122a2,2,0,0,1,1.73-.54,7,7,0,0,1,4,1.42,1.66,1.66,0,0,1,.68,1.89c-.27.9-.53,1.8-.79,2.7a35.32,35.32,0,0,1-1.19,4c-.92,2.19-1.06,4.54-1.67,6.78-.07.26-.12.53-.17.79-.09.46-.17.93.35,1.18a1.33,1.33,0,0,0,1.51,0,5.83,5.83,0,0,0,2.17-3.14,5.67,5.67,0,0,1,.5-1.38,1.06,1.06,0,0,1,1.8-.28c.33.28.51.84,1.07.64a2.22,2.22,0,0,0,1.34-1.23,8,8,0,0,1,.84-1.32c.18-.25.41-.48.57-.74,1.14-1.88,2.19-3.82,3.43-5.63a40.61,40.61,0,0,1,3-3.58c.44-.51.9-1,1.38-1.46a13.35,13.35,0,0,1,5.69-3.44,13.62,13.62,0,0,1,7.44-.09,4.26,4.26,0,0,1,1.49.88,1.47,1.47,0,0,1,.5,1,8.3,8.3,0,0,1-.55,2.74,16.48,16.48,0,0,1-2,3,1.37,1.37,0,0,1-1,.46c-1.33-.13-2.66-.34-4-.59-.62-.12-.65-.65-.6-1.18s.21-1-.43-1.26a1.22,1.22,0,0,0-1.43.48c-1,1.22-2,2.39-2.9,3.68-1.29,1.94-2.46,3.95-3.62,6a14.53,14.53,0,0,0-1.07,2.46c-.57,1.69-1.6,3.2-1.88,5a12.28,12.28,0,0,1-1.1,2.58,3.43,3.43,0,0,0-.3,1.16c0,1.07.73,1.51,1.7,1.07s2.18-.95,3.26-1.45a5.73,5.73,0,0,0,1-.64c2.26-1.69,4.45-3.46,6.77-5.06a39.72,39.72,0,0,0,6.4-5.67,2.9,2.9,0,0,1,2.9-1,2.77,2.77,0,0,0,1.06.12,1.24,1.24,0,0,0,.82-.53c.43-1,.7-2,1.15-3a24,24,0,0,1,1.36-2.28,21.91,21.91,0,0,1,5.46-6,14.5,14.5,0,0,1,6.78-3.05c1.67-.23,3.54-.29,4.89,1.23a3.1,3.1,0,0,0,.88.62c.69.36,1,.23,1.34-.51a14,14,0,0,1,2.35-3.53,2.37,2.37,0,0,1,2.47-.71,6.2,6.2,0,0,1,3.38,2.5,1.23,1.23,0,0,1-.16,1.49,58.09,58.09,0,0,0-3.44,5.13c-1,1.87-1.77,3.89-2.63,5.85a27.3,27.3,0,0,0-1.54,5.42,28.92,28.92,0,0,0-.68,6.68,24.39,24.39,0,0,0,.52,3.57.6.6,0,0,0,.9.5,2.37,2.37,0,0,0,.88-.58c1.32-1.46,2.6-3,3.9-4.43Zm-23.29,3c1.65.6,3.17-.91,4.53-1.92a37.55,37.55,0,0,0,4.15-4.62c.5-.81,2.16-4.23,2.34-4.73.32-.88.62-1.76.89-2.66a8.87,8.87,0,0,0,.44-1.95,2.79,2.79,0,0,0-3-2.88,8.35,8.35,0,0,0-3.79,1.58,22.46,22.46,0,0,0-3,3.76,23.66,23.66,0,0,0-1.66,2.9C216.66,132.56,214.23,141.41,216.22,142.13Z"/><path class="cls-2" d="M49.3,83.19c-1.79,4.1-4.39,7.54-6.21,11.66a12.21,12.21,0,0,0,1.3.16,50.62,50.62,0,0,1,11,1,40.09,40.09,0,0,1,5.29,1.43A15.85,15.85,0,0,1,67.26,102c.07.08.06.23.09.41a2.45,2.45,0,0,1-2.18-.16A45.18,45.18,0,0,0,57.86,100,61.52,61.52,0,0,0,46.09,98.7a25.33,25.33,0,0,0-4.25.31,1.9,1.9,0,0,0-1.16.78c-.74,1.2-1.37,2.47-2,3.71-.46.86-.91,1.72-1.38,2.58-.13.25-.38.48-.4.74-.14,1.58-1.42,1.72-2.53,2a7.91,7.91,0,0,1-2.07.09.78.78,0,0,1-.69-1.27c.61-1,1.28-2,1.95-2.93s1.51-2.1,2.24-3.16c.34-.5.16-.88-.42-1a2.26,2.26,0,0,0-1,0,22.6,22.6,0,0,0-2.81,1.07,3.08,3.08,0,0,0-1.24,1.13c-.77,1.37-1.46,2.79-2.14,4.21-.85,1.76-1.68,3.52-2.47,5.3-.55,1.27-1,2.56-1.52,3.86-.64,1.75-1.3,3.5-1.85,5.28-.46,1.48-.8,3-1.15,4.5-.13.58.09.84.7.89a2.71,2.71,0,0,0,.84-.09l5.77-1.47c1.85-.48,3.69-1,5.55-1.42,1.06-.26,2.13-.45,3.2-.69s2.44-.57,3.66-.84c.86-.2,1.73-.4,2.61-.55,1.92-.33,3.85-.64,5.77-1,1.14-.18,1.49.14,1.13,1.26a5.05,5.05,0,0,1-3.4,3.65c-1.67.49-3.33,1-5,1.51-1.44.4-2.9.75-4.36,1.11-1.22.3-2.44.58-3.67.86-2,.45-4,.89-6.06,1.35-.59.14-1.17.32-1.76.49l-5.48,1.55a1.11,1.11,0,0,0-.9,1c-.38,3-.93,6-1.13,9-.22,3.37-.18,6.76-.16,10.14a32,32,0,0,0,.42,4.24,38.54,38.54,0,0,0,.85,4.68A27.07,27.07,0,0,0,21.23,165c.75,1.75,1.52,3.49,2.19,5.26a31.19,31.19,0,0,1,.84,3.05,1.58,1.58,0,0,1-.47,1.87c-.49.38-.43.86-.09,1.4a37.3,37.3,0,0,1,2.06,3.58c.55,1.13.35,1.63-.69,2.37-.53.37-1.07.74-1.63,1.07a1.22,1.22,0,0,1-1.75-.18,17.09,17.09,0,0,1-3.76-5.77,44.58,44.58,0,0,1-2-6.13c-.53-2.08-.72-4.24-1.16-6.34a42.16,42.16,0,0,0-1.27-4.69c-.86-2.5-1.85-4.95-2.75-7.43-.72-2-1.46-4-2-6A31.73,31.73,0,0,1,7,137.91c0-1-.18-1.18-1.14-1.16a5,5,0,0,1-4-1.81c-.81-.88-.7-1.54.4-2.07q1.38-.65,2.82-1.17c.95-.35,1.18-.56,1.24-1.54a16.26,16.26,0,0,0,0-1.71,28.56,28.56,0,0,1,1.27-10.6,29.12,29.12,0,0,1,1.81-4.77,27.22,27.22,0,0,1,3.12-4.63,24.62,24.62,0,0,1,7.17-6,33.59,33.59,0,0,1,6.66-2.9,5.68,5.68,0,0,0,3.18-2.8,51.1,51.1,0,0,1,6-8.11,29.73,29.73,0,0,1,6.35-5.49c1.77-1.09,3.61-1.67,5.65-.7C48,82.74,48.59,82.92,49.3,83.19ZM23.66,105.35a3.67,3.67,0,0,0-.66.29c-.75.55-1.48,1.12-2.22,1.68a19.51,19.51,0,0,0-5.52,6.41,29.17,29.17,0,0,0-3.52,9.94,46.76,46.76,0,0,0-.32,4.74c0,.89.39,1.15,1.24.9s1.77-.59,2.67-.85a1.86,1.86,0,0,0,1.46-1.59c.34-1.71.79-3.4,1.2-5.1.28-1.18.5-2.39.88-3.54q.86-2.61,1.91-5.14c.8-1.94,1.7-3.85,2.56-5.77a6.82,6.82,0,0,0,.45-1.13A2.42,2.42,0,0,0,23.66,105.35Zm12.44-9.8a16.48,16.48,0,0,0,2.07,0,9.32,9.32,0,0,0,2-.43,2.68,2.68,0,0,0,1.19-.76c.66-.8,1.24-1.68,1.83-2.55A14.06,14.06,0,0,0,45.78,86a1.12,1.12,0,0,0-.25-.93,1.12,1.12,0,0,0-1,.1A8.75,8.75,0,0,0,43,86.56c-2.06,2.33-4.12,4.66-6.1,7.06C36.48,94.11,35.78,94.65,36.1,95.55Zm-23.28,48.2.4-.06a4.27,4.27,0,0,0,.28-1.09c0-1.66-.09-3.33-.07-5A2,2,0,0,0,12,135.49c-.6-.22-1-.07-1.05.56a3.63,3.63,0,0,0,0,1.09c.21,1.44.45,2.89.7,4.32a4.16,4.16,0,0,0,.34,1.17A8.67,8.67,0,0,0,12.82,143.75Z"/><path class="cls-2" d="M257.54,179.83a11.3,11.3,0,0,1-4.37-1.39,4.87,4.87,0,0,1-1.81-1.91,11.76,11.76,0,0,1-1.43-6,19.3,19.3,0,0,1,2-7.72c.48-1,.78-2.06,1.29-3,.73-1.4,1.53-2.77,2.38-4.1a99.23,99.23,0,0,1,7.79-10.46c.54-.65,1.15-1.26,1.71-1.9a1.43,1.43,0,0,0,.33-1.57,25.14,25.14,0,0,1-.77-2.56c-.49-2-1.07-3.92-1.41-5.91a36.69,36.69,0,0,1-.65-9.81A13.66,13.66,0,0,1,265,116.3a8.88,8.88,0,0,1,5.75-3.77c.32,0,.61-.23.93-.28,1.47-.22,2.86-.28,4.11.85a8.3,8.3,0,0,1,2.37,3.33c.35,1,.06,1.35-.95,1.52a12.88,12.88,0,0,0-4,1,12.47,12.47,0,0,0-2.72,1.8,6.29,6.29,0,0,0-1.78,3.64,20.37,20.37,0,0,0-.1,5.35,30.84,30.84,0,0,0,1.57,6.24c.33,1.06.56,1.09,1.41.35,1.19-1,2.36-2.11,3.55-3.16.83-.73,1-.77,1.54-.35a1.7,1.7,0,0,1,.62,2.15,2.19,2.19,0,0,1-.37.48c-1.51,1.6-3,3.21-4.56,4.76a1.57,1.57,0,0,0-.59,1.6c.33,1.51.63,3,.93,4.53.4,2,.75,4,1.2,6a58.72,58.72,0,0,1,1.07,8.34,15.5,15.5,0,0,1-.84,6.61c-.52,1.41-1,2.83-1.64,4.19a15.61,15.61,0,0,1-4.27,5.38,13,13,0,0,1-4.52,2.56A13.23,13.23,0,0,1,257.54,179.83Zm11.16-16a28.32,28.32,0,0,0,.05-8.22c-.14-1.74-.5-3.46-.81-5.18a21.19,21.19,0,0,0-.68-2.83,1,1,0,0,0-1.88-.33c-.43.54-.83,1.1-1.22,1.67-.63.9-1.24,1.81-1.86,2.72-.9,1.34-1.86,2.65-2.67,4.05s-1.58,3-2.31,4.56a18.07,18.07,0,0,0-1.78,4.91c-.38,2.36-.92,4.73,0,7.11.95,2.58,1.81,3.42,4.18,3.65a5.1,5.1,0,0,0,3.46-1,11.82,11.82,0,0,0,4.1-5.05A15.76,15.76,0,0,0,268.7,163.83Z"/><path class="cls-2" d="M76.79,134.2a29.61,29.61,0,0,1-7,6.4,26.46,26.46,0,0,1-5.51,2.8,33,33,0,0,1-6,1.52,47.17,47.17,0,0,1-8.65,0c-.93,0-1.18.11-1.39,1-.4,1.74-.84,3.48-1.13,5.25-.56,3.41-1.22,6.82-1.5,10.27a65.13,65.13,0,0,0-.4,10.73,27.9,27.9,0,0,1,0,3.42c0,1-.28,1.14-1.25,1.52a3.22,3.22,0,0,1-2.6-.06,1.21,1.21,0,0,1-.82-1.22c-.08-2.44-.22-4.87-.28-7.31a73.67,73.67,0,0,1,1.19-14.22c.53-3.09,1.14-6.17,1.91-9.21a69.72,69.72,0,0,1,3.08-9.64c.51-1.23.92-2.51,1.44-3.75s1-2.28,1.62-3.4c.72-1.41,1.48-2.8,2.25-4.18a37.89,37.89,0,0,1,5-6.86,1.18,1.18,0,0,1,.62-.37c1.62-.19,3.25-.33,4.73.6.1.06.16.18.3.35l-1.21,1.74a4.1,4.1,0,0,0-.36.49c-.36.68-.13,1.1.64,1.13a32,32,0,0,1,3.54.11,30.22,30.22,0,0,1,5,1.05c2.12.69,2.89,2.56,2.37,4.77-.39,1.69-1.61,2.8-2.59,4.06a24.82,24.82,0,0,1-4.78,4.13,42.8,42.8,0,0,1-4.84,2.73,10.72,10.72,0,0,1-2.75.87,24.59,24.59,0,0,0-2.39.76.72.72,0,0,0-.34.57c0,.19.23.53.37.53,1.17,0,2.37.77,3.52-.11a1.1,1.1,0,0,1,.57-.21A12.13,12.13,0,0,0,64,139a27.07,27.07,0,0,0,4.87-2.94c1.28-.93,2.52-1.92,3.74-2.92a2.37,2.37,0,0,1,2.11-.21A3,3,0,0,1,76.79,134.2Zm-11-7.36a2.55,2.55,0,0,0-2.11-1.49,13.52,13.52,0,0,0-5.19.28,1.33,1.33,0,0,0-.78.51c-.91,1.23-1.85,2.45-2.65,3.76-.9,1.48-1.66,3-2.49,4.57-.43.8-.31,1,.56,1.27A5.18,5.18,0,0,0,57,135a25.24,25.24,0,0,0,5.81-4.18A11.08,11.08,0,0,0,65.78,126.84Z"/><path class="cls-2" d="M244.32,133.75c.22-1.36.4-2.74.69-4.09.16-.7.6-1.34.8-2a18.14,18.14,0,0,1,3.12-5.87,25.74,25.74,0,0,1,5.11-5.21,2.45,2.45,0,0,1,2.65.07,24.82,24.82,0,0,1,2.72,1.6c.66.41.63.64.08,1.19A57.19,57.19,0,0,0,255.1,124a22.67,22.67,0,0,0-4.82,14,5.6,5.6,0,0,0,.26,1.56,1,1,0,0,0,.5.58c.13.06.44-.16.57-.33.55-.71,1.08-1.43,1.58-2.17.85-1.23,1.66-2.5,2.51-3.73.62-.9,1.27-1.77,1.91-2.65.34-.47.68-1,1.39-.66a2,2,0,0,1,1,1.7,8.69,8.69,0,0,1-.36,1.92c-.5,1.32-1.13,2.59-1.64,3.91a31.09,31.09,0,0,1-3,5.24,4.72,4.72,0,0,1-4.88,2.24,9,9,0,0,1-3.63-1.29,3.84,3.84,0,0,1-1.75-3.16,21.32,21.32,0,0,1-.35-7.17l0-.24Z"/><path class="cls-2" d="M262.06,112.47a6.82,6.82,0,0,1-4.09-1.93,2,2,0,0,1-.16-3,20,20,0,0,1,2.35-2.84,15,15,0,0,1,5.61-3.52,4.36,4.36,0,0,1,4,.58,3.76,3.76,0,0,1,1.69,1.61c.36.89.33,1.06-.49,1.48a15.6,15.6,0,0,0-2.26,1.27,11.44,11.44,0,0,0-4.42,5.74.81.81,0,0,1-.86.67C263,112.53,262.53,112.49,262.06,112.47Z"/><path class="cls-2" d="M2.78,46v-1.6A10.18,10.18,0,0,0,5.22,43a1.57,1.57,0,0,0,.43-.71A17.29,17.29,0,0,0,6,38.55c.08-2.82.12-4.49.12-5V16.91q0-4.19-.09-8.21A9.56,9.56,0,0,0,5.6,5.23a2.06,2.06,0,0,0-1.14-.8A21.58,21.58,0,0,0,0,4.11v-2c5,.16,8.13.25,9.32.25s4.27-.09,8.86-.25v2a21.58,21.58,0,0,0-4.46.32,2.1,2.1,0,0,0-1.1.72,8,8,0,0,0-.46,3q0,.62-.12,8.76V37.66q0,3.24.12,5.28c2.35.14,4.67.21,7,.21q8.7,0,12.19-1.11A14.74,14.74,0,0,0,32,39.91l1.23-5.12h2.07q-.68,4.59-1.33,10.8c-.84.16-1.51.27-2,.31-1.07.06-2.72.09-4.94.09L8.8,45.74C6.82,45.74,4.82,45.83,2.78,46Z"/><path class="cls-2" d="M44.17,24.85l-1.64-.43q0-.72,0-2t0-2.07A32.71,32.71,0,0,1,49,17a13.14,13.14,0,0,1,4.29-.65,12.18,12.18,0,0,1,5.93,1.32,8.33,8.33,0,0,1,3.58,3.8,11.33,11.33,0,0,1,.8,4.72l-.12,5.65V41a6.37,6.37,0,0,0,.25,2.13,1.27,1.27,0,0,0,.58.68,3.4,3.4,0,0,0,1.3.25l2,.18V46c-1.69-.14-3.17-.22-4.45-.22s-2.88.08-4.94.22l.16-5.43q-6.3,4.75-7.47,5.35a6.48,6.48,0,0,1-3,.61,8.05,8.05,0,0,1-5.81-2A7,7,0,0,1,40,39.23a10,10,0,0,1,.73-3.89,8.55,8.55,0,0,1,1.74-2.79A7.36,7.36,0,0,1,44.54,31a33.76,33.76,0,0,1,5.82-1.79,68.94,68.94,0,0,1,8-1.42,11.16,11.16,0,0,0-.71-4.57,6.06,6.06,0,0,0-2.5-2.68,8.27,8.27,0,0,0-4.29-1,9.44,9.44,0,0,0-3.2.49,5.18,5.18,0,0,0-1.68.83L45.4,22C44.85,23.18,44.44,24.15,44.17,24.85Zm14.17,4.84a60.72,60.72,0,0,0-6.85,1.52,13,13,0,0,0-4,1.72,4.35,4.35,0,0,0-1.23,1.58,7.25,7.25,0,0,0-.8,3.42A4.86,4.86,0,0,0,46.7,41.5a4.74,4.74,0,0,0,3.52,1.28,8,8,0,0,0,4.09-1.19,16.13,16.13,0,0,0,4-3.56Z"/><path class="cls-2" d="M99.54,46.3q-.92-2.69-3.85-10.37L85.19,10a51,51,0,0,0-2.07-4.78,1.53,1.53,0,0,0-.77-.59A12.68,12.68,0,0,0,79,4.11v-2c3.72.16,6.47.25,8.24.25s4.49-.09,8.49-.25V4.32c-2.52,0-4,.09-4.37.16a1.43,1.43,0,0,0-.84.35.92.92,0,0,0-.23.6A7.28,7.28,0,0,0,90.69,7c.88,2.73,1.65,4.94,2.31,6.6L102.66,38l8.06-20.22q1.75-4.35,3.36-9.48a14.1,14.1,0,0,0,.68-2.71,1,1,0,0,0-.8-1,33.85,33.85,0,0,0-4.75-.52v-2c3.1.12,5.44.18,7,.18s3.82-.06,6.64-.18v2a11.17,11.17,0,0,0-2.81.3,2.25,2.25,0,0,0-.87.87c-.18.31-.94,2-2.28,5L107.26,34l-2.38,6.08q-.73,1.83-1.2,3.15t-1,3.09Z"/><path class="cls-2" d="M128.47,20.62V18.86a32.42,32.42,0,0,0,10.06-2.59l.68.49C139,21.14,139,24.5,139,26.82v5.62q.15,8,.19,8.67a6.61,6.61,0,0,0,.33,2.26,1.87,1.87,0,0,0,.41.48,1.9,1.9,0,0,0,.74.32q.18,0,3.42.09V46c-3.12-.14-5.63-.22-7.5-.22-1.64,0-4.34.08-8.08.22V44.26l2.93,0a2.34,2.34,0,0,0,1-.23,1.33,1.33,0,0,0,.54-.51,5.55,5.55,0,0,0,.43-2.19c0-.27.07-3.22.19-8.86V27a25.35,25.35,0,0,0-.31-5.47,1.27,1.27,0,0,0-.66-.69A18.27,18.27,0,0,0,128.47,20.62ZM136,2.53a3.31,3.31,0,0,1,2.45,1,3.38,3.38,0,0,1,1,2.47,3.35,3.35,0,0,1-1,2.44,3.46,3.46,0,0,1-4.91,0,3.32,3.32,0,0,1-1-2.44,3.36,3.36,0,0,1,1-2.47A3.36,3.36,0,0,1,136,2.53Z"/><path class="cls-2" d="M147.05,46V44.2l2.9,0a2.38,2.38,0,0,0,1-.23,1.33,1.33,0,0,0,.54-.51,5.31,5.31,0,0,0,.4-2.19c0-.27.1-3.22.22-8.85V19.59c0-3.44-.06-7-.19-10.65a20.9,20.9,0,0,0-.33-4.13.89.89,0,0,0-.5-.43,20.31,20.31,0,0,0-4.26-.22V2.34q7-.85,9.69-2.15a1.59,1.59,0,0,1,.62-.19.43.43,0,0,1,.34.14.56.56,0,0,1,.12.38,4.48,4.48,0,0,1-.06.62l0,1q-.15,5.52-.18,9.41l-.07,4.81v16q.17,8,.19,8.66a5.8,5.8,0,0,0,.37,2.26,1.29,1.29,0,0,0,.37.47,1.82,1.82,0,0,0,.74.33c.15,0,1.29,0,3.43.09V46c-2.8-.16-5.26-.25-7.38-.25S150.34,45.83,147.05,46Z"/><path class="cls-2" d="M165.44,46V44.2l2.9,0a2.43,2.43,0,0,0,1-.23,1.33,1.33,0,0,0,.54-.51,5.31,5.31,0,0,0,.4-2.19q0-.41.22-8.85V19.59c0-3.44-.07-7-.19-10.65A19.64,19.64,0,0,0,170,4.81a.87.87,0,0,0-.49-.43,20.31,20.31,0,0,0-4.26-.22V2.34q7-.85,9.69-2.15a1.54,1.54,0,0,1,.62-.19.46.46,0,0,1,.34.14.56.56,0,0,1,.12.38,4.48,4.48,0,0,1-.06.62l0,1q-.16,5.52-.19,9.41l-.06,4.81v16c.1,5.34.17,8.23.19,8.66a5.8,5.8,0,0,0,.37,2.26,1.19,1.19,0,0,0,.37.47,1.76,1.76,0,0,0,.74.33q.21,0,3.42.09V46c-2.79-.16-5.25-.25-7.37-.25S168.74,45.83,165.44,46Z"/><path class="cls-2" d="M209.52,41.21l-1,2.22a30.45,30.45,0,0,1-3.11,1.76,18.74,18.74,0,0,1-3.32,1.09,16.81,16.81,0,0,1-3.94.45,15.78,15.78,0,0,1-7.37-1.7A11.88,11.88,0,0,1,185.67,40,16.42,16.42,0,0,1,183.84,32a19.79,19.79,0,0,1,1-6.41A12.26,12.26,0,0,1,187,21.42a16.12,16.12,0,0,1,2.78-2.27,19.57,19.57,0,0,1,3.73-2,13.58,13.58,0,0,1,5.28-1,12.51,12.51,0,0,1,6.25,1.58A9.61,9.61,0,0,1,209.15,22a14.15,14.15,0,0,1,1.3,6.14,19.54,19.54,0,0,1-.13,2.1,32.4,32.4,0,0,1-4,.55Q203,31,199.66,31h-9.92a15.67,15.67,0,0,0,1.52,7.15,9.25,9.25,0,0,0,4.05,4,11.67,11.67,0,0,0,5.35,1.3,12.15,12.15,0,0,0,3.75-.6A24.41,24.41,0,0,0,209,40.68ZM189.74,28.55c.57.06,1.67.12,3.27.19q4.62.15,6.34.15c2.75,0,4.55-.05,5.42-.15q0-.75,0-1.14,0-4.86-2-7.14a6.65,6.65,0,0,0-5.29-2.28,7,7,0,0,0-5.63,2.49C190.48,22.34,189.76,25,189.74,28.55Z"/><path class="cls-2" d="M214,21.79V20.5c2.05-.79,3.69-1.49,4.9-2.1q0-7.35-.18-9.39a25.48,25.48,0,0,0,5.21-2.37l.75.61q-.35,2.57-.75,11.3l3,0,3.18-.06q1.6,0,2.4-.12l.22.21L232,21.48l-3.58,0-4.54,0-.18,12.57a47.75,47.75,0,0,0,.06,5.49,4,4,0,0,0,.59,1.56,3.25,3.25,0,0,0,1.12,1.06,6.72,6.72,0,0,0,2.37.62,14.4,14.4,0,0,0,2-.11,10.08,10.08,0,0,0,2-.54l.37,1.21c-1,.76-1.9,1.55-2.81,2.37a10.15,10.15,0,0,1-2.19.57,16.4,16.4,0,0,1-2.35.14,7.45,7.45,0,0,1-2.61-.37,6.17,6.17,0,0,1-1.77-1,5.19,5.19,0,0,1-1.33-1.68,8.89,8.89,0,0,1-.68-3.21c0-1.4.07-2.94.13-4.6q0-.49,0-1.08V21.64h-1.27Q215.88,21.64,214,21.79Z"/><path class="cls-2" d="M234.58,21.79V20.5q3.09-1.18,4.91-2.1,0-7.35-.18-9.39a25.48,25.48,0,0,0,5.21-2.37l.74.61q-.33,2.57-.74,11.3l3,0,3.18-.06q1.61,0,2.4-.12l.22.21-.65,2.87-3.58,0-4.54,0-.18,12.57a47.75,47.75,0,0,0,.06,5.49A4,4,0,0,0,245,41.1a3.16,3.16,0,0,0,1.12,1.06,6.72,6.72,0,0,0,2.36.62,14.46,14.46,0,0,0,2.06-.11,10.26,10.26,0,0,0,2-.54l.37,1.21c-1,.76-1.91,1.55-2.81,2.37a10.15,10.15,0,0,1-2.19.57,16.4,16.4,0,0,1-2.35.14,7.45,7.45,0,0,1-2.61-.37,6.17,6.17,0,0,1-1.77-1,5.19,5.19,0,0,1-1.33-1.68,8.89,8.89,0,0,1-.68-3.21c0-1.4.06-2.94.13-4.6q0-.49,0-1.08V21.64H238C237,21.64,235.86,21.69,234.58,21.79Z"/><path class="cls-2" d="M281,41.21l-1,2.22a29.27,29.27,0,0,1-3.12,1.76,18.21,18.21,0,0,1-3.32,1.09,16.66,16.66,0,0,1-3.93.45,15.75,15.75,0,0,1-7.37-1.7A12,12,0,0,1,257.18,40,16.54,16.54,0,0,1,255.36,32a19.79,19.79,0,0,1,1-6.41,12.09,12.09,0,0,1,2.21-4.21,16,16,0,0,1,2.77-2.27,19.64,19.64,0,0,1,3.74-2,13.5,13.5,0,0,1,5.28-1,12.51,12.51,0,0,1,6.25,1.58A9.67,9.67,0,0,1,280.67,22,14.14,14.14,0,0,1,282,28.12q0,.87-.12,2.1a32.28,32.28,0,0,1-4,.55c-2.22.17-4.45.25-6.67.25h-9.93a15.54,15.54,0,0,0,1.53,7.15,9.28,9.28,0,0,0,4,4,11.74,11.74,0,0,0,5.36,1.3,12.24,12.24,0,0,0,3.75-.6,24.66,24.66,0,0,0,4.61-2.21ZM261.25,28.55c.58.06,1.67.12,3.28.19,3.07.1,5.19.15,6.34.15,2.74,0,4.55-.05,5.41-.15,0-.5,0-.88,0-1.14q0-4.86-2-7.14a6.66,6.66,0,0,0-5.29-2.28,7,7,0,0,0-5.63,2.49C262,22.34,261.27,25,261.25,28.55Z"/><path class="cls-3" d="M141.47,81.8V81a6.07,6.07,0,0,0,1.17-.07,1.1,1.1,0,0,0,.43-.25,3.85,3.85,0,0,0,.57-1c.14-.29.66-1.41,1.55-3.35l3-6.74c.33-.74,1-2.39,2.09-4.95h.78l5.1,12c.83,1.94,1.38,3.16,1.65,3.65a1.23,1.23,0,0,0,.49.55,3.35,3.35,0,0,0,1.22.14v.82c-1.25-.08-2.11-.12-2.61-.12l-3.84.12V81a12.2,12.2,0,0,0,1.62-.08.79.79,0,0,0,.39-.17.4.4,0,0,0,.1-.28,1.92,1.92,0,0,0-.17-.68l-1.47-3.66h-6.91l-1.31,3.07a3.56,3.56,0,0,0-.34,1.21.4.4,0,0,0,.09.27.71.71,0,0,0,.41.22A8.65,8.65,0,0,0,147,81v.82c-1.34-.08-2.35-.11-3-.11S142.38,81.72,141.47,81.8ZM147,75.09h6l-3-7.2Z"/><path class="cls-3" d="M170.45,80.42l-.48.8a7.1,7.1,0,0,1-1.63.65,7.74,7.74,0,0,1-1.82.2,5.35,5.35,0,0,1-4-1.51A5.67,5.67,0,0,1,161,76.41a6.65,6.65,0,0,1,.4-2.43,4.33,4.33,0,0,1,1-1.6,7.68,7.68,0,0,1,1.5-1,15.59,15.59,0,0,1,1.55-.81,5,5,0,0,1,1.95-.34,7.2,7.2,0,0,1,1.93.23,4,4,0,0,1,1.1.47c-.1.62-.16,1.08-.2,1.39s-.09.89-.16,1.72h-.68a14.09,14.09,0,0,0-.14-1.45.66.66,0,0,0-.22-.32,4.17,4.17,0,0,0-1.1-.58,4.38,4.38,0,0,0-1.48-.24,3.45,3.45,0,0,0-1.74.41,2.69,2.69,0,0,0-1.14,1.31,5.37,5.37,0,0,0-.4,2.22,7.34,7.34,0,0,0,.57,2.94,4.1,4.1,0,0,0,1.56,1.92,4.15,4.15,0,0,0,2.2.6,4.68,4.68,0,0,0,1.19-.15,9.34,9.34,0,0,0,1.49-.57Z"/><path class="cls-3" d="M173.53,73.61l-.63-.16c0-.19,0-.44,0-.76s0-.6,0-.8a13.45,13.45,0,0,1,2.48-1.34A5.41,5.41,0,0,1,177,70.3a4.74,4.74,0,0,1,2.3.52,3.17,3.17,0,0,1,1.38,1.47,4.32,4.32,0,0,1,.31,1.82l0,2.19v3.56a2.75,2.75,0,0,0,.09.83.58.58,0,0,0,.23.26,1.18,1.18,0,0,0,.5.09l.78.08v.68c-.66-.06-1.23-.09-1.72-.09s-1.12,0-1.91.09l.06-2.11c-1.63,1.23-2.59,1.92-2.9,2.08A2.54,2.54,0,0,1,175,82a3.12,3.12,0,0,1-2.25-.77,2.7,2.7,0,0,1-.81-2,3.9,3.9,0,0,1,.28-1.51,3.5,3.5,0,0,1,.67-1.08,3,3,0,0,1,.81-.59,13.58,13.58,0,0,1,2.25-.69,26.4,26.4,0,0,1,3.09-.55,4.42,4.42,0,0,0-.28-1.77,2.3,2.3,0,0,0-1-1,3.17,3.17,0,0,0-1.66-.4,3.53,3.53,0,0,0-1.23.19,1.77,1.77,0,0,0-.66.32l-.21.43C173.79,73,173.64,73.34,173.53,73.61ZM179,75.49a23.86,23.86,0,0,0-2.66.58,5.16,5.16,0,0,0-1.55.67,1.81,1.81,0,0,0-.48.61,2.93,2.93,0,0,0-.31,1.33,1.9,1.9,0,0,0,.49,1.38,1.83,1.83,0,0,0,1.36.49,3.09,3.09,0,0,0,1.59-.46A6,6,0,0,0,179,78.71Z"/><path class="cls-3" d="M191.28,65.57v-.68a20.44,20.44,0,0,0,2.24-.34,17.43,17.43,0,0,0,1.79-.48l.16.11c0,.67-.07,2-.11,3.91L195.31,70v7.47c0,.82,0,1.52,0,2.11a3.3,3.3,0,0,0,.15,1.07.82.82,0,0,0,.36.28,7.48,7.48,0,0,0,1.49.21v.65c-1-.06-1.65-.09-2-.09s-1,0-2.1.09c0-.55,0-1.29.06-2.23-.32.24-.75.58-1.29,1s-1,.84-1.26,1.14A7.05,7.05,0,0,1,189,82a4.89,4.89,0,0,1-2.49-.67,4.47,4.47,0,0,1-1.75-1.94,6.49,6.49,0,0,1-.61-2.86,6.84,6.84,0,0,1,.37-2.27,4.46,4.46,0,0,1,.95-1.65,8.48,8.48,0,0,1,1.47-1,17.79,17.79,0,0,1,1.86-1,3.77,3.77,0,0,1,1.55-.31,5.59,5.59,0,0,1,1.47.19,6,6,0,0,1,1.41.56V67.9a7.58,7.58,0,0,0-.15-2,.33.33,0,0,0-.18-.19A6.9,6.9,0,0,0,191.28,65.57Zm2,7.52a5.33,5.33,0,0,0-1.71-1.31,4,4,0,0,0-1.75-.41,3.35,3.35,0,0,0-1.8.5,3.14,3.14,0,0,0-1.26,1.52,6.13,6.13,0,0,0-.44,2.43,5,5,0,0,0,1.09,3.42A3.37,3.37,0,0,0,190,80.47a3,3,0,0,0,1.43-.33,3.42,3.42,0,0,0,1.11-1,3.3,3.3,0,0,0,.61-1.44,20.5,20.5,0,0,0,.1-2.59Z"/><path class="cls-3" d="M208.67,79.94l-.39.86a11.2,11.2,0,0,1-1.2.69,8.5,8.5,0,0,1-1.29.42,6.67,6.67,0,0,1-4.37-.48,4.72,4.72,0,0,1-2-2,6.34,6.34,0,0,1-.7-3.06,7.65,7.65,0,0,1,.37-2.48,4.61,4.61,0,0,1,.86-1.63,6,6,0,0,1,1.07-.88,7.64,7.64,0,0,1,1.45-.78,5.12,5.12,0,0,1,2-.4,4.91,4.91,0,0,1,2.42.61,3.72,3.72,0,0,1,1.58,1.66,5.4,5.4,0,0,1,.51,2.38c0,.22,0,.49-.05.81a13.07,13.07,0,0,1-1.55.22q-1.29.09-2.58.09H201a6.09,6.09,0,0,0,.59,2.77,3.64,3.64,0,0,0,1.57,1.56,4.58,4.58,0,0,0,2.07.5,4.88,4.88,0,0,0,1.45-.23,9.64,9.64,0,0,0,1.79-.86ZM201,75.05l1.27.07c1.19,0,2,.06,2.45.06q1.59,0,2.1-.06c0-.19,0-.34,0-.44a4.17,4.17,0,0,0-.77-2.77,2.59,2.59,0,0,0-2-.88,2.7,2.7,0,0,0-2.18,1A4.69,4.69,0,0,0,201,75.05Zm2.22-5.83h-1l3.43-3.54a3.18,3.18,0,0,1,.67-.58.93.93,0,0,1,.47-.11,1,1,0,0,1,.72.27.9.9,0,0,1,.27.67.8.8,0,0,1-.16.49A2.6,2.6,0,0,1,207,67Z"/><path class="cls-3" d="M210.34,81.8v-.67h1.13a.93.93,0,0,0,.39-.09.67.67,0,0,0,.21-.2,2.07,2.07,0,0,0,.17-.85c0-.1,0-1.25.07-3.43V75.12c0-.63,0-1.32,0-2.05a2.71,2.71,0,0,0-.11-.84.48.48,0,0,0-.27-.2,9.1,9.1,0,0,0-1.55,0V71.3a12.53,12.53,0,0,0,3.51-.88.94.94,0,0,1,.33-.12.18.18,0,0,1,.13.06.3.3,0,0,1,0,.18,1.28,1.28,0,0,1,0,.19c0,.39-.05,1-.07,1.71L215.84,71a2.25,2.25,0,0,1,.37-.3,3.61,3.61,0,0,1,.79-.29,4.7,4.7,0,0,1,1.08-.13,3.81,3.81,0,0,1,2,.56,3.62,3.62,0,0,1,1.38,1.66l1.31-1.21a5,5,0,0,1,.61-.51,3.65,3.65,0,0,1,.89-.33,4.47,4.47,0,0,1,1.13-.16,3.58,3.58,0,0,1,2.28.73,3.16,3.16,0,0,1,1.18,1.64,12,12,0,0,1,.17,2.63v1.25l0,1.66c0,1,0,1.53,0,1.7a2.63,2.63,0,0,0,.15.87.53.53,0,0,0,.15.19.72.72,0,0,0,.29.12l1.31,0v.67c-1,0-1.69-.08-2-.08s-1.06,0-2.12.08l.11-3.3,0-1.29v-1a11.71,11.71,0,0,0-.21-2.74,2.08,2.08,0,0,0-.85-1.19,2.59,2.59,0,0,0-1.51-.45,3,3,0,0,0-1.79.57,2.11,2.11,0,0,0-.79,1,9.07,9.07,0,0,0-.19,2.33v.81l0,1.66c0,1,0,1.53,0,1.7a2.43,2.43,0,0,0,.14.87A.53.53,0,0,0,222,81a.67.67,0,0,0,.28.12l1.33,0v.67c-1.17-.07-2.11-.1-2.82-.1s-1.62,0-3.13.1v-.67h1.13a.94.94,0,0,0,.4-.09.51.51,0,0,0,.21-.2,2.1,2.1,0,0,0,.16-.85c0-.1,0-1.25.07-3.43v-.94a7.6,7.6,0,0,0-.24-2.25,2.2,2.2,0,0,0-.84-1.14,2.44,2.44,0,0,0-1.43-.42,3.14,3.14,0,0,0-1.36.3,2.71,2.71,0,0,0-1,.76,2.09,2.09,0,0,0-.42,1,14.06,14.06,0,0,0-.12,2v.73c0,2.07.07,3.19.07,3.36a2.63,2.63,0,0,0,.15.87.49.49,0,0,0,.14.19.71.71,0,0,0,.3.12l1.31,0v.67c-1.1-.07-2-.1-2.8-.1S211.72,81.73,210.34,81.8Z"/><path class="cls-3" d="M232,72V71.3a12.45,12.45,0,0,0,3.9-1l.26.19Q236,73,236,74.38v2.17c0,2.07.06,3.19.07,3.36a2.48,2.48,0,0,0,.13.87.7.7,0,0,0,.16.19.67.67,0,0,0,.28.12l1.33,0v.67c-1.21-.06-2.18-.09-2.9-.09s-1.69,0-3.14.09v-.67h1.14a.93.93,0,0,0,.39-.09.67.67,0,0,0,.21-.2,2.29,2.29,0,0,0,.16-.85c0-.1,0-1.25.08-3.43v-2.1a10,10,0,0,0-.12-2.12.55.55,0,0,0-.26-.26A6.93,6.93,0,0,0,232,72Zm2.92-7a1.33,1.33,0,0,1,1.34,1.35,1.35,1.35,0,0,1-1.34,1.33,1.34,1.34,0,0,1-1-.39,1.35,1.35,0,0,1,0-1.9A1.34,1.34,0,0,1,234.89,65Z"/><path class="cls-3" d="M249.11,79.94l-.39.86a12.3,12.3,0,0,1-1.2.69,8.89,8.89,0,0,1-1.29.42,6.67,6.67,0,0,1-4.37-.48,4.72,4.72,0,0,1-2-2,6.34,6.34,0,0,1-.7-3.06,7.65,7.65,0,0,1,.37-2.48,4.61,4.61,0,0,1,.86-1.63,6,6,0,0,1,1.07-.88,7.64,7.64,0,0,1,1.45-.78,5.12,5.12,0,0,1,2-.4,4.91,4.91,0,0,1,2.42.61A3.72,3.72,0,0,1,249,72.5a5.4,5.4,0,0,1,.5,2.38c0,.22,0,.49,0,.81a13.07,13.07,0,0,1-1.55.22q-1.29.09-2.58.09h-3.84a6,6,0,0,0,.59,2.77,3.67,3.67,0,0,0,1.56,1.56,4.65,4.65,0,0,0,2.08.5,4.88,4.88,0,0,0,1.45-.23,9.64,9.64,0,0,0,1.79-.86Zm-7.66-4.89,1.27.07c1.19,0,2,.06,2.45.06q1.59,0,2.1-.06c0-.19,0-.34,0-.44a4.17,4.17,0,0,0-.77-2.77,2.59,2.59,0,0,0-2-.88,2.7,2.7,0,0,0-2.18,1A4.69,4.69,0,0,0,241.45,75.05Z"/><path class="cls-3" d="M264.51,65.57v-.68a21.23,21.23,0,0,0,2.24-.34,18,18,0,0,0,1.78-.48l.16.11c0,.67-.07,2-.11,3.91L268.53,70v7.47c0,.82,0,1.52,0,2.11a3.3,3.3,0,0,0,.15,1.07.82.82,0,0,0,.36.28,7.48,7.48,0,0,0,1.49.21v.65c-1-.06-1.65-.09-2.05-.09s-1,0-2.1.09c0-.55,0-1.29.06-2.23-.32.24-.75.58-1.29,1s-1,.84-1.26,1.14a7.05,7.05,0,0,1-1.68.24,4.89,4.89,0,0,1-2.49-.67A4.47,4.47,0,0,1,258,79.38a6.49,6.49,0,0,1-.61-2.86,6.84,6.84,0,0,1,.37-2.27,4.46,4.46,0,0,1,1-1.65,8.48,8.48,0,0,1,1.47-1,17.79,17.79,0,0,1,1.86-1,3.77,3.77,0,0,1,1.55-.31,5.59,5.59,0,0,1,1.47.19,6,6,0,0,1,1.41.56V67.9a7.58,7.58,0,0,0-.15-2,.33.33,0,0,0-.18-.19A6.79,6.79,0,0,0,264.51,65.57Zm2,7.52a5.22,5.22,0,0,0-1.71-1.31,4,4,0,0,0-1.75-.41,3.35,3.35,0,0,0-1.8.5A3.14,3.14,0,0,0,260,73.39a6.13,6.13,0,0,0-.44,2.43,5,5,0,0,0,1.09,3.42,3.39,3.39,0,0,0,2.62,1.23,3,3,0,0,0,1.43-.33,3.42,3.42,0,0,0,1.11-1,3.3,3.3,0,0,0,.61-1.44,20.5,20.5,0,0,0,.1-2.59Z"/><path class="cls-3" d="M281.89,79.94l-.38.86a12.13,12.13,0,0,1-1.21.69,8.5,8.5,0,0,1-1.29.42,6.67,6.67,0,0,1-4.37-.48,4.65,4.65,0,0,1-2-2A6.23,6.23,0,0,1,272,76.4a7.65,7.65,0,0,1,.37-2.48,4.78,4.78,0,0,1,.86-1.63,6,6,0,0,1,1.07-.88,7.64,7.64,0,0,1,1.45-.78,5.12,5.12,0,0,1,2-.4,4.91,4.91,0,0,1,2.42.61,3.72,3.72,0,0,1,1.58,1.66,5.4,5.4,0,0,1,.51,2.38c0,.22,0,.49-.05.81a13.22,13.22,0,0,1-1.54.22c-.87.06-1.73.09-2.59.09h-3.84a6.09,6.09,0,0,0,.59,2.77,3.64,3.64,0,0,0,1.57,1.56,4.58,4.58,0,0,0,2.07.5,4.88,4.88,0,0,0,1.45-.23,9.64,9.64,0,0,0,1.79-.86Zm-7.66-4.89,1.27.07c1.19,0,2,.06,2.45.06q1.59,0,2.1-.06c0-.19,0-.34,0-.44a4.17,4.17,0,0,0-.77-2.77,2.59,2.59,0,0,0-2-.88,2.7,2.7,0,0,0-2.18,1A4.69,4.69,0,0,0,274.23,75.05Z"/><path d="M117.43,37.32a3.72,3.72,0,0,1,.85,1.23,3.07,3.07,0,0,1-1.66,4.08,4,4,0,0,1-.41.1.73.73,0,0,1-.2-.57,8.05,8.05,0,0,1,.31-2.72,13.4,13.4,0,0,1,.85-2.12Z"/><path d="M150.4,172.72a.87.87,0,0,1-1.08-.27,51.75,51.75,0,0,0-6.8-6.36,51,51,0,0,0-7.17-4.85,52.61,52.61,0,0,0-4.89-2.25,46.63,46.63,0,0,0-7-2.46c-1.34-.34-2.67-.69-4-1a21.45,21.45,0,0,0-2.54-.28c-1-.09-2.06-.14-3.08-.21a24.62,24.62,0,0,0-4.46.14l-4.76.57a29.69,29.69,0,0,0-5.88,1.29,56.94,56.94,0,0,0-6.95,2.73,55.93,55.93,0,0,0-12.73,8.53c-1.52,1.35-3,2.7-4.45,4.18a.78.78,0,0,1-.69.28c-.28,0-.57.07-.83-.08a.38.38,0,0,1,0-.13c-.07-1-.12-.77.46-1.4.75-.82,1.52-1.63,2.28-2.44a22.7,22.7,0,0,1,4.44-3.68c3-1.93,6-3.9,9-5.86.85-.55,1.67-1.13,2.5-1.69A14.07,14.07,0,0,1,97,155.34c.66-.12,1.33-.23,2-.29,1.68-.16,3.33-.47,5-.74l5.3-.88,1.42-.25a2.4,2.4,0,0,0,.38-.12.63.63,0,0,0,.37-.95,1.06,1.06,0,0,0-.79-.63,2.32,2.32,0,0,0-.46,0,38.53,38.53,0,0,0-3.87.16c-1.15.14-2.3.28-3.45.44-1.41.19-2.81.39-4.22.6a26.7,26.7,0,0,0-4.67,1,18.08,18.08,0,0,0-4.76,2.46c-2.18,1.59-4.44,3.05-6.67,4.56l-4.28,2.93a16,16,0,0,0-2.56,2.24c-1.14,1.21-2.32,2.39-3.48,3.58l-.33.32a.56.56,0,0,1-.72.1.84.84,0,0,1,.07-.69,2.52,2.52,0,0,1,.28-.44,56.63,56.63,0,0,1,8.27-8.33A52.54,52.54,0,0,1,89,154.48a43.29,43.29,0,0,1,11.62-4c1.05-.2,2.12-.31,3.18-.44.76-.09,1.53-.15,2.29-.23a19.92,19.92,0,0,1,2.89,0c2.18.11,4.37.21,6.55.34a16.06,16.06,0,0,1,2,.28q3.43.7,6.87,1.44c1,.2,1.92.42,2.88.65a4.92,4.92,0,0,1,1.68.72c.14.09.31.18.33.42a1.07,1.07,0,0,1-.34.09,11.56,11.56,0,0,1-1.95-.25c-1.57-.31-3.13-.64-4.7-.91s-3.16-.48-4.74-.69a12.08,12.08,0,0,0-1.9-.08,9.37,9.37,0,0,1-1.76-.15,4.14,4.14,0,0,0-.79-.06.61.61,0,0,0-.55.3.51.51,0,0,0,.16.79,2.34,2.34,0,0,0,1.42.44,18.3,18.3,0,0,1,4,.42c1,.17,1.94.32,2.91.45a17.65,17.65,0,0,1,4.19,1.06c2.06.81,4.11,1.63,6.14,2.5a32.26,32.26,0,0,1,5.27,2.92c2,1.35,4,2.77,5.91,4.27a37.5,37.5,0,0,1,4.14,3.83c1.17,1.24,2.32,2.51,3.47,3.76C150.21,172.46,150.29,172.58,150.4,172.72Z"/><path d="M135.72,141.21c-1.43,0-2.85,0-4.27,0-1.58,0-3.15.12-4.72.21-.79,0-1.58.05-2.36.05-1.27,0-2.54,0-3.81,0s-2.27.13-3.41.2c-2.14.14-4.27.33-6.42.32-1.82,0-3.63.16-5.44.33-1.28.11-2.57.15-3.86.2-1.73.06-3.45.18-5.17.35l-3.67.32-3.66.32-2.94.19c-.88,0-1.75.09-2.62.16s-1.83.21-2.74.3c-.72.08-1.44.13-2.16.18a2.32,2.32,0,0,1-.59,0,.84.84,0,0,1-.67-.48,2,2,0,0,1-.25-.94.53.53,0,0,1,.34-.51,1.37,1.37,0,0,1,.44-.12c1.24-.14,2.48-.26,3.72-.41,2.66-.31,5.32-.39,8-.55,1.07-.07,2.13-.2,3.2-.3,2-.19,3.95-.45,5.95-.51,1.33,0,2.66-.17,4-.26.5,0,1-.08,1.51-.08,1.73,0,3.45-.11,5.18-.23q4.13-.3,8.26-.42c1.29,0,2.57-.16,3.86-.23,1.1,0,2.19-.14,3.28-.14,1.91,0,3.81,0,5.71-.14.72-.06,1.44,0,2.16,0,1.49,0,3,0,4.47,0s2.8,0,4.2,0c.35,0,.7,0,1.05.05.79,0,.84.08,1.13.83a2.33,2.33,0,0,1,.16.63.64.64,0,0,1-.45.72,1.89,1.89,0,0,1-.57.13,5.65,5.65,0,0,1-.92,0c-1.53-.12-3.06-.1-4.59-.1h-1.31Z"/><path d="M96.15,119a1.88,1.88,0,0,1,.23,1.47,3.19,3.19,0,0,1-.13.44q-1,2.58-2,5.16a6.94,6.94,0,0,1-.39.83c-1.09,2-2.17,4-3.44,5.89a12.39,12.39,0,0,1-2,2.35c-.21.18-.41.39-.61.59a1.86,1.86,0,0,0-.27.29c-.38.52-.26.9.35,1.08a2.09,2.09,0,0,0,.71.07c.76,0,1.52-.13,2.29-.18s1.61-.09,2.42-.09c1.23,0,2.45-.13,3.67-.22s2.4-.13,3.61-.19l4.59-.23,2.62-.15,8.19-.51c1.68-.1,3.36-.22,5-.31,1.84-.09,3.68-.15,5.51-.24,1.12-.05,2.23-.14,3.34-.21l2.89-.17c1.24-.07,2.49-.17,3.72-.35a5.63,5.63,0,0,1,.92,0,5.37,5.37,0,0,0,1.69-.16.92.92,0,0,1,.95.36.28.28,0,0,1-.28.26c-1.06.18-2.11.37-3.17.54-1.84.3-3.67.61-5.51.87-1.58.23-3.17.4-4.75.59l-3.85.44c-1.61.2-3.21.4-4.83.49-1.2.06-2.4.17-3.6.28-1.7.16-3.4.27-5.11.29q-4.73.06-9.45.28c-.74,0-1.49,0-2.23,0L94,138.47c-1.36,0-2.71,0-4.07-.09s-2.75-.14-4.13-.2a2.09,2.09,0,0,0-.71.06,2.25,2.25,0,0,1-1.78-.17,4,4,0,0,1-.57-.33.3.3,0,0,1-.06-.23.37.37,0,0,1,.17-.18.25.25,0,0,1,.19,0,1.17,1.17,0,0,1,.26,0,1.88,1.88,0,0,0,2.24-.93c1.52-2.37,3.08-4.73,4.42-7.22.81-1.52,1.66-3,2.6-4.48s1.69-2.86,2.47-4.33c.17-.33.35-.66.53-1A.69.69,0,0,1,96.15,119Z"/><path d="M113.52,58a5.63,5.63,0,0,1,0,.59c-.37,2.49-.76,5-1.13,7.46a10.73,10.73,0,0,1-.6,2.15,7.27,7.27,0,0,0-.34,1.59c-.08.81-.15,1.61-.25,2.42-.07.56-.17,1.12-.28,1.68q-.51,2.53-1.05,5.07c-.26,1.2-.54,2.39-.84,3.58-.1.37-.27.73-.41,1.1-.07.2-.15.41-.21.62-.39,1.45-.77,2.91-1.17,4.37-.2.69-.42,1.38-.65,2.06s-.52,1.58-.82,2.35c-.64,1.61-1.1,3.28-1.61,4.92a2,2,0,0,1-.26.53,3.15,3.15,0,0,0-.6,1.64,1.25,1.25,0,0,1-.19.62c-.16.26-.33.27-.49,0a1,1,0,0,1-.15-.69c.13-.73.22-1.47.39-2.19.3-1.23.67-2.44,1-3.68.54-2.36,1.07-4.73,1.56-7.11.35-1.71.8-3.41,1.25-5.1.75-2.87,1.42-5.76,2.14-8.65.66-2.67,1.36-5.34,2-8,.37-1.44.71-2.88,1.06-4.33a2.52,2.52,0,0,1,.21-.54,7.24,7.24,0,0,0,.81-2.55c0-.22.07-.43.11-.65a1,1,0,0,1,.11-.23.18.18,0,0,1,.28,0A2,2,0,0,1,113.52,58Z"/><path d="M118.66,69.51c.09-3,.17-5,.22-7,.05-1.76.23-3.5.45-5.23,0-.26,0-.53.09-.79a3.38,3.38,0,0,1,.18-.62.22.22,0,0,1,.44,0c.06.45.09.91.12,1.37a2.54,2.54,0,0,1,0,.39,30.5,30.5,0,0,0,.34,6.68,4.79,4.79,0,0,1,.06.85,33.51,33.51,0,0,0,.21,4.25c.11,1.42.23,2.84.34,4.26s.24,2.83.35,4.25c.07,1,.15,2,.16,3a27,27,0,0,0,.36,3.59c.25,1.73.54,3.46.73,5.2.16,1.5.46,3,.69,4.47.09.56.17,1.12.23,1.69a3.71,3.71,0,0,0,.54,1.8,1.42,1.42,0,0,1,.17.35.65.65,0,0,1-.07.63c-.09.15-.21.3-.41.28a.49.49,0,0,1-.37-.34,1.62,1.62,0,0,1-.09-.38,4.27,4.27,0,0,0-.51-1.48,10.25,10.25,0,0,1-.7-1.84,68.12,68.12,0,0,1-1.73-7.74,1.73,1.73,0,0,0-.11-.37,8.69,8.69,0,0,1-.64-2.74c-.12-1.42-.33-2.82-.59-4.22a31.07,31.07,0,0,1-.46-5.09C118.62,72.66,118.65,70.58,118.66,69.51Z"/><path d="M117.37,97.21A1,1,0,0,1,117,97a1.45,1.45,0,0,1-.31-.78c-.15-1.06-.33-2.12-.47-3.18-.22-1.65-.43-3.3-.61-5s-.33-3.22-.45-4.83c-.14-1.79-.26-3.58-.34-5.37-.08-2.06-.15-4.12-.15-6.17,0-2.54,0-5.08.14-7.61.1-2.34.31-4.67.47-7a1.12,1.12,0,0,1,0-.32.53.53,0,0,1,.19-.25.24.24,0,0,1,.36.15,2.11,2.11,0,0,1,.09.45c.07.71.16,1.43.21,2.15.11,1.64.29,3.27.32,4.91,0,1.38.13,2.75.19,4.13.07,2,.13,3.89.19,5.84,0,1.66.18,3.32.34,5,.1,1.11.12,2.23.14,3.35,0,.74,0,1.48,0,2.23a33.19,33.19,0,0,0,.22,3.73c.06.67.1,1.35.11,2,0,1.68,0,3.37,0,5a11.37,11.37,0,0,1-.16,1.43C117.51,97,117.43,97.11,117.37,97.21Z"/><path d="M121.81,112.68c-1.38,0-3,.09-4.62.18-1.16.06-2.31.2-3.47.3-.69.06-1.39.1-2.09.18l-3.91.47c-1,.11-1.91.23-2.87.31a45.31,45.31,0,0,0-4.92.76c-1.14.22-2.29.4-3.43.59a4.57,4.57,0,0,1-.52,0,1.16,1.16,0,0,1-.84-.33,2.33,2.33,0,0,1-.62-1.06.46.46,0,0,1,.28-.59,2.82,2.82,0,0,1,.57-.15c1.47-.26,2.93-.54,4.4-.77,1.12-.17,2.25-.28,3.38-.42l3.78-.47c1.41-.16,2.83-.32,4.24-.45,1.61-.14,3.23-.25,4.85-.37a72.31,72.31,0,0,1,8.33-.28c.83,0,1.66.08,2.49.12a2,2,0,0,1,1,.31,1.43,1.43,0,0,1,.62.89.57.57,0,0,1-.44.75,5.36,5.36,0,0,1-1,.12c-.46,0-.92,0-1.38,0Z"/><path d="M164,172.75a3.4,3.4,0,0,1-1.31,0,.89.89,0,0,1-.43-.28c-1-.91-2.08-1.81-3.09-2.75a74.77,74.77,0,0,1-9-10,49.85,49.85,0,0,1-3.38-4.92q-1.89-3.3-3.51-6.74c-.27-.58-.52-1.16-.79-1.73a.9.9,0,0,1,.27-1.15,1.38,1.38,0,0,1,.28.25c.24.38.47.78.71,1.18a129.45,129.45,0,0,0,8.93,12.87c3.43,4.4,7.09,8.61,10.87,12.72A1.64,1.64,0,0,1,164,172.75Z"/><path d="M59.48,172.11a5,5,0,0,1,.35-.5c1.53-1.88,3.05-3.78,4.6-5.65q1.75-2.11,3.34-4.38c.66-1,1.36-1.87,2-2.82,1.48-2.08,3-4.18,4.44-6.26.71-1,1.43-2,2.14-3a14.45,14.45,0,0,0,1.23-1.94,1.71,1.71,0,0,1,.13-.23.29.29,0,0,1,.41,0,.79.79,0,0,1,.08,1.16,2.81,2.81,0,0,0-.72,1.22c-.22.57-.47,1.13-.73,1.68s-.61,1.22-.9,1.83a56,56,0,0,1-5,8.22,64.34,64.34,0,0,1-8,9.22,2.4,2.4,0,0,1-.88.56c-.7.24-1.39.51-2.09.77Z"/><path d="M113.25,80.78c-.09,1.57-.19,3.54-.3,5.5a5.84,5.84,0,0,1-.16,1.1,33.2,33.2,0,0,0-.64,3.42,41.86,41.86,0,0,1-.94,4.42c-.41,1.59-.75,3.19-1.28,4.75-.09.24-.18.49-.29.73s-.14.28-.33.25a.32.32,0,0,1-.29-.31,5.34,5.34,0,0,1-.11-1c.09-1.55.22-3.1.32-4.65.13-1.88.57-3.71.88-5.57.14-.84.26-1.68.33-2.53.21-2.55.57-5.09.91-7.62.25-1.84.49-3.69.73-5.53,0-.22.07-.43.1-.65a1.46,1.46,0,0,1,.38-.75c.18-.2.38-.17.53.07a1.9,1.9,0,0,1,.27.8,19.6,19.6,0,0,1,.07,3.34C113.34,77.85,113.31,79.12,113.25,80.78Z"/><path d="M125.29,103.91a.94.94,0,0,1-.51.44,8,8,0,0,1-1.09.44c-1.33.36-2.65.72-4,1a35.93,35.93,0,0,1-4.39.75c-1.13.11-2.25.29-3.38.43a6.11,6.11,0,0,1-.85.08c-1,0-2.06.08-3.08.08a20.82,20.82,0,0,0-2.09,0,12.11,12.11,0,0,1-2.75-.17,10.57,10.57,0,0,0-2.81-.11,1.76,1.76,0,0,1-1.3-.34.31.31,0,0,1-.14-.36,7.49,7.49,0,0,1,1.22-.18c1.7-.15,3.41-.27,5.1-.42,1-.09,2-.21,3.07-.32,1.41-.15,2.83-.33,4.24-.46,2-.2,4-.35,6.08-.55,1.3-.12,2.61-.29,3.91-.41.79-.08,1.57-.12,2.36-.17A.36.36,0,0,1,125.29,103.91Z"/><path d="M99.3,133.51A1.38,1.38,0,0,1,99,132c.22-.64.46-1.27.71-1.9.87-2.17,1.73-4.34,2.61-6.51.66-1.62,1.5-3.16,2.32-4.71a3.14,3.14,0,0,1,.33-.48.28.28,0,0,1,.5.14,3.51,3.51,0,0,1,.08.91,19.18,19.18,0,0,1-.61,3.61,28.06,28.06,0,0,1-3.26,7.49,20.17,20.17,0,0,1-2,2.66C99.56,133.29,99.44,133.38,99.3,133.51Z"/><path d="M124.12,132c-.24-.2-.42-.35-.59-.52a10.73,10.73,0,0,1-1.47-1.76,23.46,23.46,0,0,1-3.18-7.09,17.11,17.11,0,0,1-.6-3.62,7,7,0,0,1,.2-2.15,1.32,1.32,0,0,1,.37-.72,2,2,0,0,1,.31.19,2.76,2.76,0,0,1,.69,1.32c.27,1,.54,2.08.82,3.11,1,3.54,2.14,7,3.41,10.48a4.16,4.16,0,0,1,.16.5S124.19,131.89,124.12,132Z"/><path d="M128.86,115.59l.26,0,.42,0a50.49,50.49,0,0,1,5.74,12.73,9.57,9.57,0,0,1,.51,2.14,1.83,1.83,0,0,1-.35-.11,3.61,3.61,0,0,1-.94-1.08c-.86-1.54-1.74-3.08-2.61-4.62-.1-.19-.2-.39-.31-.58a18.9,18.9,0,0,1-1.87-4.39c-.2-.69-.44-1.37-.64-2.06a10.14,10.14,0,0,1-.29-1.21A1.12,1.12,0,0,1,128.86,115.59Z"/><path d="M111.58,45.25a.93.93,0,0,1,.67-.35c.86-.16,1.72-.31,2.57-.49a13.17,13.17,0,0,1,2.87-.27c.63,0,1.26,0,1.9,0a5.51,5.51,0,0,1,.71.06.81.81,0,0,1,.25.14,2.53,2.53,0,0,1-.21.34,3,3,0,0,1-1.09.71,11.17,11.17,0,0,1-2.77.76,15.81,15.81,0,0,1-2.48.15,5.44,5.44,0,0,1-1.74-.3C111.86,45.84,111.76,45.72,111.58,45.25Z"/><path d="M111.65,52.73a.91.91,0,0,1,.4-.61,7.71,7.71,0,0,1,3.62-1.42,10.4,10.4,0,0,1,3.2.1c.3.06.61.1.91.15a.85.85,0,0,1,.62.39,1.11,1.11,0,0,1-.24.2,7.27,7.27,0,0,1-1.11.38c-1.06.25-2.14.47-3.21.68a10.59,10.59,0,0,1-1.36.19,7.59,7.59,0,0,0-1.43.21A1.46,1.46,0,0,1,111.65,52.73Z"/><path d="M167.16,176.12c-.12,0-.21.06-.27,0a1.61,1.61,0,0,1-.28-.17l-3.21-2.59a2.24,2.24,0,0,1-.27-.27,3.16,3.16,0,0,1,1.22,0,.5.5,0,0,1,.26.18L167,175.8A1.32,1.32,0,0,1,167.16,176.12Z"/><path d="M150,173.14c.46-.13.79-.11,1.06.24.56.75,1.16,1.47,1.73,2.21a.57.57,0,0,1,.12.23.26.26,0,0,1,0,.17.22.22,0,0,1-.18,0,.27.27,0,0,1-.16-.1C151.65,175,150.78,174.17,150,173.14Z"/><path d="M73.12,173.14a1.57,1.57,0,0,1,.81-.06,2,2,0,0,1-.7.92A1.24,1.24,0,0,1,73.12,173.14Z"/></g></g></svg>