<svg xmlns="http://www.w3.org/2000/svg" viewBox="0 0 174.27 174.23"><defs><style>.cls-1{fill:#fff;}</style></defs><g id="Capa_2" data-name="Capa 2"><g id="Capa_1-2" data-name="Capa 1"><path class="cls-1" d="M79.14,84.77c4.29,3.82,12.08,3.78,16,0L92.8,78.47a45,45,0,0,1-5.72.68,43.77,43.77,0,0,1-5.63-.69C80.7,80.5,80,82.54,79.14,84.77Zm-3.46,65.86h22.9c-.65-4.82-1.28-9.52-1.92-14.28h-19C77,141.12,76.33,145.82,75.68,150.63Zm24.37-99c0-3.67.17-7.29-.06-10.89a5,5,0,0,0-4.83-4.27c-5.33-.1-10.66-.09-16,0-2.37,0-4.73,1.93-4.88,4.22-.25,3.71-.07,7.44-.07,11.3.61,0,1.16.09,1.71.09a26,26,0,0,0,14.15-4.17c2.23-1.43,3.61-1.17,5.25.9A6.9,6.9,0,0,0,100.05,51.58ZM74.21,57.21c-.67,6.13.57,11.39,6,14.88a12.85,12.85,0,0,0,14.4-.42c5.16-3.68,6-9,5.46-14.18l-8.63-4.41C85.91,55.88,82.8,57,74.21,57.21ZM63.89,169h46.49c-1.23-4.46-2.44-8.8-3.63-13.1H67.51C66.3,160.32,65.11,164.61,63.89,169ZM132,50.06l.42.21a34.4,34.4,0,0,0,2.41-2.57c2.15-2.82,4.89-3.74,8.44-3.6,6.63.26,13.27.09,19.9.07,3.73,0,5.94-2.22,6-5.92,0-5.72,0-11.45,0-17.17a5.38,5.38,0,0,0-5.74-5.76H122.24a5.38,5.38,0,0,0-5.77,5.74q-.06,8.67,0,17.35c0,3.5,2.28,5.7,5.78,5.76,1.82,0,3.63,0,5.44,0A4.31,4.31,0,0,1,132,48.37C132.07,48.93,132,49.5,132,50.06Zm-18.55,65.7c0-5.49.2-10.77-.06-16-.25-4.8-3-8-7.46-9.86-1.57-.65-3.19-1.17-4.73-1.89a1.93,1.93,0,0,0-2.39.43c-6,5-14.55,6-20.86,1.62-3.24-2.26-5.72-2.22-8.76-.53a5.8,5.8,0,0,1-.62.27c-5.21,2.08-7.85,5.9-7.9,11.51,0,4.31,0,8.62,0,12.93,0,.49.07,1,.11,1.51h10.1c0-2.2-.12-4.29,0-6.36a4.14,4.14,0,0,1,1.18-2.62c1.58-1.33,3.77,0,3.85,2.21s0,4.49,0,6.74H98.26c0-2.36,0-4.56,0-6.76a2.52,2.52,0,0,1,2.47-2.69,2.59,2.59,0,0,1,2.57,2.63c.08,1.07,0,2.15,0,3.23s0,2.43,0,3.65Zm-83.14,0V30.05H15.43v85.7Zm0-96H13.63c-5.45,0-8.52,3.08-8.52,8.55q0,47.13,0,94.25c0,5.58,3,8.61,8.62,8.61H160.58c5.58,0,8.58-3,8.58-8.66V48l-5.11,1.45V115.3c0,4.54-1.1,5.65-5.57,5.65H15.54c-4.15,0-5.33-1.2-5.33-5.39V29.65c0-3.34,1.44-4.79,4.74-4.79H28.56c.6,0,1.19-.05,1.81-.08Zm80.91.67c.13-.7.23-1.2.32-1.7a10.41,10.41,0,0,1,9.91-8.49c2.38-.07,4.77,0,7.15,0h10c0-1.05,0-1.94,0-2.83,0-1.9-.41-2.27-2.34-2.27q-49.17,0-98.36,0c-2,0-2.39.36-2.4,2.38,0,3.23,0,6.46,0,9.69,0,1.05,0,2.1,0,3.24H75.66a8.62,8.62,0,0,1,1.53,0A2.38,2.38,0,0,1,79.41,23a2.37,2.37,0,0,1-2.14,2.45,8.77,8.77,0,0,1-1.7.05H35.72V115.7H55.6c0-4.91,0-9.67,0-14.42.06-7.74,4-13.4,11.16-16.26,2.1-.84,4.24-1.61,6.3-2.53a5.14,5.14,0,0,0,1.51-8.39A17.69,17.69,0,0,1,69,61c0-6.24,0-12.48,0-18.72.06-6.63,4.51-11,11.18-11.06,4.59,0,9.19,0,13.78,0,6.87,0,11.29,4.42,11.33,11.26,0,6.07,0,12.14,0,18.21a18,18,0,0,1-6.1,13.87,2.62,2.62,0,0,0-.84,1,5.59,5.59,0,0,0,3.34,7.1c2.32.93,4.68,1.73,6.94,2.77,5.81,2.69,9.36,7.2,9.84,13.62.36,4.86.16,9.75.2,14.62,0,.66,0,1.32,0,2h20V110c0-2.27,0-4.54,0-6.81,0-1.8,1-2.8,2.49-2.83s2.48,1,2.58,2.75c0,.79,0,1.59,0,2.38,0,3.4,0,6.79,0,10.25h15.08V49.41H143.8V89.65c0,2.58-.87,3.86-2.57,3.84s-2.54-1.27-2.54-3.87v-38a37.46,37.46,0,0,0-5.15,4.64c-1.25,1.3-2.68,2-4.43,1.18a3.67,3.67,0,0,1-2.18-3.87c0-1.39,0-2.79,0-4.29-1.71,0-3.18,0-4.65,0-6.41-.07-10.87-4.54-10.93-11,0-3.68,0-7.37,0-11,0-.55-.06-1.09-.09-1.73H90.37a10.58,10.58,0,0,1-1.87-.05A2.36,2.36,0,0,1,86.34,23a2.39,2.39,0,0,1,2.21-2.57,9.61,9.61,0,0,1,1.7,0ZM0,125.57v-100a29.87,29.87,0,0,1,1.32-3.65,12.33,12.33,0,0,1,11.44-7.2c5.84-.1,11.67,0,17.71,0,0-2.61,0-5.1,0-7.58C30.55,2.65,33.24,0,37.65,0h99c4.31,0,7,2.64,7.12,7,0,1,0,2.11,0,3.25,6.73,0,13.19,0,19.65,0a10.44,10.44,0,0,1,10.82,10.85q0,51,0,102.07a14.71,14.71,0,0,1-.56,4c-1.66,5.72-6.51,9.11-13,9.11q-28.23,0-56.48,0h-2.35c.34,2.56.65,4.9,1,7.25s.65,4.77,1,7.22H105c4.66,0,5.86,1,7.09,5.39.92,3.27,1.82,6.55,2.73,9.82,1.24,4.44.67,5.92-3.18,8.28h-49c-3.27-2-4.36-3.86-3.64-6.65q1.73-6.57,3.66-13.08a5.08,5.08,0,0,1,5.09-3.75c.89,0,1.78,0,2.77,0,.65-4.86,1.28-9.56,1.94-14.47H14.78c-1,0-1.93,0-2.89-.07a12.62,12.62,0,0,1-11.35-9C.38,126.61.18,126.09,0,125.57Z"/><path class="cls-1" d="M45.74,12.71a2.51,2.51,0,1,1-2.48-2.49A2.53,2.53,0,0,1,45.74,12.71Z"/><path class="cls-1" d="M53.42,10.22a2.54,2.54,0,1,1-2.48,2.64A2.53,2.53,0,0,1,53.42,10.22Z"/><path class="cls-1" d="M66.16,12.74a2.51,2.51,0,1,1-2.44-2.52A2.53,2.53,0,0,1,66.16,12.74Z"/><path class="cls-1" d="M142.77,22.09h16.65c2.11,0,3.3.94,3.27,2.56s-1.2,2.53-3.34,2.53H126.22c-2.08,0-3.31-1-3.29-2.59s1.21-2.5,3.36-2.5Z"/><path class="cls-1" d="M142.84,37.41c-5.55,0-11.1,0-16.64,0a3.72,3.72,0,0,1-2.45-.82,2.84,2.84,0,0,1-.59-2.41c.21-.71,1.13-1.25,1.82-1.75.27-.2.77-.08,1.17-.08H160a2.55,2.55,0,1,1,0,5.08c-3.34,0-6.68,0-10,0Z"/></g></g></svg>