<svg xmlns="http://www.w3.org/2000/svg" viewBox="0 0 212.48 113.63"><defs><style>.cls-1{fill:#fff;}</style></defs><g id="Capa_2" data-name="Capa 2"><g id="Capa_1-2" data-name="Capa 1"><path class="cls-1" d="M174.54,53.09a15.43,15.43,0,1,0-15.48-15.36A15.38,15.38,0,0,0,174.54,53.09ZM38,53.09A15.43,15.43,0,1,0,22.64,37.66,15.44,15.44,0,0,0,38,53.09ZM155.21,86.52h47c0-2.54.13-4.89,0-7.22-.57-8.47-4.5-15-11.51-19.8a2.21,2.21,0,0,0-2.77,0c-8.95,5.22-17.95,5.22-26.87-.06a2.08,2.08,0,0,0-2.59.06,25.45,25.45,0,0,0-8.41,9,2.27,2.27,0,0,0-.17,1.84A49.15,49.15,0,0,1,155.21,86.52Zm-97.93.12A49.7,49.7,0,0,1,62.76,70.1a2.37,2.37,0,0,0-.34-1.83,25.8,25.8,0,0,0-8.13-8.69,2.35,2.35,0,0,0-2.94-.08c-8.88,5.17-17.82,5.16-26.69,0a2.24,2.24,0,0,0-2.77,0,25.84,25.84,0,0,0-9.17,10.44c-2.6,5.32-2.72,10.95-2.31,16.71Zm49-76.4a22.62,22.62,0,1,0,22.52,22.51A22.46,22.46,0,0,0,106.23,10.24ZM102.53,0H110a14.27,14.27,0,0,0,1.55.43,32.87,32.87,0,0,1,26.81,38.75,35.19,35.19,0,0,1-5.78,13.19l9.63,7.51,9.58-10.25a24.87,24.87,0,0,1-2.38-17,25.59,25.59,0,0,1,49.7-2A25.69,25.69,0,0,1,196.4,51c.54.42,1,.76,1.4,1.08a35,35,0,0,1,13.53,20c.43,1.65.77,3.32,1.15,5V93.2C211.14,96,208.91,97,205.8,97c-15.9-.09-31.81,0-47.71,0h-2.47c0,3.63,0,6.94,0,10.25,0,4.42-1.89,6.31-6.29,6.32H111c-3.86,0-6.25-2-6.27-5.09s2.4-5.09,6.24-5.13h34.38c0-4.36.22-8.37,0-12.35-.9-13.51-7.42-23.54-19.24-30.17a2.45,2.45,0,0,0-2.8.05c-11.33,6.52-22.68,6.44-34.07,0a3.16,3.16,0,0,0-2.54-.08A35.88,35.88,0,0,0,67.19,91.84c0,3.77,0,7.54,0,11.44,3.74,0,7.2-.13,10.64.07A8.78,8.78,0,0,1,82,104.72c1.67,1.12,2.08,3.5,1.38,5.44a5.1,5.1,0,0,1-5,3.32c-5.11,0-10.23,0-15.35,0-4.15,0-6.1-2-6.12-6.07,0-3.43,0-6.86,0-10.5H54.27q-24.17,0-48.34,0c-3.88,0-5.87-2-5.89-5.85C0,87.48,0,83.88.07,80.3a35.17,35.17,0,0,1,14.6-28.19c.48-.36.93-.74,1.37-1.1-7.25-13.32-2.58-26.23,5.72-33.13a25.5,25.5,0,0,1,30.83-1.29,25.14,25.14,0,0,1,9.93,13.64,24.84,24.84,0,0,1-1.76,19.35L70.4,59.82,80,52.37l-.81-1.23A32.8,32.8,0,0,1,98.15,1C99.6.66,101.07.35,102.53,0Z"/><path class="cls-1" d="M93.62,113.63a21.53,21.53,0,0,1-3-.51A5,5,0,0,1,87.22,108a4.89,4.89,0,0,1,4.12-4.52,16.89,16.89,0,0,1,4.32-.08,4.89,4.89,0,0,1,4.54,5.18,5,5,0,0,1-4.91,4.89c-.55,0-1.1,0-1.65,0Z"/></g></g></svg>