<svg xmlns="http://www.w3.org/2000/svg" xmlns:xlink="http://www.w3.org/1999/xlink" viewBox="0 0 44.35 41.02"><defs><style>.cls-1{fill:none;}.cls-2{clip-path:url(#clip-path);}.cls-3{isolation:isolate;}.cls-4{clip-path:url(#clip-path-2);}.cls-5{fill:#86f1ff;}</style><clipPath id="clip-path" transform="translate(0 0)"><rect class="cls-1" width="44.35" height="41.02"/></clipPath><clipPath id="clip-path-2" transform="translate(0 0)"><rect class="cls-1" x="-0.2" y="-0.46" width="44.82" height="41.58"/></clipPath></defs><g id="Capa_2" data-name="Capa 2"><g id="Capa_1-2" data-name="Capa 1"><g class="cls-2"><g class="cls-3"><g class="cls-4"><path class="cls-5" d="M22.16,37.59c4.17,0,8.34.1,12.5-.08,1,0,2.53-.85,2.74-1.6,1.79-6.58-5.14-15.38-11.94-15.38-2.85,0-5.69,0-8.53,0a3.78,3.78,0,0,0-2.15.36c-4.33,3.65-8.42,7.42-8,13.88.13,2.07.84,2.87,2.9,2.83,4.16-.08,8.33,0,12.49,0M13.53,13.82h3.33c.11,1,.23,2,.36,3.14h9.94c.08-1,.15-1.92.24-3.05h3.32c-.85,2.95,1.25,4.4,3.13,6.13,4.48,4.08,7.71,8.78,7.13,15.32-.33,3.64-2,5.6-5.71,5.62q-13.05.09-26.11,0c-3.81,0-5.48-2-5.79-5.83-.55-6.93,3.15-11.68,7.92-15.81,1.72-1.49,2.87-2.9,2.24-5.53" transform="translate(0 0)"/><path class="cls-5" d="M40.69,10.18C41,6.52,39.52,5.08,35.32,5c.64,1.74,1.29,3.48,1.92,5.19Zm-33.51,0c.33-1,.61-1.93.92-2.81s.63-1.64,1-2.59c-4.79.82-5.77,1.82-5.45,5.4Zm36.88,3.4H34.28C32,3.89,31.34,3.41,21.46,3.47l-1.71,0c-6,.09-8,1.76-9.15,7.79-.14.74-.31,1.48-.47,2.28H.28C-.84,5.5,1.3,2.5,8.92,1.16a76,76,0,0,1,26.52,0c7.61,1.33,9.78,4.38,8.62,12.4" transform="translate(0 0)"/><path class="cls-5" d="M16.83,27.31H13.77c0-1-.09-2-.14-3.18h3.2Z" transform="translate(0 0)"/><rect class="cls-5" x="20.6" y="24.15" width="3.09" height="3.07"/><rect class="cls-5" x="27.47" y="24.09" width="3.11" height="3.16"/><rect class="cls-5" x="13.84" y="30.94" width="3.07" height="3.12"/><rect class="cls-5" x="20.63" y="30.9" width="3.04" height="3.09"/><rect class="cls-5" x="27.48" y="30.93" width="3.09" height="3.04"/></g></g></g></g></g></svg>