<svg xmlns="http://www.w3.org/2000/svg" viewBox="0 0 173.57 174.23"><defs><style>.cls-1{fill:#fff;}</style></defs><g id="Capa_2" data-name="Capa 2"><g id="Capa_1-2" data-name="Capa 1"><path class="cls-1" d="M125.39,149.68l10.84-10L124.63,135C124.89,139.91,125.13,144.57,125.39,149.68Zm38.17-73c1.61-4,3.13-7.71,4.67-11.47.51-1.25-.07-1.92-1.17-2.36-3.55-1.45-7.11-2.89-10.64-4.38-1.36-.57-2.13-.14-2.64,1.17-.74,1.89-1.54,3.76-2.31,5.65s-1.46,3.62-2.22,5.52ZM126.62,34,102.14,9.46V34ZM100.19,0c.77.66,1.59,1.27,2.3,2C113,12.48,123.44,23,134,33.47A6.38,6.38,0,0,1,136,38.4c-.07,16.1,0,32.2,0,48.31v1.81l.29.06c.2-.42.42-.83.6-1.26l11.88-29.08c2-4.88,5.31-6.29,10.16-4.31q4.86,2,9.73,4c4.53,1.87,6,5.33,4.13,9.88Q166,84.46,159.18,101.11a8.55,8.55,0,0,1-.59,1.22,2.39,2.39,0,0,1-3.21,1.06,2.33,2.33,0,0,1-1.4-3.08c.46-1.45,1.1-2.85,1.67-4.26q2.61-6.37,5.21-12.73c.23-.57.43-1.15.69-1.85l-14.29-5.85-22,53.95,14.33,5.87c1.51-3.66,3-7.2,4.42-10.76q2.9-7.07,5.78-14.14l.18-.48q1.37-3.21,3.68-2.26c1.57.65,2,2.08,1.13,4.17-1.42,3.52-2.87,7-4.3,10.53-2,4.82-4,9.61-5.87,14.47-.9,2.35-2,4.48-4.14,5.85-3.76,2.46-4.81,5.81-4.52,10.22.38,5.87.07,11.79.11,17.69a3.49,3.49,0,0,1-1.86,3.5H0V32a12,12,0,0,1,.9-1A2.51,2.51,0,0,1,5.07,32.5a13.54,13.54,0,0,1,.07,2.21V169H130.68v-17.1l-4.16,3.8a6.73,6.73,0,0,1-1.65,1.44c-.87.35-2,.77-2.78.45a3.23,3.23,0,0,1-1.51-2.34c-.44-6-.49-12.13-1.08-18.16A25.22,25.22,0,0,1,121.88,124c3-6.72,5.63-13.59,8.38-20.41a7.22,7.22,0,0,0,.54-2.62q0-30,0-60c0-.5-.06-1-.1-1.68H100.63c-3,0-3.78-.77-3.79-3.84V5.29H5.14V11.4c0,3.34,0,6.69,0,10,0,1.48-.06,2.87-1.72,3.51S.92,24.49,0,23.48V0Z"/><path class="cls-1" d="M37.63,113.71V104.9L36,107c-.53.67-1,1.36-1.59,2-1.37,1.54-2.74,1.64-4.24.23s-2.9-2.86-4.32-4.32-1.43-3-.32-4,2.51-1,3.91.33c.85.79,1.67,1.61,2.59,2.5l3.93-5.06H22.65v15ZM30.19,119c-3.11,0-6.23,0-9.34,0-2.56,0-3.47-.94-3.48-3.51q0-9.36,0-18.7c0-2.55.94-3.47,3.52-3.47,5.88,0,11.77,0,17.65,0a2.59,2.59,0,0,0,2.55-1.21,13.94,13.94,0,0,1,1.81-2.25,2.53,2.53,0,0,1,3.52-.27A2.42,2.42,0,0,1,46.87,93c-.9,1.36-2.06,2.56-2.94,3.94a5.18,5.18,0,0,0-.9,2.59c-.09,5.22,0,10.43-.05,15.64,0,3-.8,3.85-3.8,3.86Z"/><path class="cls-1" d="M22.54,64.67c0,4.83,0,9.47,0,14.11,0,1.14.7,1.08,1.47,1.08H37.61V71c-1.23,1.56-2.21,2.88-3.28,4.12-1.29,1.49-2.71,1.59-4.12.27-1.58-1.47-3.09-3-4.57-4.56A2.66,2.66,0,0,1,25.41,67c1.05-1.1,2.59-1,3.91.22.84.81,1.58,1.73,2.49,2.74l4.12-5.26ZM30.14,85c-3.11,0-6.22,0-9.33,0-2.47,0-3.42-.94-3.43-3.38q0-9.44,0-18.87c0-2.47.91-3.39,3.39-3.4,5.83,0,11.65-.06,17.48,0a3,3,0,0,0,3.07-1.55,9,9,0,0,1,.93-1.21c1.31-1.63,2.8-2,4.07-1.09s1.29,2.58,0,4.33a29.18,29.18,0,0,0-2.27,3,6.46,6.46,0,0,0-1,2.91c-.1,5.15,0,10.31-.05,15.46,0,3-.8,3.81-3.85,3.82Z"/><path class="cls-1" d="M37.65,147.66v-15c-.22-.09-.32-.17-.43-.17-3.33,0-6.66-.06-10,0-1.5,0-3.58-.41-4.34.39s-.34,2.87-.35,4.38c0,3.43,0,6.87,0,10.4ZM17.37,140.2c0-3.17,0-6.35,0-9.52,0-2.38.95-3.35,3.28-3.36q9.51,0,19,0c2.34,0,3.28.94,3.29,3.33q0,9.53,0,19.06c0,2.33-.89,3.23-3.18,3.24q-9.6.06-19.19,0c-2.35,0-3.21-1-3.22-3.39C17.35,146.44,17.37,143.32,17.37,140.2Z"/><path class="cls-1" d="M85.79,136.5H59.3c-.67,0-1.55.13-2-.23-.7-.6-1.57-1.59-1.51-2.34a4.18,4.18,0,0,1,1.73-2.37c.44-.34,1.31-.19,2-.19q26.32,0,52.63,0c.34,0,.68,0,1,0,1.72.09,2.83,1.07,2.87,2.52s-1.1,2.6-2.93,2.61Q99.46,136.52,85.79,136.5Z"/><path class="cls-1" d="M85.88,102.52H59.73a12.8,12.8,0,0,1-1.86-.08,2.33,2.33,0,0,1-2.15-2.26,2.3,2.3,0,0,1,1.71-2.6,6.78,6.78,0,0,1,2-.22h52.8c.34,0,.68,0,1,0a2.69,2.69,0,0,1,2.79,2.62,2.58,2.58,0,0,1-2.84,2.52c-3.85,0-7.7,0-11.54,0Z"/><path class="cls-1" d="M85.76,68.55H59.61c-2.7,0-4-.85-3.92-2.64s1.28-2.55,3.87-2.55H112.7c2.11,0,3.33,1,3.35,2.59s-1.18,2.59-3.3,2.59q-12.06,0-24.11,0Z"/><path class="cls-1" d="M81.67,149H59.61a9.5,9.5,0,0,1-1.85-.15,2.5,2.5,0,0,1,.11-4.94,11.8,11.8,0,0,1,1.69-.1h44.28c2.73,0,3.93.82,3.9,2.64S106.5,149,103.89,149Z"/><path class="cls-1" d="M80.3,75.84h21a12,12,0,0,1,1.7.06,2.52,2.52,0,0,1,.25,4.94,6.62,6.62,0,0,1-1.67.14H59.21a8,8,0,0,1-.85,0,2.57,2.57,0,0,1-2.66-2.69,2.51,2.51,0,0,1,2.73-2.42c4.06,0,8.13,0,12.2,0Z"/><path class="cls-1" d="M69.87,33.4H55.3a16,16,0,0,1-1.7-.06A2.38,2.38,0,0,1,51.39,31a2.35,2.35,0,0,1,1.84-2.53,6.65,6.65,0,0,1,1.84-.17q14.83,0,29.67,0a10.11,10.11,0,0,1,1.35,0,2.61,2.61,0,0,1,2.4,2.61A2.47,2.47,0,0,1,86,33.36c-1.87.08-3.73,0-5.6,0Z"/><path class="cls-1" d="M66.5,109.82c2.6,0,5.2,0,7.8,0,1.87,0,3,1,3,2.51A2.65,2.65,0,0,1,74.37,115c-5.26,0-10.52,0-15.77,0-1.85,0-2.93-1.09-2.9-2.64s1.1-2.48,3-2.5C61.3,109.79,63.9,109.82,66.5,109.82Z"/></g></g></svg>