<?xml version="1.0" encoding="UTF-8"?>
<svg id="Capa_1" data-name="Capa 1" xmlns="http://www.w3.org/2000/svg" xmlns:xlink="http://www.w3.org/1999/xlink" viewBox="0 0 43.18 92.04">
  <defs>
    <style>
      .cls-1 {
        fill: #e2242e;
      }

      .cls-2 {
        clip-path: url(#clippath);
      }

      .cls-3 {
        fill: none;
      }
    </style>
    <clipPath id="clippath">
      <rect class="cls-3" width="43.18" height="92.04"/>
    </clipPath>
  </defs>
  <g class="cls-2">
    <g id="Grupo_44" data-name="Grupo 44">
      <path id="Trazado_135" data-name="Trazado 135" class="cls-1" d="m22.31,0c1.59.55,2.56,2.15,2.32,3.82.03.36.21.69.49.91,1.07.76,1.7,1.99,1.7,3.31-.02,1.54.29,3.12-.53,4.58-.06.2-.08.41-.04.62.55,10.34,1.06,20.69,1.66,31.03.13,2.2.53,4.4.87,6.58.09.35.31.65.62.83,1.49.68,2.14,2.44,1.46,3.93-.12.25-.27.49-.45.7-.56.61-.71,1.49-.38,2.26.87,2.7,1.64,5.44,2.51,8.14.16.42.45.77.84.99.99.48,1.65,1.45,1.75,2.54.03.18.04.36.03.54-.21,2.18.38,4.36,1.65,6.15,2.04,3.38,3.9,6.86,5.82,10.31,1.38,2.47.01,4.78-2.82,4.79-2.27,0-4.55,0-6.82,0-1.66.19-3.16-1.01-3.35-2.67-.02-.19-.02-.37-.01-.56-.13-4.44-3.83-7.93-8.27-7.81-3.58.1-6.66,2.56-7.56,6.03-.15.7-.25,1.41-.28,2.13-.05,1.57-1.33,2.83-2.9,2.86-2.57.04-5.14.06-7.71,0-1.65-.02-2.97-1.38-2.95-3.03,0-.57.18-1.13.49-1.6,2.31-4.16,4.67-8.28,6.96-12.45.31-.66.51-1.37.56-2.1.1-.74,0-1.5.03-2.24-.03-1.3.75-2.48,1.95-2.97.28-.14.49-.37.6-.66.94-3.03,1.87-6.05,2.74-9.1.05-.44-.09-.89-.37-1.23-.91-.93-1.14-2.33-.55-3.5.32-.57.79-1.04,1.35-1.36.42-.21.69-.63.72-1.1,1.45-9.28,1.73-18.65,2.13-28.01.13-3.05.24-6.1.33-9.16-.03-.47-.11-.93-.25-1.38-.44-2.07-.87-4.26.34-6.09.85-1.27,1.72-2.35,1.81-3.99.06-1.07,1.12-1.61,2.07-2.04h1.44Zm-2.38,57.35l-2.17,11.62h7.65l-2.18-11.62h-3.3Z"/>
    </g>
  </g>
</svg>