<svg xmlns="http://www.w3.org/2000/svg" viewBox="0 0 153.72 174.23"><defs><style>.cls-1{fill:#fff;}</style></defs><g id="Capa_2" data-name="Capa 2"><g id="Capa_1-2" data-name="Capa 1"><path class="cls-1" d="M114.84,106.27l10.1,10.06c.92-1,2.06-2.12,3-3.35a7,7,0,0,0-.35-9.17,6.85,6.85,0,0,0-8.81-1.21A34.94,34.94,0,0,0,114.84,106.27ZM34.49,154.83v14.29c1.52,0,2.93,0,4.33,0a7.06,7.06,0,0,0,6.8-6.35,6.9,6.9,0,0,0-5.69-7.64A48,48,0,0,0,34.49,154.83Zm0-64.57c0,2.15,0,4,0,5.76a1.42,1.42,0,0,0,.86,1,39.89,39.89,0,0,1,11.27,5,1.76,1.76,0,0,0,1.58,0c1.56-1.11,3-2.35,4.52-3.58a1.56,1.56,0,0,0,.62-.93c0-2.34,0-4.68,0-7.24A24.62,24.62,0,0,1,34.46,90.26Zm25.95,78.79a2.24,2.24,0,0,0,.14-.44c0-9,0-18,0-27a3.24,3.24,0,0,0-3.17-3.54c-6.63-.11-13.25-.09-19.88,0a3,3,0,0,0-3,2.95c-.19,2.86,0,5.74,0,8.83,5.38-.39,10.4.17,13.83,4.82s3.25,9.43.43,14.39ZM25.34,66.53a2.19,2.19,0,0,0-.19.45,18.7,18.7,0,0,0,12.06,18.8,18.89,18.89,0,0,0,21.65-6.1c3.6-4.66,4.18-10,3.86-15.61,0-.39-.81-1-1.32-1.06a23.61,23.61,0,0,1-12.25-6.17c-.31-.3-.66-.55-1-.86A36.46,36.46,0,0,1,25.34,66.53Zm31.16,66.3c0-3.51-.07-6.74,0-10a10.48,10.48,0,0,0-1.9-6.39,36.81,36.81,0,0,0-15.26-12.63,19.61,19.61,0,0,0-7.61-2c-13.9-.23-26.31,12.1-26.53,26.32-.17,11.22-.07,22.45,0,33.67,0,4.76,2.68,7.31,7.46,7.32,5,0,10.09,0,15.13,0,.49,0,1-.06,1.35-.09V154.9c-2.29,0-4.43,0-6.58,0s-3.15-.89-3.15-3.22q0-11.22,0-22.45c0-2.15.89-3.31,2.53-3.32s2.56,1.12,2.57,3.27v20.54h4.78c0-2.73,0-5.38,0-8a8.55,8.55,0,0,1,8-8.75c2.13-.2,4.3-.1,6.45-.11C47.92,132.82,52.11,132.83,56.5,132.83ZM144.59,0A31.92,31.92,0,0,1,150,2.77,10,10,0,0,1,153.69,11c0,4.65,0,9.3,0,14,0,2-1,3.18-2.53,3.21s-2.55-1.19-2.56-3.31c0-4.42,0-8.85,0-13.27,0-4.23-2.29-6.47-6.55-6.47q-44.47,0-89,0c-4.4,0-6.57,2.16-6.58,6.56s0,8.63,0,12.94c0,.8-.07,1.44,1.12,1.63C62,28.55,70.64,37.18,74.47,51a46.9,46.9,0,0,1,1.23,4.94c.24,1.46,1,1.73,2.31,1.71,5.95-.07,11.9,0,17.86,0,3.6,0,4.18.58,4.18,4.1V76c.68-.62,1.13-1,1.54-1.4,5.14-5.13,10.3-10.24,15.39-15.41a5,5,0,0,1,3.91-1.61c7.09,0,14.18,0,21.26,0,4.18,0,6.43-2.24,6.44-6.39,0-4.48,0-9,0-13.44,0-2.08.88-3.13,2.52-3.13s2.56,1.09,2.57,3.12c0,4.54,0,9.07,0,13.61-.05,6.75-4.54,11.29-11.32,11.36-6.47.06-12.93.07-19.39,0a5,5,0,0,0-4,1.69c-6.24,6.35-12.57,12.61-18.85,18.92-1,1-2,1.92-3.56,1.31s-1.65-2-1.64-3.4c0-6.07,0-12.13,0-18.33H77.57c.16.69.3,1.38.47,2.07,1.47,5.94,3.27,11.81,4.32,17.82,1.34,7.73-1,14.34-7.53,19.14a4.7,4.7,0,0,0-.47.49l23.4,14.73c1-1.11,2.06-2.17,3.06-3.24,4.38-4.67,8.65-9.46,13.18-14a12.07,12.07,0,0,1,20.18,5.55,11.43,11.43,0,0,1-2.51,11c-3.81,4.28-7.77,8.42-11.7,12.58a2.54,2.54,0,0,1-3.76.32c-1.11-1.06-1.12-2.44.08-3.78,1.55-1.72,3.16-3.4,4.63-5l-9.94-10c-.23.22-.6.54-.93.9q-4.67,4.95-9.31,9.92c-1.72,1.84-2.61,2-4.72.65q-12.72-8-25.46-16a28.82,28.82,0,0,0-11-4.16,4.76,4.76,0,0,0-4.63,1.25,38.64,38.64,0,0,1-3.06,2.51c1.67,1.76,3.37,3.42,4.91,5.21,3.3,3.81,5.32,8.12,4.89,13.34-.15,1.8,0,3.63,0,5.44-.06,2.48-.2,4.78,2.2,6.64,1.62,1.25,1.9,3.5,1.9,5.62,0,8.4,0,16.79,0,25.18V169h5.93V130.28c0-.45,0-.9,0-1.36.08-2.9,2-3.95,4.43-2.43q9.63,5.91,19.24,11.86c4,2.47,7.08,2.06,10.32-1.35.94-1,1.82-2,2.84-2.93a2.28,2.28,0,0,1,3.36.14,2.19,2.19,0,0,1,.24,3.22,36.78,36.78,0,0,1-5.75,5.49c-4.16,2.88-8.63,2.8-13,.19-5-3-9.94-6.12-14.9-9.18-.47-.29-1-.55-1.72-1v37.44c0,3.2-.67,3.85-3.91,3.85H13.44c-7.65,0-11.43-3-13.23-10.43a2.72,2.72,0,0,0-.21-.46V126.59a11.61,11.61,0,0,0,.29-1.3c1-8.84,5.23-15.91,12-21.56.45-.39.91-.77,1.59-1.33a5.25,5.25,0,0,1-.62-.3c-6.61-4.69-9.13-11.25-7.8-19,1.1-6.45,3-12.77,4.61-19.13q2.14-8.4,4.5-16.73a2.47,2.47,0,0,1,3.26-1.88c1.39.47,2,1.82,1.53,3.49-1.3,4.81-2.64,9.61-3.87,14.43-1.74,6.8-3.62,13.57-5.05,20.44a13.32,13.32,0,0,0,7.46,15.1,3,3,0,0,0,1.75.35c3.19-.89,6.35-1.9,9.69-2.92,0-2.44.07-5.11,0-7.76a4.28,4.28,0,0,0-1-2.12c-1.81-2.38-4-4.53-5.51-7.06C19.88,74.57,19.74,69.19,20,63.82c.1-1.66,1.26-2.25,2.83-2.29A31.08,31.08,0,0,0,46,50.73c1.61-1.8,3.13-1.72,4.65.21a18.14,18.14,0,0,0,14.17,7.27c2.1.08,3,1,3,3.06s0,4.31,0,6.46a24,24,0,0,1-8.5,18.73,2.27,2.27,0,0,0-.87,1.33c-.08,2.94,0,5.87,0,8.54,3.12.85,6.05,1.52,8.88,2.46a3.65,3.65,0,0,0,3-.16,13.41,13.41,0,0,0,7-15.24c-2.68-11.41-5.2-22.9-8.81-34C62.13,29.6,38.49,25.19,25.18,39.24c-1.39,1.47-2.86,1.58-4,.42s-1-2.5.31-3.9a30.52,30.52,0,0,1,15.18-8.88c1.52-.38,3.07-.62,4.73-.94V24c0-4.42,0-8.84,0-13.27A10.42,10.42,0,0,1,47.83,1C48.64.56,49.51.31,50.35,0Z"/></g></g></svg>