<svg xmlns="http://www.w3.org/2000/svg" viewBox="0 0 355.6 247.5"><defs><style>.cls-1{fill:#c5defd;}.cls-2{fill:#1e589f;}</style></defs><g id="Capa_2" data-name="Capa 2"><g id="Capa_1-2" data-name="Capa 1"><path class="cls-1" d="M76.81,0q3.78,0,7.53.37A72.54,72.54,0,0,1,91.8,1.48,77.21,77.21,0,0,1,113,9.07c2.22,1.18,4.37,2.48,6.46,3.87s4.11,2.9,6.06,4.49,3.8,3.29,5.58,5.06,3.47,3.65,5.07,5.59,3.09,4,4.49,6.06,2.68,4.24,3.87,6.46,2.26,4.49,3.22,6.81a75,75,0,0,1,2.54,7.1q1.09,3.62,1.83,7.31a75.38,75.38,0,0,1,1.11,7.46q.38,3.75.37,7.53t-.37,7.53a74.75,74.75,0,0,1-1.11,7.45q-.73,3.7-1.83,7.32A77.64,77.64,0,0,1,144.55,113c-1.18,2.21-2.48,4.37-3.87,6.46s-2.9,4.11-4.49,6.06-3.29,3.8-5.07,5.58-3.64,3.47-5.58,5.07-4,3.09-6.06,4.48-4.24,2.69-6.46,3.88a74.42,74.42,0,0,1-6.82,3.22c-2.32,1-4.69,1.81-7.09,2.54s-4.85,1.34-7.31,1.83-5,.86-7.46,1.11-5,.37-7.53.37-5-.12-7.53-.37-5-.62-7.45-1.11-4.91-1.1-7.32-1.83-4.77-1.58-7.09-2.54a74.42,74.42,0,0,1-6.82-3.22q-3.33-1.78-6.46-3.88c-2.1-1.39-4.11-2.89-6.06-4.48s-3.8-3.29-5.58-5.07-3.47-3.64-5.07-5.58-3.09-4-4.49-6.06-2.68-4.25-3.87-6.46A77.64,77.64,0,0,1,3.31,99.11q-1.1-3.61-1.83-7.32A74.75,74.75,0,0,1,.37,84.34Q0,80.57,0,76.81t.37-7.53a75.38,75.38,0,0,1,1.11-7.46q.73-3.69,1.83-7.31a75,75,0,0,1,2.54-7.1q1.44-3.48,3.22-6.81t3.87-6.46c1.4-2.1,2.9-4.11,4.49-6.06s3.29-3.8,5.07-5.59,3.64-3.46,5.58-5.06,4-3.09,6.06-4.49,4.24-2.69,6.46-3.87A76.65,76.65,0,0,1,61.83,1.48,71.94,71.94,0,0,1,69.28.37C71.79.12,74.29,0,76.81,0Z"/><path class="cls-2" d="M290.17,116.64c2.15,0,4.28.1,6.42.31s4.25.53,6.35.94,4.18.94,6.23,1.56,4.06,1.35,6,2.17,3.92,1.73,5.81,2.74,3.72,2.11,5.5,3.3,3.5,2.47,5.16,3.83,3.24,2.79,4.76,4.31,2.95,3.1,4.31,4.76,2.64,3.37,3.83,5.16,2.29,3.61,3.3,5.5,1.92,3.83,2.74,5.81,1.54,4,2.17,6,1.14,4.13,1.56,6.23.73,4.22.94,6.35.31,4.27.31,6.42-.1,4.28-.31,6.41-.53,4.25-.94,6.35-.94,4.18-1.56,6.23-1.35,4.07-2.17,6.05-1.73,3.91-2.74,5.8-2.11,3.73-3.3,5.51-2.47,3.5-3.83,5.16-2.8,3.24-4.31,4.75-3.1,3-4.76,4.32-3.37,2.63-5.16,3.82-3.61,2.29-5.5,3.3-3.83,1.93-5.81,2.75-4,1.54-6,2.16-4.13,1.14-6.23,1.56-4.22.73-6.35.94-4.27.32-6.42.32-4.28-.11-6.41-.32-4.25-.52-6.35-.94-4.18-.94-6.23-1.56-4.07-1.34-6.05-2.16-3.91-1.74-5.8-2.75-3.73-2.11-5.51-3.3-3.5-2.46-5.16-3.82-3.24-2.8-4.75-4.32-3-3.1-4.32-4.75-2.63-3.38-3.82-5.16-2.29-3.62-3.3-5.51-1.93-3.82-2.75-5.8-1.54-4-2.16-6.05-1.14-4.13-1.56-6.23-.73-4.22-.94-6.35-.32-4.27-.32-6.41.11-4.28.32-6.42.52-4.25.94-6.35.94-4.17,1.56-6.23,1.34-4.06,2.16-6,1.74-3.92,2.75-5.81,2.11-3.72,3.3-5.5,2.46-3.5,3.82-5.16,2.8-3.24,4.32-4.76,3.1-3,4.75-4.31,3.38-2.64,5.16-3.83,3.62-2.29,5.51-3.3,3.82-1.92,5.8-2.74,4-1.54,6.05-2.17,4.13-1.14,6.23-1.56,4.22-.73,6.35-.94S288,116.64,290.17,116.64Z"/></g></g></svg>